<?xml version="1.0" encoding="UTF-8" standalone="no"?>
<!DOCTYPE svg PUBLIC "-//W3C//DTD SVG 1.1//EN"
 "http://www.w3.org/Graphics/SVG/1.1/DTD/svg11.dtd">
<!-- Generated by graphviz version 2.47.0 (20210316.0004)
 -->
<!-- Title: dependencies Pages: 1 -->
<svg width="504pt" height="211pt"
 viewBox="0.00 0.00 504.00 211.00" xmlns="http://www.w3.org/2000/svg" xmlns:xlink="http://www.w3.org/1999/xlink">
<g id="graph0" class="graph" transform="scale(1 1) rotate(0) translate(4 207)">
<title>dependencies</title>
<polygon fill="white" stroke="transparent" points="-4,4 -4,-207 500,-207 500,4 -4,4"/>
<text text-anchor="start" x="227.01" y="-42.4" font-family="sans-serif" font-weight="bold" font-size="14.00">Legend</text>
<polygon fill="#ffffb3" stroke="transparent" points="14,-10 14,-30 34,-30 34,-10 14,-10"/>
<text text-anchor="start" x="37.63" y="-15.4" font-family="sans-serif" font-size="14.00"> &#160;Declarations</text>
<polygon fill="#8dd3c7" stroke="transparent" points="127,-10 127,-30 147,-30 147,-10 127,-10"/>
<text text-anchor="start" x="150.73" y="-15.4" font-family="sans-serif" font-size="14.00"> &#160;Module</text>
<polygon fill="#80b1d3" stroke="transparent" points="213,-10 213,-30 233,-30 233,-10 213,-10"/>
<text text-anchor="start" x="236.78" y="-15.4" font-family="sans-serif" font-size="14.00"> &#160;Bootstrap</text>
<polygon fill="#fdb462" stroke="transparent" points="310,-10 310,-30 330,-30 330,-10 310,-10"/>
<text text-anchor="start" x="333.67" y="-15.4" font-family="sans-serif" font-size="14.00"> &#160;Providers</text>
<polygon fill="#fb8072" stroke="transparent" points="406,-10 406,-30 426,-30 426,-10 406,-10"/>
<text text-anchor="start" x="429.73" y="-15.4" font-family="sans-serif" font-size="14.00"> &#160;Exports</text>
<g id="clust1" class="cluster">
<title>cluster_IsThisBetterPageModule</title>
<polygon fill="none" stroke="black" stroke-dasharray="1,5" points="63,-70 63,-195 433,-195 433,-70 63,-70"/>
</g>
<g id="clust4" class="cluster">
<title>cluster_IsThisBetterPageModule_imports</title>
<polygon fill="none" stroke="black" points="207,-78 207,-130 425,-130 425,-78 207,-78"/>
</g>
<g id="clust2" class="cluster">
<title>cluster_IsThisBetterPageModule_declarations</title>
<polygon fill="none" stroke="black" points="71,-78 71,-130 199,-130 199,-78 71,-78"/>
</g>
<!-- IsThisBetterPage -->
<g id="node1" class="node">
<title>IsThisBetterPage</title>
<polygon fill="#ffffb3" stroke="black" points="191.41,-122 78.59,-122 78.59,-86 191.41,-86 191.41,-122"/>
<text text-anchor="middle" x="135" y="-99.8" font-family="Times,serif" font-size="14.00">IsThisBetterPage</text>
</g>
<!-- IsThisBetterPageModule -->
<g id="node2" class="node">
<title>IsThisBetterPageModule</title>
<polygon fill="#8dd3c7" stroke="black" points="309.96,-187 306.96,-191 285.96,-191 282.96,-187 154.04,-187 154.04,-151 309.96,-151 309.96,-187"/>
<text text-anchor="middle" x="232" y="-164.8" font-family="Times,serif" font-size="14.00">IsThisBetterPageModule</text>
</g>
<!-- IsThisBetterPage&#45;&gt;IsThisBetterPageModule -->
<g id="edge1" class="edge">
<title>IsThisBetterPage&#45;&gt;IsThisBetterPageModule</title>
<path fill="none" stroke="black" d="M172.61,-122.11C172.61,-122.11 172.61,-140.99 172.61,-140.99"/>
<polygon fill="black" stroke="black" points="169.11,-140.99 172.61,-150.99 176.11,-140.99 169.11,-140.99"/>
</g>
<!-- IsThisBetterPageRoutingModule -->
<g id="node3" class="node">
<title>IsThisBetterPageRoutingModule</title>
<polygon fill="#8dd3c7" stroke="black" points="416.58,-122 413.58,-126 392.58,-126 389.58,-122 215.42,-122 215.42,-86 416.58,-86 416.58,-122"/>
<text text-anchor="middle" x="316" y="-99.8" font-family="Times,serif" font-size="14.00">IsThisBetterPageRoutingModule</text>
</g>
<!-- IsThisBetterPageRoutingModule&#45;&gt;IsThisBetterPageModule -->
<g id="edge2" class="edge">
<title>IsThisBetterPageRoutingModule&#45;&gt;IsThisBetterPageModule</title>
<path fill="none" stroke="black" d="M262.72,-122.11C262.72,-122.11 262.72,-140.99 262.72,-140.99"/>
<polygon fill="black" stroke="black" points="259.22,-140.99 262.72,-150.99 266.22,-140.99 259.22,-140.99"/>
</g>
</g>
</svg>
