<?xml version="1.0" encoding="UTF-8" standalone="no"?>
<!DOCTYPE svg PUBLIC "-//W3C//DTD SVG 1.1//EN"
 "http://www.w3.org/Graphics/SVG/1.1/DTD/svg11.dtd">
<!-- Generated by graphviz version 2.47.0 (20210316.0004)
 -->
<!-- Title: dependencies Pages: 1 -->
<svg width="504pt" height="211pt"
 viewBox="0.00 0.00 504.00 211.00" xmlns="http://www.w3.org/2000/svg" xmlns:xlink="http://www.w3.org/1999/xlink">
<g id="graph0" class="graph" transform="scale(1 1) rotate(0) translate(4 207)">
<title>dependencies</title>
<polygon fill="white" stroke="transparent" points="-4,4 -4,-207 500,-207 500,4 -4,4"/>
<text text-anchor="start" x="227.01" y="-42.4" font-family="sans-serif" font-weight="bold" font-size="14.00">Legend</text>
<polygon fill="#ffffb3" stroke="transparent" points="14,-10 14,-30 34,-30 34,-10 14,-10"/>
<text text-anchor="start" x="37.63" y="-15.4" font-family="sans-serif" font-size="14.00"> &#160;Declarations</text>
<polygon fill="#8dd3c7" stroke="transparent" points="127,-10 127,-30 147,-30 147,-10 127,-10"/>
<text text-anchor="start" x="150.73" y="-15.4" font-family="sans-serif" font-size="14.00"> &#160;Module</text>
<polygon fill="#80b1d3" stroke="transparent" points="213,-10 213,-30 233,-30 233,-10 213,-10"/>
<text text-anchor="start" x="236.78" y="-15.4" font-family="sans-serif" font-size="14.00"> &#160;Bootstrap</text>
<polygon fill="#fdb462" stroke="transparent" points="310,-10 310,-30 330,-30 330,-10 310,-10"/>
<text text-anchor="start" x="333.67" y="-15.4" font-family="sans-serif" font-size="14.00"> &#160;Providers</text>
<polygon fill="#fb8072" stroke="transparent" points="406,-10 406,-30 426,-30 426,-10 406,-10"/>
<text text-anchor="start" x="429.73" y="-15.4" font-family="sans-serif" font-size="14.00"> &#160;Exports</text>
<g id="clust1" class="cluster">
<title>cluster_EnjoyYourDayPageModule</title>
<polygon fill="none" stroke="black" stroke-dasharray="1,5" points="47,-70 47,-195 449,-195 449,-70 47,-70"/>
</g>
<g id="clust2" class="cluster">
<title>cluster_EnjoyYourDayPageModule_declarations</title>
<polygon fill="none" stroke="black" points="297,-78 297,-130 441,-130 441,-78 297,-78"/>
</g>
<g id="clust4" class="cluster">
<title>cluster_EnjoyYourDayPageModule_imports</title>
<polygon fill="none" stroke="black" points="55,-78 55,-130 289,-130 289,-78 55,-78"/>
</g>
<!-- EnjoyYourDayPage -->
<g id="node1" class="node">
<title>EnjoyYourDayPage</title>
<polygon fill="#ffffb3" stroke="black" points="433.24,-122 304.76,-122 304.76,-86 433.24,-86 433.24,-122"/>
<text text-anchor="middle" x="369" y="-99.8" font-family="Times,serif" font-size="14.00">EnjoyYourDayPage</text>
</g>
<!-- EnjoyYourDayPageModule -->
<g id="node2" class="node">
<title>EnjoyYourDayPageModule</title>
<polygon fill="#8dd3c7" stroke="black" points="349.29,-187 346.29,-191 325.29,-191 322.29,-187 176.71,-187 176.71,-151 349.29,-151 349.29,-187"/>
<text text-anchor="middle" x="263" y="-164.8" font-family="Times,serif" font-size="14.00">EnjoyYourDayPageModule</text>
</g>
<!-- EnjoyYourDayPage&#45;&gt;EnjoyYourDayPageModule -->
<g id="edge1" class="edge">
<title>EnjoyYourDayPage&#45;&gt;EnjoyYourDayPageModule</title>
<path fill="none" stroke="black" d="M326.89,-122.11C326.89,-122.11 326.89,-140.99 326.89,-140.99"/>
<polygon fill="black" stroke="black" points="323.39,-140.99 326.89,-150.99 330.39,-140.99 323.39,-140.99"/>
</g>
<!-- EnjoyYourDayPageRoutingModule -->
<g id="node3" class="node">
<title>EnjoyYourDayPageRoutingModule</title>
<polygon fill="#8dd3c7" stroke="black" points="280.91,-122 277.91,-126 256.91,-126 253.91,-122 63.09,-122 63.09,-86 280.91,-86 280.91,-122"/>
<text text-anchor="middle" x="172" y="-99.8" font-family="Times,serif" font-size="14.00">EnjoyYourDayPageRoutingModule</text>
</g>
<!-- EnjoyYourDayPageRoutingModule&#45;&gt;EnjoyYourDayPageModule -->
<g id="edge2" class="edge">
<title>EnjoyYourDayPageRoutingModule&#45;&gt;EnjoyYourDayPageModule</title>
<path fill="none" stroke="black" d="M228.78,-122.11C228.78,-122.11 228.78,-140.99 228.78,-140.99"/>
<polygon fill="black" stroke="black" points="225.28,-140.99 228.78,-150.99 232.28,-140.99 225.28,-140.99"/>
</g>
</g>
</svg>
