<?xml version="1.0" encoding="UTF-8" standalone="no"?>
<!DOCTYPE svg PUBLIC "-//W3C//DTD SVG 1.1//EN"
 "http://www.w3.org/Graphics/SVG/1.1/DTD/svg11.dtd">
<!-- Generated by graphviz version 2.47.0 (20210316.0004)
 -->
<!-- Title: dependencies Pages: 1 -->
<svg width="504pt" height="211pt"
 viewBox="0.00 0.00 504.00 211.00" xmlns="http://www.w3.org/2000/svg" xmlns:xlink="http://www.w3.org/1999/xlink">
<g id="graph0" class="graph" transform="scale(1 1) rotate(0) translate(4 207)">
<title>dependencies</title>
<polygon fill="white" stroke="transparent" points="-4,4 -4,-207 500,-207 500,4 -4,4"/>
<text text-anchor="start" x="227.01" y="-42.4" font-family="sans-serif" font-weight="bold" font-size="14.00">Legend</text>
<polygon fill="#ffffb3" stroke="transparent" points="14,-10 14,-30 34,-30 34,-10 14,-10"/>
<text text-anchor="start" x="37.63" y="-15.4" font-family="sans-serif" font-size="14.00"> &#160;Declarations</text>
<polygon fill="#8dd3c7" stroke="transparent" points="127,-10 127,-30 147,-30 147,-10 127,-10"/>
<text text-anchor="start" x="150.73" y="-15.4" font-family="sans-serif" font-size="14.00"> &#160;Module</text>
<polygon fill="#80b1d3" stroke="transparent" points="213,-10 213,-30 233,-30 233,-10 213,-10"/>
<text text-anchor="start" x="236.78" y="-15.4" font-family="sans-serif" font-size="14.00"> &#160;Bootstrap</text>
<polygon fill="#fdb462" stroke="transparent" points="310,-10 310,-30 330,-30 330,-10 310,-10"/>
<text text-anchor="start" x="333.67" y="-15.4" font-family="sans-serif" font-size="14.00"> &#160;Providers</text>
<polygon fill="#fb8072" stroke="transparent" points="406,-10 406,-30 426,-30 426,-10 406,-10"/>
<text text-anchor="start" x="429.73" y="-15.4" font-family="sans-serif" font-size="14.00"> &#160;Exports</text>
<g id="clust1" class="cluster">
<title>cluster_SetNewPasswordPageModule</title>
<polygon fill="none" stroke="black" stroke-dasharray="1,5" points="34,-70 34,-195 462,-195 462,-70 34,-70"/>
</g>
<g id="clust4" class="cluster">
<title>cluster_SetNewPasswordPageModule_imports</title>
<polygon fill="none" stroke="black" points="208,-78 208,-130 454,-130 454,-78 208,-78"/>
</g>
<g id="clust2" class="cluster">
<title>cluster_SetNewPasswordPageModule_declarations</title>
<polygon fill="none" stroke="black" points="42,-78 42,-130 200,-130 200,-78 42,-78"/>
</g>
<!-- SetNewPasswordPage -->
<g id="node1" class="node">
<title>SetNewPasswordPage</title>
<polygon fill="#ffffb3" stroke="black" points="191.68,-122 50.32,-122 50.32,-86 191.68,-86 191.68,-122"/>
<text text-anchor="middle" x="121" y="-99.8" font-family="Times,serif" font-size="14.00">SetNewPasswordPage</text>
</g>
<!-- SetNewPasswordPageModule -->
<g id="node2" class="node">
<title>SetNewPasswordPageModule</title>
<polygon fill="#8dd3c7" stroke="black" points="324.23,-187 321.23,-191 300.23,-191 297.23,-187 139.77,-187 139.77,-151 324.23,-151 324.23,-187"/>
<text text-anchor="middle" x="232" y="-164.8" font-family="Times,serif" font-size="14.00">SetNewPasswordPageModule</text>
</g>
<!-- SetNewPasswordPage&#45;&gt;SetNewPasswordPageModule -->
<g id="edge1" class="edge">
<title>SetNewPasswordPage&#45;&gt;SetNewPasswordPageModule</title>
<path fill="none" stroke="black" d="M165.61,-122.11C165.61,-122.11 165.61,-140.99 165.61,-140.99"/>
<polygon fill="black" stroke="black" points="162.11,-140.99 165.61,-150.99 169.11,-140.99 162.11,-140.99"/>
</g>
<!-- SetNewPasswordPageRoutingModule -->
<g id="node3" class="node">
<title>SetNewPasswordPageRoutingModule</title>
<polygon fill="#8dd3c7" stroke="black" points="445.85,-122 442.85,-126 421.85,-126 418.85,-122 216.15,-122 216.15,-86 445.85,-86 445.85,-122"/>
<text text-anchor="middle" x="331" y="-99.8" font-family="Times,serif" font-size="14.00">SetNewPasswordPageRoutingModule</text>
</g>
<!-- SetNewPasswordPageRoutingModule&#45;&gt;SetNewPasswordPageModule -->
<g id="edge2" class="edge">
<title>SetNewPasswordPageRoutingModule&#45;&gt;SetNewPasswordPageModule</title>
<path fill="none" stroke="black" d="M270.22,-122.11C270.22,-122.11 270.22,-140.99 270.22,-140.99"/>
<polygon fill="black" stroke="black" points="266.72,-140.99 270.22,-150.99 273.72,-140.99 266.72,-140.99"/>
</g>
</g>
</svg>
