<svg width="33" height="37" viewBox="0 0 33 37" fill="none" xmlns="http://www.w3.org/2000/svg">
<path d="M9.94603 30.445C8.80621 28.2997 8.23052 25.8999 8.27304 23.471C8.40339 21.3211 9.3493 19.3021 10.9177 17.8259C12.4861 16.3497 14.5587 15.5277 16.7125 15.5277C18.8664 15.5277 20.939 16.3497 22.5074 17.8259C24.0758 19.3021 25.0217 21.3211 25.152 23.471C25.152 23.7109 25.2473 23.941 25.417 24.1106C25.5866 24.2802 25.8166 24.3755 26.0565 24.3755C26.2964 24.3755 26.5265 24.2802 26.6961 24.1106C26.8657 23.941 26.961 23.7109 26.961 23.471C26.8389 20.8347 25.7056 18.3468 23.7967 16.5243C21.8879 14.7019 19.3502 13.685 16.711 13.685C14.0719 13.685 11.5342 14.7019 9.62534 16.5243C7.71647 18.3468 6.5832 20.8347 6.46103 23.471C6.41797 26.2111 7.07505 28.9169 8.37004 31.332C9.3215 33.1038 10.5488 34.7129 12.006 36.099C12.0897 36.1846 12.1895 36.2526 12.2997 36.2992C12.41 36.3457 12.5284 36.3698 12.648 36.37C12.7655 36.3727 12.8821 36.3499 12.9898 36.3031C13.0976 36.2563 13.1939 36.1867 13.272 36.099C13.3574 36.0165 13.4254 35.9177 13.4721 35.8086C13.5189 35.6995 13.5434 35.5821 13.5442 35.4634C13.545 35.3447 13.5222 35.227 13.477 35.1172C13.4318 35.0074 13.3652 34.9077 13.281 34.824C11.9408 33.5535 10.8146 32.0748 9.94603 30.445Z" fill="#727272"/>
<path d="M6.65303 4.93703C9.74779 3.2613 13.2119 2.38448 16.7312 2.38605C20.2505 2.38762 23.7138 3.26754 26.807 4.94603C26.9365 5.00994 27.0786 5.04411 27.223 5.04603C27.4263 5.04659 27.6238 4.97872 27.7837 4.85336C27.9437 4.72799 28.0568 4.55244 28.1049 4.35496C28.1529 4.15748 28.1331 3.94958 28.0486 3.76474C27.9641 3.57991 27.8198 3.42889 27.639 3.33603C24.2817 1.52375 20.5261 0.57564 16.7109 0.577211C12.8957 0.578783 9.14085 1.52998 5.78503 3.34503C5.67691 3.40002 5.58092 3.47613 5.50274 3.56887C5.42455 3.66161 5.36577 3.76909 5.32985 3.88495C5.29394 4.00081 5.28163 4.1227 5.29365 4.2434C5.30568 4.3641 5.34179 4.48117 5.39986 4.58766C5.45793 4.69416 5.53676 4.78793 5.6317 4.86342C5.72665 4.93891 5.83577 4.99459 5.95262 5.02717C6.06946 5.05974 6.19165 5.06855 6.31195 5.05307C6.43226 5.03758 6.54824 4.99813 6.65303 4.93703Z" fill="#727272"/>
<path d="M16.648 9.31501C13.832 9.28828 11.0651 10.0535 8.66294 11.5233C6.26078 12.9931 4.32002 15.1084 3.06201 17.628C2.21314 19.4603 1.78957 21.4609 1.823 23.48C1.82537 25.9254 2.273 28.35 3.144 30.635C3.18557 30.7466 3.24871 30.849 3.32982 30.9362C3.41094 31.0234 3.50844 31.0938 3.61676 31.1433C3.72508 31.1929 3.8421 31.2206 3.96113 31.2249C4.08016 31.2292 4.19888 31.2101 4.3105 31.1685C4.42213 31.1269 4.52447 31.0638 4.61169 30.9827C4.69891 30.9016 4.7693 30.8041 4.81884 30.6957C4.86838 30.5874 4.89611 30.4704 4.90042 30.3514C4.90474 30.2323 4.88557 30.1136 4.844 30.002C4.04461 27.9208 3.63774 25.7095 3.644 23.48C3.61003 21.7303 3.9717 19.9954 4.702 18.405C5.81051 16.1903 7.51972 14.3321 9.6343 13.0428C11.7489 11.7535 14.1835 11.0851 16.66 11.114C23.887 11.114 29.767 16.659 29.767 23.479C29.7047 24.4346 29.2811 25.3307 28.5822 25.9854C27.8834 26.6402 26.9616 27.0045 26.004 27.0045C25.0464 27.0045 24.1246 26.6402 23.4258 25.9854C22.7269 25.3307 22.3033 24.4346 22.241 23.479C22.1745 22.046 21.5584 20.6936 20.5207 19.703C19.483 18.7124 18.1036 18.1597 16.669 18.1597C15.2344 18.1597 13.855 18.7124 12.8173 19.703C11.7796 20.6936 11.1635 22.046 11.097 23.479C11.0915 25.2342 11.435 26.9729 12.1074 28.5942C12.7799 30.2155 13.7679 31.6869 15.014 32.923C16.8477 34.8026 19.1791 36.1207 21.735 36.723C21.8106 36.7488 21.8902 36.761 21.97 36.759C22.1911 36.7631 22.4059 36.6857 22.5736 36.5416C22.7413 36.3974 22.85 36.1966 22.879 35.9774C22.9081 35.7582 22.8554 35.536 22.7311 35.3531C22.6068 35.1703 22.4195 35.0396 22.205 34.986C19.9535 34.4574 17.8987 33.2998 16.28 31.648C15.2038 30.5799 14.3505 29.3086 13.7697 27.908C13.189 26.5074 12.8923 25.0053 12.897 23.489C12.9593 22.5334 13.3829 21.6373 14.0818 20.9826C14.7806 20.3278 15.7024 19.9635 16.66 19.9635C17.6176 19.9635 18.5394 20.3278 19.2382 20.9826C19.9371 21.6373 20.3607 22.5334 20.423 23.489C20.4895 24.9221 21.1056 26.2744 22.1433 27.265C23.181 28.2556 24.5604 28.8084 25.995 28.8084C27.4296 28.8084 28.809 28.2556 29.8467 27.265C30.8844 26.2744 31.5005 24.9221 31.567 23.489C31.564 15.675 24.87 9.31501 16.648 9.31501Z" fill="#727272"/>
<path d="M32.831 13.06C31.074 10.5843 28.7472 8.56757 26.047 7.18003C23.1483 5.7351 19.9532 4.9845 16.7144 4.98762C13.4756 4.99074 10.2819 5.7475 7.38601 7.19803C4.67563 8.59431 2.34459 10.6275 0.59301 13.123C0.524467 13.2197 0.475698 13.329 0.449502 13.4446C0.423307 13.5602 0.420202 13.6798 0.440364 13.7966C0.460527 13.9134 0.503561 14.0251 0.566995 14.1252C0.630429 14.2253 0.713014 14.3119 0.810009 14.38C0.964937 14.4853 1.14771 14.542 1.33501 14.543C1.47909 14.5435 1.62128 14.5102 1.75015 14.4458C1.87902 14.3814 1.99097 14.2876 2.07701 14.172C3.65845 11.9119 5.76652 10.0708 8.21901 8.80803C10.8582 7.48675 13.7684 6.79731 16.7199 6.79419C19.6713 6.79106 22.5831 7.47434 25.225 8.79003C27.6693 10.0412 29.7737 11.8663 31.358 14.109C31.4988 14.3039 31.7109 14.4351 31.9481 14.4741C32.1853 14.5131 32.4283 14.4566 32.624 14.317C32.7202 14.2482 32.8019 14.161 32.8644 14.0605C32.9269 13.96 32.9689 13.8482 32.9882 13.7315C33.0074 13.6147 33.0034 13.4953 32.9764 13.3801C32.9495 13.2649 32.9001 13.1561 32.831 13.06Z" fill="#727272"/>
<path d="M27.503 31.043C26.8783 31.1507 26.2459 31.2083 25.612 31.215C24.5692 31.2515 23.5296 31.0791 22.5544 30.7079C21.5792 30.3368 20.6881 29.7743 19.9334 29.0537C19.1787 28.3332 18.5757 27.469 18.1599 26.5119C17.744 25.5549 17.5238 24.5244 17.512 23.481C17.512 23.2411 17.4167 23.0111 17.2471 22.8415C17.0775 22.6718 16.8474 22.5765 16.6075 22.5765C16.3676 22.5765 16.1376 22.6718 15.9679 22.8415C15.7983 23.0111 15.703 23.2411 15.703 23.481C15.7173 25.0552 16.1166 26.602 16.8661 27.9864C17.6156 29.3707 18.6926 30.5506 20.003 31.423C21.6674 32.5116 23.6228 33.0695 25.611 33.023C26.351 33.0195 27.0894 32.9526 27.818 32.823C28.0543 32.781 28.2642 32.6468 28.4016 32.45C28.539 32.2532 28.5925 32.0098 28.5505 31.7735C28.5085 31.5372 28.3743 31.3273 28.1775 31.1899C27.9806 31.0525 27.7373 30.999 27.501 31.041L27.503 31.043Z" fill="#727272"/>
</svg>
