<svg width="375" height="262" viewBox="0 0 375 262" fill="none" xmlns="http://www.w3.org/2000/svg">
<path d="M375.45 -0.0800781H0V260.89H375.45V-0.0800781Z" fill="#72D3D9"/>
<path opacity="0.1" d="M252.29 0.220019L110.61 261.22H373.61V0.220019C373.61 0.220019 252.29 -0.449981 252.29 0.220019Z" fill="#E6EBF8"/>
<path opacity="0.16" d="M71.61 72.6199C104.61 55.6199 102.61 6.61994 147.61 4.61994C192.61 2.61994 216.61 19.6199 237.61 50.6199C256.41 78.3799 303.94 68.6799 323.61 76.6199C375.61 97.6199 386.61 162.62 340.61 190.62C282.8 225.81 278.61 190.62 241.61 225.62C204.61 260.62 8.61 233.62 2.61 173.62C-3.23 115.21 15.07 101.73 71.61 72.6199Z" fill="black"/>
<g opacity="0.23">
<path opacity="0.23" d="M333.22 209.893C339.362 202.712 338.519 191.911 331.338 185.768C324.156 179.626 313.355 180.469 307.213 187.65C301.07 194.832 301.913 205.633 309.095 211.776C316.276 217.918 327.078 217.075 333.22 209.893Z" stroke="white" stroke-width="8.83" stroke-miterlimit="10" stroke-linecap="round"/>
<path opacity="0.23" d="M332.42 134.38L321.21 181.45" stroke="white" stroke-width="8.83" stroke-miterlimit="10" stroke-linecap="round"/>
<path opacity="0.23" d="M331.44 139.35L344.2 142.27" stroke="white" stroke-width="8.83" stroke-miterlimit="10" stroke-linecap="round"/>
<path opacity="0.23" d="M328.84 150.32L341.59 153.24" stroke="white" stroke-width="8.83" stroke-miterlimit="10" stroke-linecap="round"/>
</g>
<path d="M68.7335 46.5512C69.23 42.301 66.187 38.453 61.9367 37.9565C57.6865 37.46 53.8385 40.503 53.342 44.7532C52.8455 49.0035 55.8885 52.8515 60.1387 53.348C64.389 53.8445 68.237 50.8015 68.7335 46.5512Z" stroke="black" stroke-width="3.99901" stroke-miterlimit="10" stroke-linecap="round"/>
<path d="M37.18 28L55.38 40.2" stroke="black" stroke-width="4" stroke-miterlimit="10" stroke-linecap="round"/>
<path d="M39.04 29.35L35.69 34.25" stroke="black" stroke-width="4" stroke-miterlimit="10" stroke-linecap="round"/>
<path d="M43.27 32.2L39.93 37.09" stroke="black" stroke-width="4" stroke-miterlimit="10" stroke-linecap="round"/>
<g opacity="0.28">
<path opacity="0.28" d="M48.9448 113.694C58.829 109.39 63.3527 97.8882 59.0488 88.004C54.7449 78.1198 43.2431 73.5961 33.3589 77.9C23.4747 82.204 18.951 93.7057 23.2549 103.59C27.5589 113.474 39.0606 117.998 48.9448 113.694Z" stroke="white" stroke-width="10.08" stroke-miterlimit="10" stroke-linecap="round"/>
<path opacity="0.28" d="M32.98 170.12L36.46 115.02" stroke="white" stroke-width="10.08" stroke-miterlimit="10" stroke-linecap="round"/>
<path opacity="0.28" d="M33.56 164.36L48.46 165.44" stroke="white" stroke-width="10.08" stroke-miterlimit="10" stroke-linecap="round"/>
<path opacity="0.28" d="M34.38 151.53L49.28 152.6" stroke="white" stroke-width="10.08" stroke-miterlimit="10" stroke-linecap="round"/>
</g>
<path opacity="0.27" d="M265.981 169.811H271.002V175.06H265.981V169.811ZM257.477 149.598C257.477 145.965 258.503 143.046 260.555 140.842C262.608 138.621 265.425 137.511 269.009 137.511C272.323 137.511 274.972 138.462 276.958 140.363C278.959 142.247 279.96 144.661 279.96 147.605C279.96 149.388 279.59 150.835 278.85 151.945C278.127 153.056 276.655 154.687 274.434 156.841C272.819 158.405 271.768 159.734 271.28 160.828C270.809 161.904 270.573 163.503 270.573 165.622H266.082C266.082 163.217 266.368 161.282 266.939 159.818C267.511 158.338 268.765 156.647 270.699 154.746L272.718 152.753C273.324 152.181 273.812 151.584 274.182 150.961C274.855 149.868 275.191 148.732 275.191 147.554C275.191 145.906 274.695 144.476 273.702 143.265C272.727 142.053 271.103 141.448 268.832 141.448C266.023 141.448 264.08 142.491 263.003 144.577C262.397 145.738 262.052 147.411 261.968 149.598H257.477Z" fill="white"/>
<path opacity="0.33" d="M311.008 75.2716H323.156V87.97H311.008V75.2716ZM290.434 26.3707C290.434 17.5795 292.916 10.5181 297.882 5.18644C302.847 -0.185946 309.664 -2.87214 318.334 -2.87214C326.351 -2.87214 332.762 -0.572595 337.564 4.02649C342.408 8.58488 344.829 14.4253 344.829 21.5478C344.829 25.862 343.934 29.3622 342.143 32.0484C340.393 34.7345 336.832 38.6824 331.459 43.892C327.552 47.6771 325.008 50.8924 323.828 53.5379C322.688 56.1427 322.119 60.0092 322.119 65.1373H311.252C311.252 59.3173 311.944 54.6368 313.327 51.0959C314.711 47.5143 317.743 43.424 322.424 38.8249L327.308 34.0019C328.773 32.6181 329.953 31.1733 330.849 29.6674C332.477 27.0219 333.291 24.2747 333.291 21.4257C333.291 17.4371 332.09 13.9776 329.689 11.0472C327.328 8.11683 323.401 6.65163 317.906 6.65163C311.109 6.65163 306.409 9.17502 303.804 14.2218C302.339 17.0301 301.504 21.0797 301.301 26.3707H290.434Z" fill="white"/>
<path d="M274.94 260.92C274.94 260.92 225.61 245.62 232.61 220.92C239.61 196.22 230.61 190.25 222.28 181.59C213.95 172.93 214.28 161.26 222.95 154.59C231.62 147.92 239.28 135.92 232.28 126.59C225.28 117.26 218.28 117.59 218.28 114.92C220.28 112.59 223.61 102.25 211.61 97.59C199.61 92.93 188.94 88.92 179.61 96.59C170.28 104.26 168.61 103.26 162.28 101.26C155.95 99.26 141.46 102.6 140.61 115.26C139.94 125.26 135.94 135.26 126.28 135.93C116.62 136.6 101.61 134.26 90.28 151.26C77.88 169.87 83.28 182.26 79.95 189.59C76.62 196.92 73.94 193.92 53.27 199.92C32.6 205.92 13.94 235.22 14.27 260.92C15.27 260.92 274.94 259.92 274.94 260.92Z" fill="black"/>
<path d="M272.27 260.92C264.526 258.544 257.031 255.423 249.89 251.6C246.323 249.676 242.919 247.465 239.71 244.99C236.466 242.533 233.637 239.572 231.33 236.22C230.197 234.526 229.314 232.677 228.71 230.73C228.404 229.75 228.179 228.747 228.04 227.73C227.96 227.23 227.97 226.73 227.93 226.2C227.881 225.691 227.881 225.179 227.93 224.67L228.05 223.14C228.11 222.63 228.25 222.14 228.35 221.64C228.55 220.64 228.81 219.64 229.06 218.64C229.31 217.64 229.58 216.64 229.79 215.7L230.36 212.7C231.107 208.745 231.268 204.702 230.84 200.7C230.362 196.698 228.864 192.887 226.49 189.63C224.16 186.35 221.17 183.63 218.36 180.69C217.65 179.97 216.99 179.18 216.36 178.4C215.734 177.594 215.16 176.749 214.64 175.87C214.114 174.995 213.646 174.086 213.24 173.15C212.856 172.204 212.542 171.232 212.3 170.24C211.27 166.235 211.728 161.992 213.59 158.3C214.561 156.499 215.813 154.865 217.3 153.46C218.84 152.1 220.45 150.92 221.91 149.52C224.862 146.769 227.297 143.51 229.1 139.9C229.537 138.994 229.917 138.062 230.24 137.11C230.544 136.153 230.771 135.173 230.92 134.18C231.071 133.187 231.134 132.184 231.11 131.18C231.045 130.165 230.874 129.16 230.6 128.18C230.331 127.216 229.966 126.281 229.51 125.39C228.997 124.528 228.429 123.699 227.81 122.91C225.34 119.709 222.226 117.062 218.67 115.14L215.94 113.92C215.488 113.68 215.056 113.402 214.65 113.09C214.443 112.922 214.272 112.714 214.147 112.479C214.021 112.243 213.944 111.985 213.92 111.72C214.911 110.342 215.55 108.742 215.78 107.06C216.061 105.393 215.965 103.685 215.5 102.06C215.026 100.422 214.137 98.9343 212.92 97.74L212.48 97.28L211.98 96.88L210.98 96.09C210.266 95.631 209.529 95.2104 208.77 94.83C207.24 94.1 205.63 93.51 204.03 92.9C202.43 92.29 200.83 91.7 199.21 91.17C195.999 90.0233 192.673 89.232 189.29 88.81C185.904 88.3787 182.463 88.8122 179.29 90.07L178.13 90.58C177.74 90.75 177.39 91 177.02 91.2C176.642 91.3948 176.278 91.6153 175.93 91.86L174.93 92.62C173.57 93.62 172.27 94.76 170.93 95.76C169.562 96.8011 168.095 97.7054 166.55 98.46C164.981 99.2371 163.215 99.5262 161.48 99.29C159.782 98.9682 158.111 98.5203 156.48 97.95C154.855 97.4911 153.165 97.3119 151.48 97.42C148.083 97.5834 144.774 98.5571 141.83 100.26C138.886 101.957 136.594 104.59 135.32 107.74C135.09 108.55 134.8 109.35 134.65 110.17C134.5 110.99 134.4 111.83 134.33 112.69C134.2 114.402 133.97 116.105 133.64 117.79C133.025 121.189 131.755 124.436 129.9 127.35C128.027 130.323 125.073 132.452 121.66 133.29C119.966 133.61 118.244 133.767 116.52 133.76L111.4 133.92C107.999 134.014 104.619 134.48 101.32 135.31C98.0258 136.125 94.8968 137.502 92.07 139.38C89.2945 141.337 86.8099 143.677 84.69 146.33C83.649 147.673 82.6778 149.068 81.78 150.51L80.43 152.68L79.26 154.92C76.0799 160.956 74.2028 167.593 73.75 174.4C73.45 177.79 73.53 181.21 73.07 184.64C72.9531 185.498 72.776 186.347 72.54 187.18L72.07 188.41C71.91 188.82 71.7 189.19 71.51 189.58C70.7893 191.2 69.5607 192.541 68.01 193.4C66.4353 194.116 64.775 194.627 63.07 194.92L58.07 195.92C54.73 196.6 51.41 197.39 48.07 198.25C46.43 198.73 44.76 199.11 43.16 199.67C41.5483 200.206 39.9747 200.851 38.45 201.6C35.4122 203.142 32.5491 205.006 29.91 207.16C24.6386 211.504 20.0682 216.634 16.36 222.37C12.6098 228.084 9.63702 234.271 7.52001 240.77C5.37086 247.27 4.28358 254.074 4.30001 260.92H4.25001C4.21686 254.07 5.28724 247.259 7.42001 240.75C9.5133 234.228 12.4659 228.013 16.2 222.27C19.8972 216.488 24.4643 211.31 29.74 206.92C32.3899 204.741 35.2664 202.854 38.32 201.29C39.8563 200.517 41.4432 199.848 43.07 199.29C44.7 198.72 46.36 198.29 48 197.85C51.3 196.97 54.63 196.16 58 195.47L63 194.47C64.6608 194.177 66.2772 193.673 67.81 192.97C69.258 192.146 70.4013 190.876 71.07 189.35C71.25 188.97 71.46 188.6 71.61 188.21L72.04 187.04C72.2709 186.23 72.4447 185.404 72.56 184.57C73.02 181.22 72.94 177.78 73.24 174.37C73.7001 167.496 75.5977 160.795 78.81 154.7L80.07 152.43L81.43 150.25C82.29 148.76 83.43 147.43 84.37 146.03C86.5248 143.356 89.0464 140.999 91.86 139.03C94.7167 137.091 97.8866 135.66 101.23 134.8C104.562 133.963 107.976 133.493 111.41 133.4L116.53 133.24C118.207 133.244 119.882 133.09 121.53 132.78C124.842 131.981 127.712 129.922 129.53 127.04C131.352 124.176 132.604 120.988 133.22 117.65C133.55 115.998 133.784 114.329 133.92 112.65C133.99 111.81 134.14 110.94 134.25 110.09C134.42 109.24 134.654 108.405 134.95 107.59C136.266 104.36 138.624 101.664 141.65 99.93C144.651 98.2052 148.022 97.2245 151.48 97.07C153.209 96.9633 154.944 97.1527 156.61 97.63C158.206 98.1786 159.841 98.6098 161.5 98.92C163.176 99.1537 164.883 98.8785 166.4 98.13C167.93 97.3906 169.383 96.503 170.74 95.48C172.13 94.48 173.42 93.38 174.79 92.35L175.79 91.59C176.13 91.33 176.53 91.15 176.89 90.92C177.251 90.6827 177.628 90.4721 178.02 90.29L179.2 89.77C182.414 88.5063 185.895 88.0763 189.32 88.52C192.731 88.9507 196.085 89.7556 199.32 90.92C200.94 91.46 202.54 92.06 204.14 92.67C205.74 93.28 207.34 93.87 208.89 94.62C209.638 94.9947 210.366 95.4086 211.07 95.86L212.07 96.66L212.57 97.06L213.01 97.53C214.242 98.743 215.144 100.251 215.63 101.91C216.114 103.565 216.22 105.308 215.94 107.01C215.711 108.728 215.061 110.363 214.05 111.77V111.71C214.074 111.947 214.145 112.176 214.26 112.384C214.376 112.592 214.532 112.774 214.72 112.92C215.117 113.221 215.539 113.488 215.98 113.72L218.67 115.12C222.259 117.05 225.403 119.71 227.9 122.93C228.53 123.729 229.108 124.567 229.63 125.44C230.098 126.347 230.473 127.298 230.75 128.28C231.029 129.259 231.206 130.264 231.28 131.28C231.309 132.3 231.249 133.321 231.1 134.33C230.954 135.347 230.726 136.35 230.42 137.33C230.095 138.296 229.711 139.241 229.27 140.16C227.473 143.818 225.034 147.123 222.07 149.92C220.61 151.33 218.96 152.55 217.47 153.92C216.018 155.301 214.796 156.904 213.85 158.67C212.045 162.281 211.611 166.424 212.63 170.33C212.87 171.301 213.181 172.254 213.56 173.18C213.961 174.096 214.422 174.985 214.94 175.84C215.454 176.698 216.022 177.523 216.64 178.31C217.29 179.08 217.94 179.84 218.64 180.56C221.45 183.45 224.45 186.22 226.81 189.56C229.215 192.879 230.73 196.759 231.21 200.83C231.636 204.876 231.464 208.964 230.7 212.96L230.12 215.96C229.9 216.96 229.63 217.96 229.38 218.91C229.13 219.86 228.86 220.91 228.66 221.85C228.56 222.34 228.42 222.85 228.36 223.32L228.23 224.82C228.181 225.319 228.181 225.821 228.23 226.32C228.213 226.822 228.247 227.325 228.33 227.82C228.465 228.813 228.683 229.793 228.98 230.75C229.571 232.671 230.436 234.497 231.55 236.17C233.83 239.5 236.629 242.444 239.84 244.89C243.033 247.363 246.417 249.58 249.96 251.52C257.079 255.368 264.554 258.516 272.28 260.92H272.27Z" fill="#231F20"/>
<path d="M215.94 118.92C215.94 118.92 214.11 129.92 212.94 133.59C211.77 137.26 206.77 151.42 204.27 153.76C201.77 156.1 195.77 158.59 188.94 159.43C182.11 160.27 175.07 160.62 171.77 166.92C168.47 173.22 163.77 182.42 165.1 193.92C165.1 193.92 169.85 200.59 171.85 203.59C173.85 206.59 186.1 223.59 188.6 227.09C189.85 228.59 190.85 226.34 190.6 225.09C190.35 223.84 194.85 192.09 195.6 189.34C196.35 186.59 200.6 169.09 200.85 166.59C201.1 164.09 199.35 157.09 202.85 156.09C205.467 155.289 208.018 154.286 210.48 153.09C211.61 152.59 214.61 151.09 215.23 149.09C215.85 147.09 215.73 145.22 215.98 144.47C216.425 143.229 217.104 142.085 217.98 141.1C219.23 139.6 219.11 140.85 218.73 141.98C218.273 143.162 217.898 144.375 217.61 145.61C217.332 147.422 216.958 149.218 216.49 150.99C215.777 152.048 214.937 153.015 213.99 153.87L215.24 153.5C215.49 152.94 216.87 151.31 217.18 150.75C217.49 150.19 217.93 145.81 218.31 145C218.69 144.19 219.81 140.63 220.19 140.31C220.57 139.99 221.19 139 221.32 139.56C221.283 140.468 221.073 141.361 220.7 142.19C220.39 143.13 219.58 146.5 219.26 148.25C218.94 150 217.32 152.69 216.76 154C216.238 154.991 215.516 155.863 214.64 156.56C214.39 156.81 207.89 160.44 206.77 161.06C206.329 161.243 205.955 161.557 205.697 161.959C205.44 162.361 205.312 162.833 205.33 163.31C205.127 164.989 205.087 166.683 205.21 168.37C205.4 170 213.52 202.62 214.02 212.12C214.52 221.62 215.52 254.17 212.15 260.92C211.65 262.17 211.28 260.92 211.28 260.92H79.61C79.61 260.92 102.86 191.87 127.61 179.87C135.36 176.87 160.11 170.87 170.36 159.12C174.88 153.94 179.21 145.59 186.61 137.37C195.98 126.92 205.07 133.37 215.94 118.92Z" fill="#FBEFEC"/>
<path d="M125.36 178.12C125.36 178.12 66.86 207.42 60.36 260.92C60.11 261.17 158.36 260.92 158.36 260.92C158.36 260.92 130.86 235.7 129.61 232.92C128.36 230.14 121.28 199.92 143.86 195.09C159.11 191.83 164.86 195.59 168.61 199.59L169.61 200.59C169.61 200.59 167.11 193.09 163.86 191.09C160.61 189.09 125.36 178.12 125.36 178.12Z" fill="#EF81CA"/>
<g opacity="0.31">
<path opacity="0.31" d="M212.46 114.51C208.347 110.948 203.204 108.793 197.78 108.36C195.086 108.199 192.388 108.618 189.87 109.59C188.627 110.084 187.48 110.791 186.48 111.68C185.494 112.585 184.672 113.654 184.05 114.84C182.76 117.2 182.17 119.84 181.17 122.4C180.708 123.711 179.936 124.891 178.92 125.84C178.377 126.278 177.761 126.616 177.1 126.84C176.448 127.039 175.778 127.173 175.1 127.24C172.367 127.364 169.632 127.046 167 126.3C164.38 125.71 161.71 124.94 159.07 125.3C157.758 125.466 156.533 126.044 155.57 126.95C154.642 127.905 153.9 129.024 153.38 130.25C152.26 132.7 151.47 135.25 150.56 137.85C149.698 140.424 148.656 142.933 147.44 145.36C146.223 147.798 144.615 150.021 142.68 151.94C140.718 153.841 138.362 155.288 135.78 156.18C133.2 157.022 130.539 157.592 127.84 157.88C122.45 158.52 117.02 158.5 111.64 159.06C108.95 159.297 106.292 159.816 103.71 160.61C101.131 161.41 98.7627 162.776 96.78 164.61C94.8532 166.485 93.3822 168.777 92.48 171.31C90.5635 176.355 89.1826 181.587 88.36 186.92C87.95 189.59 87.69 192.28 87.31 194.97C87.0462 197.706 86.237 200.362 84.93 202.78C83.444 205.103 81.4203 207.034 79.03 208.41C74.3286 211.078 69.8417 214.107 65.61 217.47C61.3778 220.841 57.7756 224.934 54.97 229.56C52.2093 234.24 50.5794 239.499 50.21 244.92C50.0292 247.617 50.0928 250.325 50.4 253.01C50.736 255.71 51.2606 258.383 51.97 261.01C51.2261 258.402 50.6648 255.746 50.29 253.06C49.9399 250.368 49.8462 247.649 50.01 244.94C50.3509 239.486 51.9566 234.186 54.7 229.46C57.4767 224.753 61.0655 220.575 65.3 217.12C69.5372 213.728 74.0419 210.685 78.77 208.02C81.0977 206.689 83.0701 204.816 84.52 202.56C85.796 200.194 86.5848 197.596 86.84 194.92C87.22 192.25 87.48 189.55 87.9 186.87C88.305 184.176 88.8525 181.506 89.54 178.87C90.2431 176.253 91.0877 173.676 92.07 171.15C93.0113 168.571 94.5301 166.242 96.51 164.34C98.5424 162.496 100.961 161.129 103.59 160.34C106.197 159.556 108.878 159.047 111.59 158.82C116.99 158.29 122.42 158.33 127.8 157.72C130.491 157.455 133.144 156.892 135.71 156.04C138.259 155.141 140.581 153.693 142.51 151.8C144.417 149.887 145.998 147.674 147.19 145.25C148.385 142.825 149.407 140.319 150.25 137.75C151.14 135.2 151.92 132.6 153.04 130.1C153.574 128.826 154.34 127.663 155.3 126.67C156.311 125.718 157.594 125.107 158.97 124.92C161.75 124.55 164.44 125.34 167.06 125.92C169.655 126.682 172.357 127.02 175.06 126.92C175.721 126.862 176.374 126.738 177.01 126.55C177.628 126.336 178.204 126.015 178.71 125.6C179.683 124.696 180.423 123.571 180.87 122.32C181.87 119.83 182.48 117.14 183.81 114.74C184.457 113.526 185.31 112.433 186.33 111.51C187.36 110.602 188.541 109.881 189.82 109.38C192.37 108.411 195.098 107.998 197.82 108.17C203.278 108.66 208.434 110.89 212.53 114.53L212.46 114.51Z" fill="#E6EBF8"/>
</g>
<g opacity="0.31">
<path opacity="0.31" d="M213.83 113.92C212.419 111.453 210.65 109.208 208.58 107.26C206.547 105.297 204.175 103.719 201.58 102.6C198.964 101.503 196.146 100.972 193.31 101.04C190.479 101.139 187.687 101.731 185.06 102.79C182.42 103.819 180.144 105.608 178.52 107.93C177.7 109.08 177.04 110.33 176.31 111.56C175.623 112.838 174.684 113.964 173.55 114.87C172.358 115.692 170.986 116.217 169.55 116.4C168.141 116.643 166.718 116.8 165.29 116.87C162.457 116.894 159.628 117.095 156.82 117.47C155.441 117.72 154.111 118.189 152.88 118.86C152.272 119.205 151.693 119.6 151.15 120.04C150.61 120.48 150.15 121.04 149.6 121.48C147.591 123.473 145.926 125.784 144.67 128.32C143.449 130.868 142.539 133.554 141.96 136.32C141.32 139.08 140.88 141.91 139.96 144.63C139.533 145.999 138.917 147.301 138.13 148.5C137.329 149.681 136.311 150.699 135.13 151.5C132.721 153.039 129.977 153.975 127.13 154.23C121.41 154.78 115.77 153.47 110.21 152.43C107.432 151.848 104.62 151.444 101.79 151.22C98.9754 150.931 96.1346 151.397 93.56 152.57C91.0851 153.947 89.2025 156.186 88.27 158.86C87.2571 161.506 86.4055 164.211 85.72 166.96C84.4191 172.479 83.5333 178.088 83.07 183.74C82.8353 186.589 82.3398 189.411 81.59 192.17C80.8028 194.965 79.2636 197.49 77.14 199.47C76.0645 200.425 74.8952 201.27 73.65 201.99C72.4233 202.71 71.21 203.447 70.01 204.2C67.61 205.71 65.25 207.29 63.01 209.02C58.4327 212.378 54.4738 216.506 51.31 221.22C48.2116 225.989 46.3141 231.438 45.78 237.1C45.5198 239.925 45.5433 242.769 45.85 245.59C46.1872 248.402 46.7286 251.186 47.47 253.92C46.691 251.182 46.1128 248.392 45.74 245.57C45.3881 242.74 45.3344 239.881 45.58 237.04C46.0801 231.323 47.9569 225.813 51.05 220.98C54.1982 216.197 58.1537 211.998 62.74 208.57C65 206.83 67.37 205.24 69.74 203.73C72.11 202.22 74.74 200.96 76.81 199.06C78.8438 197.144 80.3167 194.71 81.07 192.02C81.8133 189.291 82.3053 186.499 82.54 183.68C82.9859 177.999 83.8584 172.36 85.15 166.81C85.8614 164.046 86.7397 161.328 87.78 158.67C88.7624 155.922 90.7196 153.63 93.28 152.23C95.9119 151.047 98.8115 150.588 101.68 150.9C104.52 151.141 107.343 151.562 110.13 152.16C115.69 153.23 121.31 154.56 126.99 154.04C128.4 153.912 129.79 153.617 131.13 153.16C132.479 152.735 133.76 152.115 134.93 151.32C136.114 150.523 137.133 149.504 137.93 148.32C138.698 147.136 139.297 145.85 139.71 144.5C140.57 141.8 140.99 138.98 141.62 136.2C142.186 133.398 143.089 130.675 144.31 128.09C145.578 125.496 147.267 123.13 149.31 121.09C149.83 120.59 150.31 120.09 150.88 119.62C151.438 119.161 152.034 118.75 152.66 118.39C153.927 117.689 155.297 117.196 156.72 116.93C159.545 116.523 162.396 116.319 165.25 116.32C166.661 116.259 168.067 116.112 169.46 115.88C170.847 115.719 172.175 115.225 173.33 114.44C174.426 113.567 175.334 112.482 176 111.25C176.73 110.04 177.41 108.78 178.25 107.61C179.92 105.25 182.252 103.437 184.95 102.4C187.612 101.344 190.438 100.759 193.3 100.67C196.168 100.608 199.016 101.164 201.65 102.3C204.272 103.446 206.664 105.059 208.71 107.06C210.77 109.033 212.526 111.301 213.92 113.79L213.83 113.92Z" fill="#E6EBF8"/>
</g>
</svg>
