<svg width="165" height="121" viewBox="0 0 165 121" fill="none" xmlns="http://www.w3.org/2000/svg">
<path opacity="0.1" d="M1.71631 58.3546C4.30589 68.2492 9.78321 76.8025 18.439 80.9487C36.4334 89.5654 77.0154 85.1215 107.303 80.0201C122.97 77.3818 136.741 70.1005 146.745 59.8536L1.71631 58.3546Z" fill="#72D3D9"/>
<path opacity="0.1" d="M161.015 10.6469H144.357C143.567 10.6469 142.918 10.0754 142.918 9.377C142.918 8.67864 143.567 8.10566 144.357 8.10566H147.238C146.446 8.10566 145.799 7.53414 145.799 6.83431C145.799 6.13449 146.446 5.56443 147.238 5.56443H145.182C144.39 5.56443 143.742 4.9929 143.742 4.29308C143.742 3.59326 144.39 3.02319 145.182 3.02319H153.876C151.947 2.23152 149.692 1.66874 147.093 1.37278C123.385 -1.31425 114.921 0.463007 111.936 2.28984C108.214 4.59524 104.08 6.1949 99.7508 7.00489C85.124 9.6686 57.7699 12.8732 32.9771 5.98432C20.6547 2.55373 11.4958 8.34331 6.00708 18.0213H163.908C163.702 15.2089 163.084 12.6108 161.952 10.3378C161.683 10.5399 161.354 10.6487 161.015 10.6469Z" fill="#72D3D9"/>
<path opacity="0.1" d="M0.357635 36.9007C-0.280664 42.7271 -0.0636876 48.6156 1.00167 54.379L146.905 59.2128C150.921 55.0429 154.334 50.33 157.043 45.2116L0.357635 36.9007ZM58.0642 49.3692H55.1914C55.9815 49.3692 56.6285 49.9557 56.6285 50.6706C56.6285 51.3854 55.9815 51.9704 55.1914 51.9704H38.5733C37.7846 51.9704 37.1376 51.3854 37.1376 50.6706C37.1376 49.9557 37.7846 49.3692 38.5733 49.3692H41.4475C40.6574 49.3692 40.0119 48.7842 40.0119 48.0694C40.0119 47.3546 40.6574 46.7681 41.4475 46.7681H39.3947C38.6046 46.7681 37.9575 46.1831 37.9575 45.4683C37.9575 44.7534 38.6046 44.1669 39.3947 44.1669H56.0128C56.803 44.1669 57.4485 44.7519 57.4485 45.4683C57.4485 46.1846 56.803 46.7681 56.0128 46.7681H58.0642C58.8543 46.7681 59.4999 47.3531 59.4999 48.0694C59.4999 48.7857 58.8543 49.3692 58.0642 49.3692Z" fill="#72D3D9"/>
<path opacity="0.1" d="M163.833 18.8795L3.83202 22.3133C1.88531 26.7306 0.594495 31.7251 0 36.9007H161.03C162.078 33.8727 162.856 30.7618 163.354 27.603C163.835 24.5622 164.027 21.6207 163.833 18.8795ZM32.4861 30.1382H29.6004C30.3941 30.1382 31.044 30.7125 31.044 31.4124C31.044 32.1123 30.3941 32.6866 29.6004 32.6866H12.9082C12.116 32.6866 11.4661 32.1123 11.4661 31.4124C11.4661 30.7125 12.116 30.1382 12.9082 30.1382H15.7953C15.0016 30.1382 14.3532 29.5654 14.3532 28.8655C14.3532 28.1655 15.0016 27.5913 15.7953 27.5913H13.7333C12.9396 27.5913 12.2897 27.0185 12.2897 26.3185C12.2897 25.6186 12.9396 25.0444 13.7333 25.0444H30.4256C31.2192 25.0444 31.8676 25.6172 31.8676 26.3185C31.8676 27.0199 31.2192 27.5913 30.4256 27.5913H32.4861C33.2797 27.5913 33.9281 28.1655 33.9281 28.8655C33.9281 29.5654 33.2797 30.1382 32.4861 30.1382Z" fill="#72D3D9"/>
<path opacity="0.1" d="M81.5248 116.709C118.493 116.709 148.461 113.828 148.461 110.273C148.461 106.718 118.493 103.837 81.5248 103.837C44.557 103.837 14.5886 106.718 14.5886 110.273C14.5886 113.828 44.557 116.709 81.5248 116.709Z" fill="#72D3D9"/>
<path d="M149.319 59.8481C149.318 59.8377 149.318 59.8272 149.319 59.8168C149.319 59.8003 149.319 59.7854 149.319 59.7705C149.289 59.5994 149.224 59.4362 149.128 59.2909C148.784 58.7438 148.305 58.2933 147.736 57.9823C146.744 57.4416 145.381 57.21 144.984 56.1778C144.863 55.8581 144.86 55.5101 144.799 55.1755C144.694 54.6541 144.453 54.1694 144.1 53.7701C143.746 53.3708 143.294 53.0708 142.787 52.9004C142.315 52.7435 141.805 52.7002 141.347 52.506C140.322 52.0728 139.781 51.0047 139.322 50.0173C138.729 48.7425 138.136 47.4673 137.543 46.1916C137.092 46.4172 136.509 46.3111 136.086 46.0288C135.679 45.7276 135.355 45.3295 135.144 44.8711C134.532 43.6909 134.269 42.354 133.551 41.2306C132.832 40.1073 131.397 39.2199 130.128 39.7084C129.881 39.8314 129.624 39.9367 129.362 40.0236C128.275 40.2761 127.073 39.0422 126.142 39.6412C125.988 39.7397 125.862 39.8767 125.777 40.0385C125.776 40.0286 125.776 40.0186 125.777 40.0087C125.656 40.2516 125.588 40.5175 125.579 40.7884C125.579 40.8437 125.579 40.8975 125.579 40.9498C125.579 40.9587 125.579 40.9677 125.579 40.9767C125.579 41.1918 125.592 41.4099 125.595 41.628C125.598 41.8111 125.584 41.9942 125.553 42.1747V42.1598C125.535 42.2614 125.509 42.3613 125.475 42.4585C125.233 43.1039 124.562 43.5266 124.248 44.1331V44.1032C124.213 44.1692 124.182 44.2376 124.157 44.3079C124.101 44.4669 124.072 44.634 124.071 44.8023C124.044 45.9421 125.26 47.0147 125.401 48.2381C125.502 49.1046 125.702 49.3824 126.443 49.8724L126.605 49.9799C126.54 49.9799 126.474 49.9889 126.401 49.9904C126.372 49.9909 126.343 49.9939 126.315 49.9994C126.184 49.9636 126.047 49.9571 125.914 49.9803C125.78 50.0036 125.653 50.056 125.542 50.1338C124.974 50.5819 123.631 50.2369 123.034 50.1338C122.437 50.0307 120.393 50.3086 120.107 51.4349C119.822 52.5613 119.332 54.8857 119.332 54.8857C119.332 54.8857 119.332 56.3601 119.15 56.6349C119.143 56.6542 119.143 56.6754 119.15 56.6947C119.15 57.1085 119.165 59.5957 118.762 60.2365C118.663 60.3859 118.671 60.716 118.744 61.1224C118.32 61.6646 117.922 62.298 117.993 62.7133C118.122 63.5633 119.856 66.2357 122.342 64.8046C122.342 64.8046 123.757 62.2338 121.977 60.8669L122.054 60.5682C122.592 61.2254 122.99 61.6975 122.99 61.6975C122.99 61.6975 123.011 61.7528 123.044 61.8469H122.99C123.223 62.4751 123.363 63.133 123.408 63.8008C123.401 64.0456 123.357 64.288 123.276 64.5193H123.322C123.309 64.5701 123.294 64.6209 123.276 64.6687C123.189 64.921 123.025 65.1405 122.808 65.2976C121.565 66.173 120.142 72.4246 120.142 72.4246C120.142 72.4246 117.322 82.5304 116.759 83.1055C116.293 83.5775 119.221 84.907 121.418 84.7487C121.725 84.7305 122.028 84.6733 122.32 84.5784C122.333 84.7278 122.348 84.8772 122.363 85.0131C122.41 85.4612 122.458 85.8765 122.488 86.0065C122.566 86.3321 122.721 89.6574 122.721 89.6574C122.721 89.6574 122.404 91.8175 122.481 93.3202C122.481 93.4233 122.494 93.5219 122.503 93.619L122.23 93.6608C121.815 94.587 123.524 102.315 123.757 102.964C123.911 103.476 123.998 104.006 124.015 104.54C124.015 104.54 123.865 105.09 123.99 105.39C124.067 105.574 124.118 105.768 124.14 105.965C124.14 105.965 124.038 106.464 124.193 106.79C124.348 107.116 124.167 107.686 124.167 107.686C124.167 107.686 124.116 109.938 123.65 111.162C123.523 111.492 123.486 111.849 123.543 112.198C123.6 112.546 123.748 112.873 123.973 113.146C124.006 113.189 124.041 113.229 124.078 113.267C124.078 113.267 126.649 113.288 127.101 113.267H127.16C127.342 113.242 127.808 111.216 127.393 110.241C126.978 109.265 127.342 108.064 127.342 108.064V106.29C127.342 106.29 127.808 105.862 127.342 104.945C126.876 104.028 126.952 103.75 126.952 103.75C126.952 103.75 127.471 102.274 126.927 101.799C126.383 101.324 127.03 99.5226 127.03 99.5226L127.214 93.5174C127.118 93.4864 127.02 93.4614 126.921 93.4427C126.91 93.3441 126.9 93.2426 126.889 93.135C126.782 92.0475 126.691 90.5686 126.928 90.1474C127.166 89.7261 127.28 86.0483 127.318 83.4924L129.686 83.582C129.736 84.7771 129.789 85.8676 129.822 86.0065C129.9 86.3321 130.056 89.6574 130.056 89.6574C130.056 89.6574 129.737 91.8175 129.814 93.3202C129.814 93.4233 129.828 93.5219 129.837 93.619L129.563 93.6608C129.148 94.587 130.857 102.315 131.09 102.964C131.245 103.476 131.332 104.006 131.35 104.54C131.35 104.54 131.2 105.09 131.323 105.39C131.401 105.574 131.451 105.768 131.473 105.965C131.473 105.965 131.371 106.464 131.526 106.79C131.681 107.116 131.501 107.686 131.501 107.686C131.501 107.686 131.449 109.938 130.983 111.162C130.859 111.493 130.824 111.85 130.882 112.197C130.941 112.545 131.091 112.872 131.317 113.143C131.35 113.186 131.385 113.226 131.422 113.264C131.422 113.264 133.993 113.285 134.445 113.264H134.504C134.685 113.239 135.151 111.213 134.737 110.238C134.322 109.262 134.685 108.061 134.685 108.061V106.29C134.685 106.29 135.151 105.862 134.685 104.945C134.22 104.028 134.296 103.75 134.296 103.75C134.296 103.75 134.815 102.274 134.271 101.799C133.727 101.324 134.374 99.5226 134.374 99.5226L134.561 93.5174C134.462 93.4859 134.362 93.4609 134.26 93.4427C134.25 93.3441 134.239 93.2426 134.229 93.135C134.122 92.0475 134.03 90.5686 134.268 90.1474C134.459 89.8023 134.568 87.5795 134.618 85.409C134.618 85.2596 134.618 85.1102 134.63 84.9608C135.718 84.9158 136.802 84.795 137.873 84.5993C137.873 84.5993 136.606 80.1462 136.994 79.4217C137.161 79.1095 136.921 77.4469 136.591 75.6558C137.05 76.0251 137.621 76.2303 138.212 76.2384C138.778 77.3214 140.502 79.8131 141.473 80.197C142.613 80.6452 141.757 76.6716 141.215 76.0965C140.958 75.7825 140.742 75.4377 140.571 75.0702C140.586 75.0523 140.603 75.0373 140.618 75.0209C140.633 75.0045 140.645 70.7934 140.385 70.8696C140.125 70.9458 139.815 70.2437 139.815 70.2437L139.013 63.2421L138.676 60.3112C138.957 60.5174 139.291 60.6488 139.578 60.8535C140.359 61.4226 140.615 62.422 140.958 63.3063C141.24 64.0338 141.637 64.7553 142.288 65.2125C142.939 65.6696 143.893 65.7906 144.542 65.3275C145.144 64.8928 145.321 64.1085 145.453 63.393C146.545 63.7739 147.869 62.7551 147.727 61.6422C147.693 61.3674 147.591 61.0671 147.735 60.8266C148.024 60.3516 148.937 60.6279 149.238 60.1589C149.289 60.0777 149.315 59.9839 149.313 59.8885C149.318 59.8676 149.319 59.8586 149.319 59.8481ZM134.723 63.6992C134.707 63.9666 135.076 66.1147 135.377 67.8147C135.13 66.7556 134.636 65.6248 133.662 64.8495C133.662 64.8495 133.662 64.7957 133.65 64.7001H133.662C133.662 64.7001 133.621 64.2728 133.615 63.6649C133.617 63.1259 133.657 62.5878 133.736 62.0545V62.0411H133.716C133.716 61.9963 133.728 61.9499 133.736 61.9051C133.795 61.4551 133.918 61.0156 134.101 60.5995C134.182 60.4365 134.274 60.2797 134.379 60.1305C134.54 61.575 134.738 63.4288 134.723 63.6992ZM135.532 68.6766C135.664 69.4101 135.759 69.9255 135.759 69.9255L136.557 75.372V75.3974C136.127 73.0984 135.578 70.6754 135.578 70.6754C135.634 70.0094 135.619 69.3393 135.532 68.6766Z" fill="url(#paint0_linear)"/>
<path d="M125.744 48.4033C125.591 46.9917 124.059 45.774 124.518 44.4311C124.768 43.6993 125.549 43.2517 125.813 42.5245C125.987 42.0448 125.909 41.5177 125.911 41.0074C125.912 40.4972 126.032 39.9273 126.458 39.6447C127.377 39.0336 128.56 40.2909 129.632 40.0342C129.891 39.9458 130.144 39.8386 130.387 39.7134C131.639 39.2169 133.054 40.1213 133.757 41.2641C134.46 42.4069 134.724 43.7696 135.328 44.9704C135.534 45.4342 135.853 45.8391 136.256 46.1483C136.673 46.4356 137.242 46.544 137.693 46.3149L139.447 50.2107C139.907 51.2144 140.433 52.3022 141.438 52.7437C141.889 52.9408 142.391 52.9851 142.857 53.1455C143.363 53.3235 143.814 53.631 144.163 54.0372C144.513 54.4434 144.749 54.9341 144.848 55.46C144.908 55.8023 144.91 56.1567 145.031 56.4821C145.421 57.5332 146.765 57.7685 147.744 58.3154C148.31 58.6339 148.785 59.0921 149.123 59.6461C149.276 59.9104 149.408 60.2572 149.244 60.5169C148.948 60.9936 148.049 60.7125 147.764 61.1968C147.62 61.4412 147.721 61.7468 147.764 62.0279C147.903 63.16 146.596 64.1973 145.521 63.8092C145.391 64.538 145.215 65.337 144.623 65.7785C143.988 66.2521 143.045 66.1269 142.404 65.6624C141.762 65.198 141.373 64.4631 141.094 63.7222C140.755 62.8208 140.502 61.8033 139.732 61.2243C139.453 61.0165 139.119 60.8821 138.846 60.6728C138.234 60.2053 137.927 59.4337 137.708 58.6867C137.425 57.7547 137.2 56.7968 136.789 55.9168C136.378 55.0368 135.729 54.218 134.839 53.8162C134.004 53.4419 133.042 53.4663 132.179 53.1623C130.695 52.6398 129.597 51.3947 128.12 50.808C127.648 50.6101 127.2 50.3578 126.787 50.0564C126.044 49.569 125.842 49.2864 125.744 48.4033Z" fill="#3F3D56"/>
<g opacity="0.1">
<path opacity="0.1" d="M126.212 42.3744C126.243 42.3161 126.27 42.2558 126.293 42.194C126.462 41.7257 126.387 41.2112 126.389 40.7132C126.389 40.5471 126.404 40.3813 126.435 40.2181C126.297 40.5127 126.23 40.8355 126.239 41.1605C126.238 41.5617 126.286 41.9822 126.212 42.3744Z" fill="black"/>
<path opacity="0.1" d="M144.632 64.8966C144.012 65.3574 143.093 65.2366 142.467 64.7818C141.841 64.327 141.46 63.6127 141.195 62.8864C140.865 62.0066 140.62 61.0134 139.867 60.4482C139.597 60.2454 139.269 60.1127 139.005 59.9099C138.407 59.4536 138.108 58.7005 137.893 57.9788C137.617 57.0691 137.399 56.1341 136.997 55.2751C136.595 54.4162 135.964 53.6169 135.095 53.2247C134.282 52.8593 133.344 52.8832 132.503 52.5864C131.053 52.0764 129.982 50.8611 128.543 50.2884C128.083 50.0947 127.646 49.8485 127.242 49.5547C126.534 49.0671 126.345 48.7912 126.241 47.9308C126.091 46.6394 124.777 45.5135 124.981 44.2966C124.948 44.3625 124.919 44.4302 124.893 44.4994C124.445 45.8117 125.939 47.0003 126.088 48.3767C126.186 49.2371 126.387 49.513 127.089 50.0006C127.493 50.2944 127.93 50.5406 128.391 50.7343C129.83 51.3069 130.901 52.5238 132.35 53.0323C133.191 53.3306 134.13 53.3052 134.942 53.6706C135.812 54.0628 136.437 54.8636 136.844 55.721C137.252 56.5785 137.47 57.5105 137.741 58.4246C137.961 59.1464 138.249 59.8995 138.852 60.3558C139.123 60.5586 139.45 60.6913 139.715 60.8941C140.462 61.4593 140.713 62.4525 141.043 63.3323C141.315 64.0556 141.696 64.7713 142.322 65.2247C142.948 65.678 143.867 65.8003 144.487 65.3395C144.883 65.0413 145.084 64.5864 145.217 64.0988C145.099 64.4133 144.896 64.6893 144.632 64.8966Z" fill="black"/>
<path opacity="0.1" d="M147.702 60.4244C147.645 60.5314 147.62 60.6526 147.63 60.7734C147.968 60.4408 148.73 60.6362 148.996 60.2082C149.058 60.1024 149.082 59.9789 149.065 59.8577C148.718 60.1858 147.956 59.9904 147.702 60.4244Z" fill="black"/>
<path opacity="0.1" d="M145.507 62.9744C145.479 63.1235 145.45 63.2831 145.415 63.4382C146.329 63.723 147.385 62.9908 147.535 62.0662C147.172 62.7775 146.275 63.2533 145.507 62.9744Z" fill="black"/>
</g>
<path d="M127.678 48.9517C127.678 48.9517 128.205 49.9997 126.65 50.0215C125.096 50.0433 127.651 56.8272 127.651 56.8272L130.235 60.0709L133.45 58.3555L133.635 53.6239L133.872 50.7654C133.872 50.7654 130.868 49.8032 131.421 48.5306C131.975 47.258 127.678 48.9517 127.678 48.9517Z" fill="#FBBEBE"/>
<path d="M136.447 75.626C136.447 75.626 138.427 77.7009 140.738 74.9478L138.963 72.9432H136.719L136.447 75.626Z" fill="#575A89"/>
<path opacity="0.1" d="M136.719 72.9432L136.447 75.626C136.447 75.626 138.427 77.7009 140.738 74.9478" fill="black"/>
<path d="M140.285 73.8014C140.285 73.8014 141.054 75.5286 141.612 76.0507C142.169 76.5728 143.045 80.1852 141.878 79.7763C140.71 79.3673 138.482 76.3233 138.348 75.8012C138.214 75.2791 138.163 73.8014 138.163 73.8014H140.285Z" fill="#FBBEBE"/>
<path d="M124.433 82.9347L133.872 83.2412L132.777 79.8894L128.023 79.8085L124.433 82.9347Z" fill="#575A89"/>
<path opacity="0.1" d="M125.291 82.9347L135.589 83.2412L134.394 79.8894L129.206 79.8085L125.291 82.9347Z" fill="black"/>
<path d="M127.449 89.6842C127.21 90.1058 127.302 91.5643 127.41 92.6427C127.478 93.3291 127.553 93.8572 127.553 93.8572C127.553 93.8572 123.782 94.9666 123.211 94.0051C123.066 93.761 122.994 93.3335 122.969 92.832C122.891 91.3528 123.211 89.2212 123.211 89.2212C123.211 89.2212 123.055 85.9432 122.977 85.6222C122.946 85.4935 122.897 85.0852 122.85 84.6429C122.782 83.9861 122.716 83.2554 122.716 83.2554L127.865 80.6667C127.865 80.6667 127.865 81.1519 127.856 81.8989C127.828 84.245 127.745 89.1665 127.449 89.6842Z" fill="#FBBEBE"/>
<path opacity="0.1" d="M127.865 93.8933C127.865 93.8933 124.335 94.9285 123.801 94.0313C123.665 93.8036 123.598 93.4047 123.574 92.9368C124.305 92.8319 126.527 92.542 127.731 92.7601C127.795 93.4005 127.865 93.8933 127.865 93.8933Z" fill="black"/>
<path d="M127.485 113.269H127.429C126.998 113.286 124.552 113.269 124.552 113.269C124.517 113.232 124.483 113.192 124.452 113.15C124.236 112.878 124.093 112.555 124.037 112.212C123.982 111.868 124.015 111.516 124.134 111.189C124.578 109.975 124.626 107.746 124.626 107.746C124.626 107.746 124.799 107.177 124.652 106.855C124.504 106.532 124.601 106.038 124.601 106.038C124.579 105.842 124.529 105.65 124.453 105.468C124.331 105.171 124.479 104.626 124.479 104.626C124.462 104.098 124.379 103.573 124.232 103.066C124.01 102.422 122.383 94.7702 122.778 93.8534C122.778 93.8534 126.228 93.259 127.535 93.7048L127.362 99.6483C127.362 99.6483 126.746 101.431 127.263 101.902C127.781 102.373 127.288 103.834 127.288 103.834C127.288 103.834 127.214 104.106 127.658 105.023C128.102 105.939 127.658 106.36 127.658 106.36V108.118C127.658 108.118 127.313 109.306 127.707 110.272C128.1 111.238 127.658 113.238 127.485 113.269Z" fill="#3F3D56"/>
<path d="M134.383 89.6504C134.184 90.0751 134.261 91.544 134.351 92.6301C134.408 93.3214 134.47 93.8533 134.47 93.8533C134.47 93.8533 131.328 94.9707 130.852 94.0023C130.731 93.7565 130.671 93.3259 130.65 92.8208C130.585 91.331 130.852 89.1841 130.852 89.1841C130.852 89.1841 130.722 85.8826 130.657 85.5593C130.622 85.385 130.561 83.7224 130.513 82.231C130.472 80.9587 130.44 79.8085 130.44 79.8085L134.73 80.5683C134.73 80.5683 134.73 82.7301 134.677 84.9515C134.63 87.1058 134.543 89.3137 134.383 89.6504Z" fill="#FBBEBE"/>
<path opacity="0.1" d="M134.73 93.8933C134.73 93.8933 131.201 94.9285 130.666 94.0313C130.53 93.8036 130.463 93.4047 130.44 92.9368C131.17 92.8319 133.393 92.542 134.596 92.7601C134.66 93.4005 134.73 93.8933 134.73 93.8933Z" fill="black"/>
<path d="M135.149 113.269H135.084C134.582 113.286 131.729 113.269 131.729 113.269C131.687 113.232 131.648 113.192 131.611 113.15C131.359 112.879 131.193 112.555 131.128 112.212C131.063 111.869 131.101 111.516 131.24 111.19C131.758 109.97 131.81 107.742 131.81 107.742C131.81 107.742 132.011 107.173 131.839 106.851C131.666 106.528 131.78 106.034 131.78 106.034C131.754 105.838 131.696 105.647 131.608 105.465C131.465 105.168 131.637 104.623 131.637 104.623C131.617 104.094 131.521 103.57 131.349 103.063C131.09 102.42 129.193 94.7698 129.653 93.8533C129.653 93.8533 133.678 93.2591 135.203 93.7047L135.001 99.6464C135.001 99.6464 134.282 101.429 134.885 101.9C135.489 102.371 134.915 103.831 134.915 103.831C134.915 103.831 134.828 104.103 135.346 105.019C135.863 105.936 135.346 106.356 135.346 106.356V108.113C135.346 108.113 134.944 109.302 135.403 110.267C135.862 111.233 135.351 113.238 135.149 113.269Z" fill="#3F3D56"/>
<path opacity="0.1" d="M130.011 50.6312C132.143 50.6312 133.872 48.9022 133.872 46.7695C133.872 44.6367 132.143 42.9078 130.011 42.9078C127.878 42.9078 126.149 44.6367 126.149 46.7695C126.149 48.9022 127.878 50.6312 130.011 50.6312Z" fill="black"/>
<path d="M130.011 49.773C132.143 49.773 133.872 48.2362 133.872 46.3404C133.872 44.4446 132.143 42.9078 130.011 42.9078C127.878 42.9078 126.149 44.4446 126.149 46.3404C126.149 48.2362 127.878 49.773 130.011 49.773Z" fill="#FBBEBE"/>
<path opacity="0.1" d="M122.716 83.4654L127.865 80.6667C127.865 80.6667 127.865 81.1912 127.856 81.9989C127.104 82.4594 125.969 83.1519 124.879 83.806C124.286 84.1626 123.707 84.5081 123.211 84.7975C123.096 84.8617 122.975 84.9152 122.85 84.9575C122.782 84.2554 122.716 83.4654 122.716 83.4654Z" fill="black"/>
<path opacity="0.1" d="M134.73 80.5685C134.73 80.5685 134.73 82.7305 134.677 84.9522H134.661C134.34 84.9653 134.019 84.9539 133.699 84.918C133.138 84.8494 132.689 84.6796 132.528 84.3428C132.201 83.6872 131.286 82.8527 130.513 82.2314C130.472 80.9589 130.44 79.8085 130.44 79.8085L134.73 80.5685Z" fill="black"/>
<path d="M133.875 61.9239C133.751 62.9001 133.727 63.8867 133.804 64.8678C136.058 66.7425 135.638 70.6913 135.638 70.6913C135.638 70.6913 137.373 78.6908 137.001 79.4152C136.63 80.1396 137.843 84.5893 137.843 84.5893C136.809 84.7869 135.761 84.9083 134.709 84.9522C134.343 84.9654 133.976 84.9538 133.61 84.9177C132.969 84.8487 132.456 84.6778 132.272 84.3388C131.579 83.115 128.579 81.2899 128.579 81.2899C128.579 81.2899 126.678 82.4387 124.908 83.484C124.343 83.8184 123.791 84.1424 123.318 84.4138C122.935 84.6191 122.511 84.7363 122.077 84.7572C119.972 84.9147 117.169 83.586 117.615 83.115C118.161 82.5391 120.863 72.4415 120.863 72.4415C120.863 72.4415 122.225 66.1921 123.415 65.3178C123.624 65.1589 123.779 64.9397 123.861 64.6894C124.269 63.5481 123.588 61.7184 123.588 61.7184C123.588 61.7184 119.746 56.9448 119.918 56.6688C120.091 56.3929 120.092 54.9201 120.092 54.9201C120.092 54.9201 120.564 52.5956 120.836 51.4708C121.108 50.346 123.067 50.07 123.637 50.1705C124.206 50.271 125.494 50.6204 126.039 50.1705C126.583 49.7206 127.502 50.346 127.502 50.346L129.76 50.9729L131.79 49.7731C131.79 49.7731 133.825 49.8781 133.999 50.1525C134.173 50.427 136.85 50.9534 136.85 50.9534C138.212 51.8772 138.163 56.2774 138.163 56.2774C138.163 56.2774 134.891 59.1509 134.222 60.6266C134.048 61.0412 133.932 61.4776 133.875 61.9239Z" fill="#575A89"/>
<path d="M137.771 55.7802L138.494 56.3744L139.242 63.2824L139.989 70.2157C139.989 70.2157 140.278 70.9094 140.52 70.8351C140.761 70.7609 140.737 74.9443 140.737 74.9443C140.737 74.9443 137.967 73.1958 136.975 75.5177L136.202 69.9185C136.202 69.9185 135.212 64.199 135.237 63.7533C135.262 63.3076 134.73 58.4795 134.73 58.4795L137.771 55.7802Z" fill="#575A89"/>
<path d="M120.41 55.7802L119.788 56.5013C119.788 56.5013 119.845 59.5991 119.364 60.3475C118.883 61.0959 120.693 65.4757 121.371 65.2081C122.049 64.9405 123.574 58.1039 123.574 58.0238C123.574 57.9436 120.41 55.7802 120.41 55.7802Z" fill="#575A89"/>
<path d="M120.767 60.0709C120.767 60.0709 119.176 61.8528 119.289 62.7068C119.403 63.5609 120.925 66.2435 123.106 64.802C123.106 64.802 125.129 60.5981 120.767 60.0709Z" fill="#575A89"/>
<path opacity="0.1" d="M127.865 113.261C127.369 113.296 124.549 113.261 124.549 113.261C124.507 113.179 124.469 113.093 124.433 113.003C125.154 112.54 126.713 111.845 127.865 113.261Z" fill="black"/>
<path opacity="0.1" d="M134.73 113.261C134.358 113.296 132.243 113.261 132.243 113.261C132.212 113.179 132.183 113.093 132.156 113.003C132.694 112.54 133.863 111.845 134.73 113.261Z" fill="black"/>
<path opacity="0.1" d="M125.291 69.5106C124.859 73.1771 125.001 80.453 125.091 83.6848C124.448 84.0191 123.819 84.3429 123.281 84.6142C122.844 84.8193 122.361 84.9366 121.867 84.9574C121.688 83.9801 124.173 73.9416 125.291 69.5106Z" fill="black"/>
<path opacity="0.1" d="M131.828 66.9362C131.828 66.9362 133.848 79.9201 127.865 81.5248C127.864 81.519 132.004 80.8756 131.828 66.9362Z" fill="black"/>
<path opacity="0.1" d="M134.73 84.9522C134.391 84.9652 134.051 84.9539 133.714 84.9183L132.156 66.9362C133.149 67.6336 134.338 80.395 134.73 84.9522Z" fill="black"/>
<path opacity="0.1" d="M126.94 44.466C127.053 44.4563 127.166 44.469 127.275 44.5037C127.434 44.5903 127.577 44.7078 127.698 44.8507C127.894 45.029 128.128 45.1504 128.378 45.2033C128.628 45.2563 128.887 45.2391 129.13 45.1534C129.301 45.07 129.483 45.0149 129.669 44.9898C129.955 44.9898 130.203 45.2189 130.351 45.4808C130.5 45.7427 130.577 46.0536 130.704 46.3335C130.832 46.6134 131.036 46.8785 131.317 46.9473C131.451 46.953 131.584 46.9863 131.707 47.0455C131.782 47.1124 131.84 47.1999 131.875 47.2991C132.109 47.8507 132.295 48.5021 132.795 48.7722C132.979 48.8651 133.179 48.9126 133.382 48.9113C133.588 48.9278 133.794 48.8872 133.982 48.7934C134.167 48.6809 134.32 48.515 134.423 48.3139C134.736 47.7509 134.772 47.0536 134.698 46.4006C134.606 45.5768 134.338 44.7883 133.913 44.0994C133.466 43.4027 132.858 42.8479 132.149 42.4916C131.441 42.1353 130.659 41.9904 129.883 42.0716C129.612 42.1048 129.344 42.1595 129.08 42.2352C128.126 42.5135 127.189 43.0339 126.61 43.9063C126.47 44.124 126.316 44.3308 126.149 44.525C126.412 44.4971 126.676 44.4726 126.94 44.466Z" fill="black"/>
<path d="M126.94 44.164C127.053 44.1554 127.166 44.1666 127.275 44.1969C127.434 44.2727 127.577 44.3756 127.698 44.5005C127.894 44.6566 128.128 44.7628 128.378 44.8091C128.628 44.8554 128.887 44.8404 129.13 44.7655C129.301 44.6925 129.483 44.6442 129.669 44.6223C129.955 44.6223 130.203 44.8228 130.351 45.0519C130.5 45.281 130.577 45.5531 130.704 45.798C130.832 46.0429 131.036 46.2749 131.317 46.3351C131.451 46.34 131.584 46.3692 131.707 46.421C131.782 46.4795 131.84 46.5561 131.875 46.643C132.109 47.1256 132.295 47.6955 132.795 47.9318C132.979 48.0131 133.179 48.0547 133.382 48.0536C133.588 48.068 133.794 48.0325 133.982 47.9505C134.167 47.852 134.32 47.7068 134.423 47.5309C134.736 47.0382 134.772 46.4281 134.698 45.8567C134.606 45.1359 134.338 44.4459 133.913 43.8432C133.466 43.2336 132.858 42.7481 132.149 42.4364C131.441 42.1246 130.659 41.9978 129.883 42.0688C129.612 42.0979 129.344 42.1458 129.08 42.212C128.126 42.4555 127.189 42.9109 126.61 43.6742C126.47 43.8647 126.316 44.0456 126.149 44.2155C126.412 44.1912 126.676 44.1697 126.94 44.164Z" fill="#3F3D56"/>
<path opacity="0.1" d="M123.542 52.3475C123.542 52.3475 123.779 54.3628 122.97 54.8656C122.162 55.3683 123.542 52.3475 123.542 52.3475Z" fill="black"/>
<path opacity="0.1" d="M136.447 63.5035C136.447 63.5035 137.937 61.2618 138.147 61.9023C138.357 62.5428 136.447 63.5035 136.447 63.5035Z" fill="black"/>
<path opacity="0.1" d="M136.447 64.3617C136.447 64.3617 138.005 61.9081 138.155 62.8682C138.304 63.8283 136.447 64.3617 136.447 64.3617Z" fill="black"/>
<path opacity="0.1" d="M131.986 62.2715C131.479 62.2774 130.986 62.1436 130.583 61.8914H130.461C130.043 62.2057 129.494 62.3756 128.928 62.3659C128.634 62.3715 128.341 62.3279 128.068 62.2377C127.795 62.1475 127.547 62.0126 127.339 61.8412H127.177C126.748 62.1286 126.21 62.2818 125.657 62.2735C125.104 62.2652 124.572 62.096 124.157 61.7958L123.574 61.7872C123.574 61.7872 124.257 63.2829 123.848 64.2158L133.801 64.3617C133.724 63.5596 133.748 62.7532 133.872 61.9552V61.9442L133.326 61.9356C132.933 62.16 132.464 62.2775 131.986 62.2715Z" fill="black"/>
<path opacity="0.1" d="M131.986 62.4329C131.479 62.4408 130.986 62.2624 130.583 61.9262H130.461C130.043 62.3452 129.494 62.5717 128.928 62.5588C128.634 62.5662 128.341 62.5081 128.068 62.3878C127.795 62.2676 127.547 62.0877 127.339 61.8592H127.177C126.748 62.2424 126.21 62.4467 125.657 62.4356C125.104 62.4245 124.572 62.1989 124.157 61.7987L123.574 61.7872C123.574 61.7872 124.257 63.7814 123.848 65.0253L133.801 65.2199C133.724 64.1504 133.748 63.0752 133.872 62.0112V61.9965L133.326 61.985C132.933 62.2843 132.464 62.4409 131.986 62.4329Z" fill="black"/>
<path d="M131.986 62.4329C131.479 62.4408 130.986 62.2624 130.583 61.9262H130.461C130.043 62.3452 129.494 62.5717 128.928 62.5588C128.634 62.5662 128.341 62.5081 128.068 62.3878C127.795 62.2676 127.547 62.0877 127.339 61.8592H127.177C126.748 62.2424 126.21 62.4467 125.657 62.4356C125.104 62.4245 124.572 62.1989 124.157 61.7987L123.574 61.7872C123.574 61.7872 124.257 63.7814 123.848 65.0253L133.801 65.2199C133.724 64.1504 133.748 63.0752 133.872 62.0112V61.9965L133.326 61.985C132.933 62.2843 132.464 62.4409 131.986 62.4329Z" fill="#3F3D56"/>
<path opacity="0.1" d="M132.156 52.3475C132.156 52.3475 133.861 52.5761 133.872 53.0839C133.883 53.5917 132.156 52.3475 132.156 52.3475Z" fill="black"/>
<path opacity="0.1" d="M134.374 57.5359C134.356 57.5213 134.338 57.5096 134.319 57.4965C134.788 57.9701 134.71 59.0052 134.135 59.859C133.56 60.7128 132.687 61.0681 132.156 60.685C132.173 60.7011 132.187 60.7187 132.205 60.7347C132.726 61.1821 133.636 60.8312 134.237 59.9482C134.839 59.0652 134.897 57.9848 134.374 57.5359Z" fill="black"/>
<path opacity="0.1" d="M123.198 59.7168C122.674 58.8369 122.742 57.8652 123.334 57.4965C123.312 57.5061 123.289 57.5143 123.267 57.5252C122.617 57.8624 122.531 58.8725 123.07 59.7826C123.608 60.6927 124.579 61.1532 125.229 60.8216C125.25 60.81 125.271 60.7972 125.291 60.7832C124.642 61.0573 123.721 60.5968 123.198 59.7168Z" fill="black"/>
<path d="M120.577 62.4962C120.577 62.4962 120.969 60.44 120.444 59.7864C119.918 59.1328 120.087 55.7067 120.889 55.7814C121.691 55.856 122.895 58.5658 122.694 59.1388C122.494 59.7118 121.735 62.6454 121.735 62.6454L120.577 62.4962Z" fill="#FBBEBE"/>
<path opacity="0.1" d="M134.408 47.2274C134.304 47.408 134.151 47.557 133.966 47.6581C133.778 47.7423 133.572 47.7787 133.366 47.7639C133.163 47.7651 132.962 47.7224 132.779 47.639C132.279 47.395 132.092 46.81 131.858 46.3161C131.828 46.227 131.776 46.147 131.705 46.0839C131.583 46.0297 131.452 45.9983 131.319 45.9912C131.038 45.9295 130.835 45.6899 130.706 45.44C130.577 45.1902 130.501 44.9138 130.353 44.6742C130.206 44.4346 129.957 44.2245 129.67 44.2333C129.484 44.2575 129.302 44.3095 129.131 44.3876C128.888 44.4639 128.629 44.4789 128.379 44.4311C128.129 44.3833 127.894 44.2743 127.699 44.1142C127.578 43.986 127.435 43.8803 127.275 43.8026C127.167 43.7715 127.053 43.76 126.94 43.7688C126.768 43.7688 126.596 43.785 126.424 43.7982C126.338 43.908 126.246 44.013 126.149 44.1127C126.412 44.0907 126.676 44.0686 126.94 44.0628C127.053 44.054 127.167 44.0654 127.275 44.0966C127.435 44.1743 127.578 44.2799 127.699 44.4082C127.894 44.5683 128.129 44.6773 128.379 44.7251C128.629 44.7729 128.888 44.7579 129.131 44.6816C129.302 44.6035 129.484 44.5515 129.67 44.5272C129.957 44.5272 130.205 44.733 130.353 44.9682C130.502 45.2034 130.579 45.4827 130.706 45.734C130.834 45.9854 131.038 46.2235 131.319 46.2852C131.452 46.2923 131.583 46.3237 131.705 46.3778C131.78 46.4379 131.839 46.5165 131.873 46.6057C132.107 47.101 132.294 47.686 132.794 47.9285C132.977 48.012 133.178 48.0547 133.381 48.0535C133.587 48.0683 133.793 48.0319 133.981 47.9477C134.166 47.8466 134.319 47.6976 134.423 47.517C134.656 47.1015 134.76 46.6285 134.723 46.1559C134.712 46.5333 134.603 46.9019 134.408 47.2274Z" fill="black"/>
<path d="M121.429 64.3617C122.14 64.3617 122.716 63.9775 122.716 63.5035C122.716 63.0296 122.14 62.6454 121.429 62.6454C120.718 62.6454 120.142 63.0296 120.142 63.5035C120.142 63.9775 120.718 64.3617 121.429 64.3617Z" fill="#575A89"/>
<path d="M77.6631 114.135C103.019 114.135 123.574 93.3875 123.574 67.7943C123.574 42.2012 103.019 21.4539 77.6631 21.4539C52.3069 21.4539 31.7517 42.2012 31.7517 67.7943C31.7517 93.3875 52.3069 114.135 77.6631 114.135Z" fill="#72D3D9"/>
<path d="M102.12 90.9995C102.12 98.2636 90.5528 91.6201 78.151 91.6201C65.7493 91.6201 53.2056 97.9892 53.2056 90.7251C53.2056 86.5829 57.2035 80.8224 62.939 76.6384C67.2603 73.4852 72.5666 71.2269 77.8972 71.2269C83.3789 71.2269 88.7487 73.6717 93.0322 77.0278C98.4383 81.2594 102.12 86.9454 102.12 90.9995Z" fill="#444053"/>
<path d="M92.681 77.234C86.1011 76.2192 74.2006 74.9819 62.6455 76.8309C66.9587 73.5655 72.2552 71.2269 77.5758 71.2269C83.0457 71.2269 88.4055 73.7586 92.681 77.234Z" fill="#F6F8FB"/>
<path opacity="0.05" d="M53.2056 35.1844C53.2056 35.1844 39.3626 44.0069 39.4758 57.8071C39.589 71.6074 53.2056 35.1844 53.2056 35.1844Z" fill="black"/>
<path d="M123.342 10.3141C123.342 10.3141 111.092 9.55959 112.537 18.3397C112.537 18.3397 112.246 19.8903 113.625 20.5957C113.625 20.5957 113.647 19.9454 114.881 20.1656C115.32 20.2409 115.767 20.2629 116.212 20.2311C116.813 20.1893 117.384 19.9479 117.838 19.5436C117.838 19.5436 121.282 18.0897 122.622 12.332C122.622 12.332 123.613 11.076 123.573 10.7546L121.506 11.6564C121.506 11.6564 122.212 13.1817 121.651 14.4497C121.651 14.4497 121.585 11.7129 121.187 11.771C121.107 11.7844 120.114 12.2993 120.114 12.2993C120.114 12.2993 121.329 14.9571 120.405 16.8872C120.405 16.8872 120.752 13.6133 119.727 12.4912L118.272 13.3603C118.272 13.3603 119.692 16.1045 118.729 18.3441C118.729 18.3441 118.976 14.9095 117.966 13.5716L116.647 14.6238C116.647 14.6238 117.981 17.3292 117.168 19.1864C117.168 19.1864 117.061 15.1878 116.362 14.8857C116.362 14.8857 115.208 15.9274 115.032 16.3545C115.032 16.3545 115.946 18.3174 115.38 19.3531C115.38 19.3531 115.032 16.6893 114.747 16.6744C114.747 16.6744 113.597 18.4394 113.477 19.6507C113.477 19.6507 113.528 17.8501 114.467 16.5063C114.467 16.5063 113.356 16.7012 112.709 17.4394C112.709 17.4394 112.887 16.1908 114.745 16.0822C114.745 16.0822 115.695 14.7428 115.95 14.6625C115.95 14.6625 114.095 14.5032 112.97 15.0137C112.97 15.0137 113.96 13.8365 116.289 14.3708L117.598 13.2844C117.598 13.2844 115.157 12.9422 114.121 13.3201C114.121 13.3201 115.313 12.2784 117.949 13.0374L119.367 12.1698C119.367 12.1698 117.286 11.7115 116.045 11.8722C116.045 11.8722 117.354 11.1504 119.782 11.9332L120.8 11.4674C120.8 11.4674 119.274 11.1608 118.828 11.1132C118.381 11.0656 118.358 10.9376 118.358 10.9376C119.327 10.7764 120.321 10.8944 121.228 11.2784C121.228 11.2784 123.378 10.4525 123.342 10.3141Z" fill="#72D3D9"/>
<path d="M110.589 6.01528C110.589 6.01528 104.948 5.63644 105.607 10.0277C105.607 10.0277 105.475 10.8035 106.109 11.156C106.109 11.156 106.117 10.8266 106.688 10.9419C106.89 10.9789 107.096 10.9899 107.301 10.9748C107.578 10.9529 107.841 10.8321 108.052 10.6306C108.052 10.6306 109.639 9.90254 110.257 7.02334C110.257 7.02334 110.714 6.39577 110.702 6.23435L109.749 6.68567C109.749 6.68567 110.075 7.4483 109.819 8.08245C109.819 8.08245 109.787 6.71367 109.605 6.74662C109.568 6.74662 109.109 7.01016 109.109 7.01016C109.109 7.01016 109.67 8.3394 109.247 9.30463C109.247 9.30463 109.407 7.66737 108.935 7.10569L108.264 7.54054C108.264 7.54054 108.919 8.91426 108.475 10.0343C108.475 10.0343 108.588 8.31634 108.123 7.6476L107.514 8.17304C107.514 8.17304 108.129 9.52534 107.755 10.4543C107.755 10.4543 107.706 8.4547 107.382 8.30316C107.382 8.30316 106.851 8.82366 106.769 9.03779C106.769 9.03779 107.191 10.0261 106.93 10.5383C106.93 10.5383 106.769 9.2058 106.633 9.20086C106.633 9.20086 106.103 10.0821 106.048 10.6833C106.073 10.1238 106.23 9.58147 106.503 9.11027C106.198 9.17438 105.916 9.33645 105.693 9.57641C105.693 9.57641 105.775 8.95214 106.634 8.89778C106.634 8.89778 107.072 8.22904 107.189 8.18787C107.189 8.18787 106.334 8.1088 105.816 8.36411C105.816 8.36411 106.272 7.77443 107.347 8.03468L107.941 7.49277C107.941 7.49277 106.815 7.32806 106.337 7.50924C106.337 7.50924 106.887 6.98875 108.102 7.36924L108.756 6.93439C108.756 6.93439 107.797 6.70544 107.224 6.78779C107.224 6.78779 107.828 6.42707 108.947 6.81909L109.415 6.58519C109.415 6.58519 108.711 6.43201 108.506 6.40895C108.301 6.38589 108.288 6.32165 108.288 6.32165C108.734 6.2394 109.191 6.29643 109.609 6.48637C109.609 6.48637 110.605 6.08446 110.589 6.01528Z" fill="#72D3D9"/>
<path opacity="0.1" d="M160.475 108.986C162.845 108.986 164.766 108.602 164.766 108.128C164.766 107.654 162.845 107.27 160.475 107.27C158.105 107.27 156.184 107.654 156.184 108.128C156.184 108.602 158.105 108.986 160.475 108.986Z" fill="#72D3D9"/>
<path opacity="0.1" d="M6.86524 120.142C9.23498 120.142 11.156 119.758 11.156 119.284C11.156 118.81 9.23498 118.426 6.86524 118.426C4.49551 118.426 2.57446 118.81 2.57446 119.284C2.57446 119.758 4.49551 120.142 6.86524 120.142Z" fill="#72D3D9"/>
<path opacity="0.1" d="M30.4645 121C32.5972 121 34.3262 120.616 34.3262 120.142C34.3262 119.668 32.5972 119.284 30.4645 119.284C28.3317 119.284 26.6028 119.668 26.6028 120.142C26.6028 120.616 28.3317 121 30.4645 121Z" fill="#72D3D9"/>
<path d="M151.894 116.709C155.211 116.709 157.901 116.133 157.901 115.422C157.901 114.711 155.211 114.135 151.894 114.135C148.576 114.135 145.886 114.711 145.886 115.422C145.886 116.133 148.576 116.709 151.894 116.709Z" fill="#72D3D9"/>
<path d="M153.889 113.911C154.157 113.652 154.353 113.302 154.45 112.908C154.521 112.512 154.378 112.034 154.059 111.889C153.7 111.726 153.316 112.022 153.025 112.32C152.735 112.618 152.4 112.957 152.019 112.895C152.215 112.684 152.362 112.417 152.445 112.119C152.528 111.822 152.544 111.504 152.492 111.196C152.476 111.069 152.43 110.949 152.361 110.85C152.161 110.597 151.8 110.705 151.561 110.904C150.802 111.537 150.59 112.76 150.586 113.861C150.51 113.464 150.574 113.05 150.573 112.649C150.571 112.247 150.476 111.783 150.187 111.57C150.008 111.457 149.806 111.4 149.603 111.407C149.262 111.392 148.882 111.432 148.648 111.728C148.356 112.096 148.434 112.713 148.686 113.113C148.939 113.513 149.321 113.772 149.673 114.051C149.956 114.251 150.198 114.524 150.38 114.849C150.401 114.895 150.419 114.943 150.432 114.993H152.571C153.05 114.704 153.493 114.34 153.889 113.911Z" fill="#72D3D9"/>
<path d="M8.75635 101.262C8.75635 101.262 9.4424 102.364 8.43895 104.023C7.4355 105.683 6.60825 107.091 6.9394 108.128C6.9394 108.128 8.45269 105.039 9.68857 104.994C10.9244 104.95 10.1109 103.12 8.75635 101.262Z" fill="#72D3D9"/>
<path opacity="0.1" d="M8.73648 101.262C8.79672 101.369 8.84435 101.485 8.878 101.607C10.0935 103.339 10.7404 104.956 9.57292 104.996C8.48378 105.035 7.17227 107.395 6.86523 107.991C6.87597 108.037 6.88862 108.083 6.90314 108.128C6.90314 108.128 8.43324 105.041 9.68285 104.996C10.9325 104.952 10.1061 103.119 8.73648 101.262Z" fill="black"/>
<path d="M4.50253 101.262C4.50253 101.262 3.64481 102.364 4.8978 104.023C6.1508 105.683 7.18663 107.091 6.77261 108.128C6.77261 108.128 4.87906 105.039 3.33546 104.994C1.79187 104.95 2.80739 103.12 4.50253 101.262Z" fill="#72D3D9"/>
<path opacity="0.1" d="M4.52672 101.262C4.4507 101.368 4.39108 101.485 4.34975 101.607C2.82971 103.339 2.01913 104.956 3.48071 104.996C4.84116 105.035 6.48286 107.395 6.86524 107.991C6.85235 108.037 6.83706 108.083 6.81942 108.128C6.81942 108.128 4.90436 105.041 3.34324 104.996C1.78212 104.952 2.81233 103.119 4.52672 101.262Z" fill="black"/>
<path d="M3.43262 107.642C3.43262 107.642 5.73834 107.573 6.43486 107.084C7.13138 106.596 9.98201 106.014 10.1546 106.788C10.3273 107.562 13.6192 110.681 11.0163 110.701C8.41334 110.722 4.96827 110.3 4.27475 109.884C3.58123 109.469 3.43262 107.642 3.43262 107.642Z" fill="#A8A8A8"/>
<path opacity="0.2" d="M11.0631 110.475C8.45901 110.493 5.01247 110.139 4.31866 109.79C3.79004 109.524 3.57979 108.569 3.50921 108.128H3.43262C3.43262 108.128 3.58279 109.667 4.2721 110.016C4.96141 110.365 8.41246 110.719 11.0165 110.702C11.7674 110.702 12.0272 110.474 12.0137 110.148C11.9086 110.348 11.6232 110.472 11.0631 110.475Z" fill="black"/>
<path d="M61.1198 62.0823C61.9733 62.0331 65.9905 61.7233 68.5422 60.2324C68.952 59.9855 69.4149 59.8458 69.89 59.8258C70.7013 59.802 71.6347 60.149 71.0371 62.0912C70.0688 65.2681 64.4464 68.8427 60.957 68.6446C57.6013 68.454 53.6204 67.0688 50.9917 62.1985C50.7399 61.7299 50.6158 61.2005 50.6326 60.6659C50.6631 59.6828 51.0121 58.4511 52.8135 59.8243C55.2474 61.6786 59.8651 62.0301 60.7913 62.0823C60.9007 62.0883 61.0104 62.0883 61.1198 62.0823Z" fill="#444053"/>
<path d="M94.167 62.0823C95.056 62.0331 99.2406 61.7233 101.899 60.2324C102.325 59.9855 102.808 59.8458 103.303 59.8258C104.148 59.802 105.12 60.149 104.498 62.0912C103.489 65.2681 97.6322 68.8427 93.9974 68.6446C90.5019 68.454 86.3551 67.0688 83.6169 62.1985C83.3545 61.7299 83.2253 61.2005 83.2428 60.6659C83.2746 59.6828 83.6381 58.4511 85.5146 59.8243C88.0499 61.6786 92.86 62.0301 93.8247 62.0823C93.9387 62.0883 94.053 62.0883 94.167 62.0823Z" fill="#444053"/>
<defs>
<linearGradient id="paint0_linear" x1="133.011" y1="113.278" x2="133.011" y2="39.4769" gradientUnits="userSpaceOnUse">
<stop stop-color="#808080" stop-opacity="0.25"/>
<stop offset="0.54" stop-color="#808080" stop-opacity="0.12"/>
<stop offset="1" stop-color="#808080" stop-opacity="0.1"/>
</linearGradient>
</defs>
</svg>
