<svg width="290" height="187" viewBox="0 0 290 187" fill="none" xmlns="http://www.w3.org/2000/svg">
<g clip-path="url(#clip0)">
<path d="M268.73 162.141L240.595 113.413C240.517 113.276 240.404 113.162 240.267 113.083C240.131 113.004 239.976 112.962 239.818 112.962C239.66 112.962 239.505 113.004 239.368 113.083C239.232 113.162 239.119 113.276 239.04 113.413L210.898 162.141C210.815 162.278 210.771 162.434 210.77 162.593C210.768 162.753 210.809 162.909 210.888 163.048C210.968 163.186 211.083 163.301 211.221 163.38C211.36 163.459 211.517 163.499 211.676 163.497H220.071C220.309 163.498 220.537 163.593 220.706 163.761C220.874 163.929 220.969 164.157 220.969 164.395V174.805C220.969 174.923 220.992 175.039 221.037 175.148C221.081 175.257 221.147 175.355 221.23 175.439C221.313 175.522 221.411 175.588 221.52 175.634C221.628 175.679 221.745 175.703 221.862 175.703H232.816C233.054 175.703 233.283 175.608 233.451 175.44C233.619 175.272 233.714 175.043 233.714 174.805V169.768C233.714 169.531 233.808 169.303 233.976 169.135C234.144 168.967 234.372 168.873 234.609 168.873H245.023C245.261 168.873 245.489 168.967 245.657 169.135C245.826 169.303 245.921 169.531 245.921 169.768V174.794C245.921 175.032 246.016 175.261 246.184 175.429C246.353 175.597 246.581 175.692 246.82 175.692H257.771C258.009 175.691 258.237 175.596 258.405 175.428C258.574 175.26 258.669 175.032 258.671 174.794V164.384C258.671 164.146 258.766 163.918 258.935 163.749C259.103 163.581 259.331 163.486 259.57 163.486H267.965C268.121 163.484 268.274 163.441 268.409 163.361C268.543 163.282 268.655 163.168 268.732 163.032C268.809 162.896 268.85 162.743 268.849 162.586C268.849 162.43 268.808 162.276 268.73 162.141ZM229.503 167.533C229.335 167.704 229.105 167.802 228.865 167.804H224.915C224.676 167.804 224.448 167.71 224.28 167.541C224.111 167.373 224.017 167.145 224.017 166.907C224.017 166.669 224.111 166.44 224.28 166.272C224.448 166.103 224.676 166.009 224.915 166.009H228.865C228.983 166.008 229.1 166.031 229.209 166.076C229.319 166.121 229.418 166.188 229.501 166.271C229.585 166.354 229.651 166.454 229.696 166.563C229.741 166.672 229.764 166.789 229.763 166.907C229.761 167.141 229.668 167.366 229.503 167.533ZM255.353 167.533C255.271 167.618 255.172 167.686 255.063 167.733C254.954 167.779 254.837 167.804 254.718 167.804H250.77C250.532 167.804 250.304 167.709 250.136 167.541C249.968 167.372 249.873 167.145 249.872 166.907C249.873 166.669 249.969 166.441 250.137 166.273C250.305 166.105 250.532 166.01 250.77 166.009H254.718C254.896 166.008 255.071 166.059 255.219 166.158C255.368 166.256 255.484 166.397 255.552 166.561C255.62 166.726 255.637 166.907 255.602 167.082C255.567 167.256 255.48 167.416 255.353 167.541V167.533Z" fill="#F2F2F2"/>
<path d="M94.7882 162.57L66.6481 113.844C66.5688 113.708 66.4552 113.595 66.3186 113.516C66.1819 113.438 66.027 113.396 65.8694 113.396C65.7117 113.396 65.5568 113.438 65.4202 113.516C65.2835 113.595 65.1699 113.708 65.0906 113.844L40.7817 155.93C43.8229 159.755 47.2338 163.272 50.9649 166.429H54.9183C55.0959 166.429 55.2695 166.482 55.4171 166.581C55.5647 166.679 55.6798 166.82 55.7478 166.984C55.8157 167.148 55.8335 167.328 55.7989 167.502C55.7643 167.676 55.6788 167.836 55.5532 167.962C55.4711 168.047 55.3725 168.115 55.2634 168.162C55.1543 168.209 55.0369 168.233 54.9183 168.233H53.2469C55.294 169.772 57.4732 171.127 59.7589 172.283V170.208C59.7596 169.969 59.8548 169.741 60.0237 169.573C60.1926 169.404 60.4213 169.31 60.6597 169.31H71.0709C71.309 169.31 71.5375 169.404 71.7059 169.573C71.8743 169.741 71.969 169.969 71.969 170.208V175.231C71.9672 175.361 71.996 175.491 72.0531 175.608C72.1242 175.764 72.2388 175.896 72.3832 175.988C72.5276 176.081 72.6956 176.13 72.8671 176.129H83.8209C83.9598 176.129 84.0967 176.096 84.2206 176.033C84.3446 175.971 84.4521 175.88 84.5345 175.768C84.6543 175.613 84.7175 175.421 84.7136 175.226V164.815C84.7136 164.577 84.8082 164.349 84.9766 164.181C85.1451 164.012 85.3735 163.918 85.6117 163.918H94.0068C94.1653 163.919 94.3213 163.879 94.4591 163.8C94.5968 163.722 94.7112 163.608 94.7907 163.471C94.8702 163.334 94.9118 163.179 94.9114 163.02C94.9109 162.862 94.8684 162.706 94.7882 162.57ZM76.1855 166.692C76.2687 166.607 76.3679 166.54 76.4773 166.493C76.5867 166.447 76.7042 166.422 76.8232 166.421H80.7738C81.012 166.421 81.2404 166.516 81.4089 166.684C81.5773 166.852 81.6719 167.081 81.6719 167.319C81.6705 167.557 81.5754 167.784 81.4073 167.952C81.2392 168.12 81.0115 168.215 80.7738 168.217H76.8232C76.7051 168.217 76.5882 168.194 76.479 168.149C76.3699 168.104 76.2708 168.038 76.1873 167.955C76.1038 167.871 76.0377 167.772 75.9927 167.663C75.9477 167.554 75.9247 167.437 75.925 167.319C75.9274 167.084 76.0208 166.86 76.1855 166.692ZM58.5108 148.66C58.3927 148.661 58.2758 148.638 58.1666 148.593C58.0575 148.548 57.9584 148.482 57.8749 148.398C57.7914 148.315 57.7253 148.216 57.6803 148.107C57.6353 147.998 57.6123 147.881 57.6126 147.763V140.944C57.6123 140.826 57.6353 140.709 57.6803 140.6C57.7253 140.491 57.7914 140.391 57.8749 140.308C57.9584 140.225 58.0575 140.158 58.1666 140.113C58.2758 140.068 58.3927 140.046 58.5108 140.046H73.2307C73.4689 140.046 73.6973 140.14 73.8657 140.309C74.0342 140.477 74.1288 140.706 74.1288 140.944V147.763C74.1288 148.001 74.0342 148.229 73.8657 148.397C73.6973 148.566 73.4689 148.66 73.2307 148.66H58.5108Z" fill="#F2F2F2"/>
<path d="M206.033 75.0354H171.204V67.5059C171.205 67.2692 171.158 67.0349 171.068 66.8162C170.978 66.5975 170.845 66.3989 170.677 66.2315C170.51 66.0642 170.311 65.9316 170.093 65.8412C169.874 65.7508 169.639 65.7045 169.403 65.7048H159.176V57.6979C159.176 57.3972 159.057 57.1088 158.844 56.8962C158.631 56.6835 158.343 56.5641 158.042 56.5641H144.869C144.568 56.5641 144.279 56.6835 144.067 56.8962C143.854 57.1088 143.734 57.3972 143.734 57.6979V65.7184H131.706C131.228 65.7184 130.77 65.9081 130.432 66.2459C130.094 66.5837 129.904 67.0417 129.904 67.5194V75.03H96.7039C96.6072 75.0307 96.5148 75.0696 96.4467 75.1382C96.3785 75.2068 96.3403 75.2995 96.3403 75.3962V175.358C96.3403 175.455 96.3785 175.548 96.4467 175.616C96.5148 175.685 96.6072 175.724 96.7039 175.725H118.774C118.871 175.725 118.965 175.686 119.033 175.617C119.102 175.549 119.141 175.456 119.141 175.358V161.91C119.142 161.813 119.181 161.721 119.25 161.652C119.319 161.584 119.412 161.545 119.51 161.544H128.83C128.927 161.545 129.02 161.584 129.088 161.652C129.157 161.721 129.196 161.814 129.196 161.91V175.358C129.197 175.455 129.235 175.547 129.303 175.616C129.371 175.684 129.463 175.723 129.56 175.725H173.174C173.271 175.724 173.364 175.685 173.432 175.617C173.501 175.548 173.54 175.455 173.541 175.358V161.91C173.541 161.814 173.58 161.722 173.648 161.653C173.716 161.585 173.808 161.546 173.904 161.544H183.227C183.325 161.544 183.418 161.583 183.487 161.651C183.556 161.72 183.595 161.813 183.596 161.91V175.358C183.597 175.455 183.635 175.547 183.703 175.616C183.771 175.684 183.863 175.723 183.96 175.725H206.033C206.13 175.724 206.222 175.685 206.29 175.616C206.358 175.548 206.396 175.455 206.396 175.358V75.4016C206.396 75.305 206.358 75.2122 206.29 75.1436C206.222 75.0751 206.13 75.0362 206.033 75.0354ZM115.187 156.874C115.187 156.969 115.149 157.062 115.082 157.13C115.014 157.198 114.922 157.236 114.826 157.237H101.195C101.146 157.237 101.099 157.228 101.054 157.21C101.01 157.192 100.969 157.165 100.935 157.132C100.9 157.098 100.873 157.058 100.854 157.013C100.836 156.969 100.826 156.922 100.825 156.874V152.219C100.826 152.122 100.865 152.029 100.935 151.96C101.004 151.891 101.097 151.853 101.195 151.853H114.826C114.923 151.854 115.014 151.894 115.082 151.962C115.149 152.031 115.187 152.123 115.187 152.219V156.874ZM115.187 144.847C115.188 144.895 115.179 144.942 115.161 144.986C115.143 145.03 115.116 145.071 115.083 145.105C115.049 145.139 115.009 145.166 114.965 145.184C114.921 145.203 114.874 145.213 114.826 145.213H101.195C101.146 145.213 101.098 145.204 101.054 145.186C101.009 145.168 100.968 145.141 100.934 145.107C100.899 145.073 100.872 145.032 100.854 144.988C100.835 144.943 100.825 144.895 100.825 144.847V140.195C100.825 140.147 100.835 140.099 100.854 140.054C100.872 140.01 100.899 139.969 100.934 139.935C100.968 139.901 101.009 139.874 101.054 139.856C101.098 139.838 101.146 139.829 101.195 139.829H114.826C114.874 139.829 114.921 139.839 114.965 139.858C115.009 139.876 115.049 139.903 115.083 139.937C115.116 139.971 115.143 140.012 115.161 140.056C115.179 140.1 115.188 140.147 115.187 140.195V144.847ZM115.187 132.823C115.187 132.919 115.149 133.011 115.082 133.08C115.014 133.148 114.923 133.188 114.826 133.189H101.195C101.097 133.189 101.004 133.151 100.935 133.082C100.865 133.013 100.826 132.92 100.825 132.823V128.168C100.826 128.071 100.865 127.978 100.935 127.909C101.004 127.841 101.097 127.802 101.195 127.802H114.826C114.923 127.804 115.014 127.843 115.082 127.911C115.149 127.98 115.187 128.072 115.187 128.168V132.823ZM115.187 120.796C115.188 120.844 115.179 120.891 115.161 120.935C115.143 120.98 115.116 121.02 115.083 121.054C115.049 121.088 115.009 121.115 114.965 121.134C114.921 121.152 114.874 121.162 114.826 121.162H101.195C101.146 121.163 101.098 121.153 101.054 121.135C101.009 121.117 100.968 121.09 100.934 121.056C100.899 121.022 100.872 120.981 100.854 120.937C100.835 120.892 100.825 120.844 100.825 120.796V116.144C100.825 116.096 100.835 116.048 100.854 116.004C100.872 115.959 100.899 115.919 100.934 115.884C100.968 115.85 101.009 115.824 101.054 115.805C101.098 115.787 101.146 115.778 101.195 115.778H114.826C114.874 115.779 114.921 115.788 114.965 115.807C115.009 115.825 115.049 115.853 115.083 115.887C115.116 115.921 115.143 115.961 115.161 116.005C115.179 116.049 115.188 116.097 115.187 116.144V120.796ZM115.187 108.772C115.187 108.868 115.149 108.961 115.082 109.029C115.014 109.098 114.923 109.137 114.826 109.138H101.195C101.097 109.138 101.004 109.1 100.935 109.031C100.865 108.963 100.826 108.869 100.825 108.772V104.118C100.826 104.07 100.836 104.022 100.854 103.978C100.873 103.933 100.9 103.893 100.935 103.86C100.969 103.826 101.01 103.799 101.054 103.781C101.099 103.763 101.146 103.754 101.195 103.754H114.826C114.922 103.755 115.014 103.794 115.082 103.862C115.149 103.93 115.187 104.022 115.187 104.118V108.772ZM115.187 96.7481C115.187 96.844 115.149 96.9361 115.082 97.0041C115.014 97.0722 114.922 97.1108 114.826 97.1115H101.195C101.146 97.1119 101.099 97.1028 101.054 97.0847C101.01 97.0666 100.969 97.04 100.935 97.0062C100.9 96.9725 100.873 96.9323 100.854 96.888C100.836 96.8437 100.826 96.7962 100.825 96.7481V92.0936C100.826 91.9963 100.865 91.9031 100.935 91.8345C101.004 91.7659 101.097 91.7275 101.195 91.7275H114.826C114.923 91.7289 115.014 91.7681 115.082 91.8366C115.149 91.9051 115.187 91.9974 115.187 92.0936V96.7481ZM115.187 84.7214C115.188 84.7691 115.179 84.8164 115.161 84.8607C115.143 84.9049 115.116 84.9452 115.083 84.9792C115.049 85.0132 115.009 85.0402 114.965 85.0588C114.921 85.0774 114.874 85.0872 114.826 85.0875H101.195C101.146 85.0879 101.098 85.0787 101.054 85.0604C101.009 85.0422 100.968 85.0153 100.934 84.9812C100.899 84.9472 100.872 84.9067 100.854 84.8621C100.835 84.8175 100.825 84.7697 100.825 84.7214V80.0696C100.825 80.0213 100.835 79.9735 100.854 79.9289C100.872 79.8843 100.899 79.8438 100.934 79.8097C100.968 79.7757 101.009 79.7488 101.054 79.7305C101.098 79.7123 101.146 79.7031 101.195 79.7035H114.826C114.874 79.7038 114.921 79.7136 114.965 79.7322C115.009 79.7507 115.049 79.7778 115.083 79.8118C115.116 79.8458 115.143 79.8861 115.161 79.9303C115.179 79.9746 115.188 80.0219 115.187 80.0696V84.7214ZM147.509 156.871C147.508 156.919 147.498 156.966 147.48 157.011C147.461 157.055 147.434 157.095 147.399 157.129C147.365 157.163 147.325 157.189 147.28 157.207C147.235 157.226 147.188 157.235 147.14 157.234H133.508C133.411 157.234 133.319 157.196 133.251 157.128C133.183 157.06 133.144 156.967 133.144 156.871V152.219C133.144 152.122 133.182 152.03 133.251 151.961C133.319 151.893 133.411 151.854 133.508 151.853H147.14C147.237 151.853 147.33 151.891 147.4 151.96C147.469 152.029 147.508 152.122 147.509 152.219V156.871ZM147.509 144.844C147.509 144.892 147.499 144.94 147.481 144.985C147.462 145.029 147.435 145.07 147.4 145.104C147.366 145.138 147.325 145.165 147.281 145.183C147.236 145.201 147.188 145.211 147.14 145.21H133.508C133.46 145.21 133.412 145.201 133.368 145.182C133.324 145.164 133.284 145.137 133.25 145.103C133.216 145.069 133.189 145.028 133.171 144.984C133.153 144.94 133.144 144.892 133.144 144.844V140.195C133.144 140.147 133.153 140.1 133.171 140.055C133.189 140.011 133.216 139.97 133.25 139.936C133.284 139.902 133.324 139.875 133.368 139.857C133.412 139.838 133.46 139.829 133.508 139.829H147.14C147.188 139.829 147.236 139.838 147.281 139.856C147.325 139.874 147.366 139.901 147.4 139.935C147.435 139.969 147.462 140.01 147.481 140.054C147.499 140.099 147.509 140.147 147.509 140.195V144.844ZM147.509 132.82C147.508 132.917 147.469 133.011 147.4 133.079C147.33 133.148 147.237 133.186 147.14 133.186H133.508C133.413 133.186 133.322 133.148 133.254 133.082C133.186 133.016 133.147 132.926 133.144 132.831V128.168C133.144 128.072 133.182 127.979 133.251 127.91C133.319 127.842 133.411 127.803 133.508 127.802H147.14C147.237 127.802 147.33 127.841 147.4 127.909C147.469 127.978 147.508 128.071 147.509 128.168V132.82ZM147.509 120.793C147.509 120.842 147.499 120.89 147.481 120.934C147.462 120.979 147.435 121.019 147.4 121.053C147.366 121.087 147.325 121.114 147.281 121.132C147.236 121.151 147.188 121.16 147.14 121.16H133.508C133.46 121.16 133.412 121.15 133.368 121.132C133.324 121.113 133.284 121.086 133.25 121.052C133.216 121.018 133.189 120.978 133.171 120.933C133.153 120.889 133.144 120.841 133.144 120.793V116.144C133.144 116.096 133.153 116.049 133.171 116.004C133.189 115.96 133.216 115.92 133.25 115.886C133.284 115.852 133.324 115.825 133.368 115.806C133.412 115.788 133.46 115.778 133.508 115.778H147.14C147.188 115.778 147.236 115.787 147.281 115.805C147.325 115.824 147.366 115.85 147.4 115.884C147.435 115.919 147.462 115.959 147.481 116.004C147.499 116.048 147.509 116.096 147.509 116.144V120.793ZM147.509 108.769C147.508 108.867 147.469 108.96 147.4 109.028C147.33 109.097 147.237 109.136 147.14 109.136H133.508C133.411 109.135 133.319 109.096 133.251 109.027C133.182 108.959 133.144 108.866 133.144 108.769V104.118C133.144 104.021 133.183 103.929 133.251 103.861C133.319 103.792 133.411 103.754 133.508 103.754H147.14C147.188 103.754 147.235 103.763 147.28 103.781C147.325 103.799 147.365 103.826 147.399 103.86C147.434 103.893 147.461 103.933 147.48 103.978C147.498 104.022 147.508 104.07 147.509 104.118V108.769ZM147.509 96.7454C147.508 96.7935 147.498 96.841 147.48 96.8853C147.461 96.9296 147.434 96.9698 147.399 97.0035C147.365 97.0373 147.325 97.0639 147.28 97.082C147.235 97.1001 147.188 97.1092 147.14 97.1088H133.508C133.413 97.1089 133.322 97.0721 133.254 97.0062C133.187 96.9404 133.147 96.8507 133.144 96.7562V92.0936C133.144 91.997 133.182 91.9043 133.251 91.8357C133.319 91.7671 133.411 91.7282 133.508 91.7275H147.14C147.237 91.7275 147.33 91.7659 147.4 91.8345C147.469 91.9031 147.508 91.9963 147.509 92.0936V96.7454ZM147.509 84.7187C147.509 84.767 147.499 84.8148 147.481 84.8594C147.462 84.904 147.435 84.9445 147.4 84.9785C147.366 85.0126 147.325 85.0395 147.281 85.0577C147.236 85.076 147.188 85.0852 147.14 85.0848H133.508C133.46 85.0848 133.412 85.0753 133.368 85.0569C133.324 85.0385 133.284 85.0115 133.25 84.9774C133.216 84.9434 133.189 84.903 133.171 84.8586C133.153 84.8142 133.144 84.7666 133.144 84.7187V80.0696C133.144 80.0217 133.153 79.9741 133.171 79.9297C133.189 79.8853 133.216 79.8449 133.25 79.8109C133.284 79.7768 133.324 79.7498 133.368 79.7314C133.412 79.7129 133.46 79.7035 133.508 79.7035H147.14C147.188 79.7031 147.236 79.7123 147.281 79.7305C147.325 79.7488 147.366 79.7757 147.4 79.8097C147.435 79.8438 147.462 79.8843 147.481 79.9289C147.499 79.9735 147.509 80.0213 147.509 80.0696V84.7187ZM169.59 156.868C169.59 156.916 169.58 156.964 169.562 157.008C169.544 157.052 169.516 157.092 169.482 157.126C169.448 157.16 169.408 157.187 169.364 157.205C169.319 157.223 169.272 157.232 169.224 157.232H155.584C155.487 157.232 155.394 157.193 155.325 157.125C155.256 157.057 155.216 156.965 155.215 156.868V152.219C155.216 152.122 155.255 152.029 155.324 151.961C155.393 151.892 155.486 151.854 155.584 151.853H169.213C169.31 151.853 169.403 151.892 169.472 151.96C169.54 152.029 169.579 152.122 169.579 152.219L169.59 156.868ZM169.59 144.841C169.59 144.89 169.581 144.937 169.563 144.982C169.544 145.027 169.517 145.067 169.483 145.101C169.449 145.135 169.409 145.162 169.364 145.18C169.32 145.199 169.272 145.208 169.224 145.208H155.584C155.486 145.208 155.393 145.169 155.324 145.101C155.254 145.032 155.215 144.939 155.215 144.841V140.195C155.215 140.098 155.254 140.005 155.324 139.936C155.393 139.867 155.486 139.829 155.584 139.829H169.213C169.261 139.829 169.309 139.838 169.353 139.856C169.398 139.874 169.438 139.901 169.473 139.935C169.507 139.969 169.534 140.01 169.552 140.055C169.57 140.099 169.579 140.147 169.579 140.195L169.59 144.841ZM169.59 132.817C169.59 132.865 169.58 132.913 169.562 132.958C169.544 133.002 169.517 133.042 169.483 133.076C169.449 133.11 169.408 133.137 169.364 133.156C169.319 133.174 169.272 133.184 169.224 133.184H155.584C155.486 133.183 155.393 133.144 155.324 133.076C155.255 133.007 155.216 132.915 155.215 132.817V128.168C155.216 128.071 155.255 127.979 155.324 127.91C155.393 127.842 155.486 127.803 155.584 127.802H169.213C169.261 127.802 169.308 127.812 169.353 127.83C169.397 127.848 169.438 127.875 169.472 127.909C169.506 127.943 169.533 127.984 169.551 128.028C169.57 128.073 169.579 128.12 169.579 128.168L169.59 132.817ZM169.59 120.791C169.59 120.839 169.581 120.887 169.563 120.931C169.544 120.976 169.517 121.016 169.483 121.05C169.449 121.084 169.409 121.111 169.364 121.13C169.32 121.148 169.272 121.157 169.224 121.157H155.584C155.486 121.157 155.393 121.118 155.324 121.05C155.254 120.981 155.215 120.888 155.215 120.791V116.144C155.215 116.047 155.254 115.954 155.324 115.885C155.393 115.817 155.486 115.778 155.584 115.778H169.213C169.261 115.778 169.309 115.787 169.353 115.805C169.398 115.824 169.438 115.851 169.473 115.885C169.507 115.919 169.534 115.959 169.552 116.004C169.57 116.048 169.579 116.096 169.579 116.144L169.59 120.791ZM169.59 108.767C169.59 108.815 169.58 108.862 169.562 108.907C169.544 108.951 169.517 108.992 169.483 109.026C169.449 109.06 169.408 109.087 169.364 109.105C169.319 109.123 169.272 109.133 169.224 109.133H155.584C155.486 109.132 155.393 109.093 155.324 109.025C155.255 108.957 155.216 108.864 155.215 108.767V104.118C155.216 104.021 155.256 103.928 155.325 103.86C155.394 103.792 155.487 103.754 155.584 103.754H169.213C169.261 103.754 169.308 103.763 169.353 103.781C169.397 103.799 169.438 103.826 169.472 103.86C169.506 103.893 169.533 103.934 169.551 103.978C169.57 104.022 169.579 104.07 169.579 104.118L169.59 108.767ZM169.59 96.7427C169.59 96.7906 169.58 96.8381 169.562 96.8824C169.544 96.9267 169.516 96.9668 169.482 97.0006C169.448 97.0344 169.408 97.0611 169.364 97.0792C169.319 97.0973 169.272 97.1065 169.224 97.1061H155.584C155.487 97.1061 155.394 97.068 155.325 97C155.256 96.932 155.216 96.8396 155.215 96.7427V92.0936C155.216 91.9965 155.255 91.9038 155.324 91.8353C155.393 91.7669 155.486 91.7282 155.584 91.7275H169.213C169.31 91.7275 169.403 91.766 169.472 91.8347C169.54 91.9034 169.579 91.9965 169.579 92.0936L169.59 96.7427ZM169.59 84.7159C169.59 84.7641 169.581 84.8119 169.563 84.8565C169.544 84.9011 169.517 84.9416 169.483 84.9757C169.449 85.0097 169.409 85.0367 169.364 85.055C169.32 85.0733 169.272 85.0825 169.224 85.0821H155.584C155.486 85.0821 155.393 85.0436 155.324 84.975C155.254 84.9064 155.215 84.8133 155.215 84.7159V80.0696C155.215 79.9723 155.254 79.8791 155.324 79.8105C155.393 79.7419 155.486 79.7035 155.584 79.7035H169.213C169.261 79.7031 169.309 79.7123 169.353 79.7306C169.398 79.7489 169.438 79.7758 169.473 79.8099C169.507 79.844 169.534 79.8845 169.552 79.9291C169.57 79.9737 169.579 80.0214 169.579 80.0696L169.59 84.7159ZM201.911 156.865C201.91 156.962 201.87 157.055 201.801 157.123C201.732 157.191 201.639 157.229 201.542 157.229H187.91C187.863 157.229 187.815 157.22 187.771 157.202C187.727 157.184 187.686 157.157 187.653 157.123C187.619 157.089 187.592 157.049 187.574 157.005C187.556 156.961 187.546 156.913 187.547 156.865V152.219C187.546 152.171 187.556 152.124 187.574 152.079C187.592 152.035 187.619 151.994 187.652 151.96C187.686 151.926 187.726 151.899 187.771 151.881C187.815 151.862 187.862 151.853 187.91 151.853H201.542C201.639 151.854 201.733 151.892 201.802 151.961C201.87 152.029 201.91 152.122 201.911 152.219V156.865ZM201.911 144.839C201.911 144.936 201.871 145.029 201.802 145.098C201.733 145.166 201.64 145.205 201.542 145.205H187.91C187.862 145.205 187.815 145.195 187.771 145.177C187.726 145.159 187.686 145.131 187.652 145.097C187.619 145.063 187.592 145.023 187.574 144.979C187.556 144.934 187.546 144.887 187.547 144.839V140.195C187.546 140.147 187.556 140.1 187.574 140.055C187.592 140.011 187.619 139.97 187.652 139.936C187.686 139.902 187.726 139.875 187.771 139.857C187.815 139.838 187.862 139.829 187.91 139.829H201.542C201.64 139.829 201.733 139.867 201.802 139.936C201.871 140.005 201.911 140.098 201.911 140.195V144.839ZM201.911 132.815C201.91 132.912 201.87 133.005 201.802 133.073C201.733 133.141 201.639 133.18 201.542 133.181H187.91C187.816 133.181 187.726 133.144 187.658 133.079C187.59 133.014 187.55 132.925 187.547 132.831V128.168C187.546 128.12 187.556 128.073 187.574 128.028C187.592 127.984 187.619 127.944 187.652 127.91C187.686 127.876 187.726 127.849 187.771 127.83C187.815 127.812 187.862 127.802 187.91 127.802H201.542C201.639 127.803 201.733 127.842 201.802 127.91C201.87 127.979 201.91 128.071 201.911 128.168V132.815ZM201.911 120.788C201.911 120.885 201.871 120.978 201.802 121.047C201.733 121.116 201.64 121.154 201.542 121.154H187.91C187.862 121.154 187.815 121.145 187.771 121.126C187.726 121.108 187.686 121.081 187.652 121.047C187.619 121.013 187.592 120.972 187.574 120.928C187.556 120.883 187.546 120.836 187.547 120.788V116.144C187.546 116.096 187.556 116.049 187.574 116.004C187.592 115.96 187.619 115.92 187.652 115.886C187.686 115.852 187.726 115.825 187.771 115.806C187.815 115.788 187.862 115.778 187.91 115.778H201.542C201.64 115.778 201.733 115.817 201.802 115.885C201.871 115.954 201.911 116.047 201.911 116.144V120.788ZM201.911 108.764C201.91 108.861 201.87 108.954 201.802 109.022C201.733 109.091 201.639 109.129 201.542 109.13H187.91C187.862 109.13 187.815 109.121 187.771 109.102C187.726 109.084 187.686 109.057 187.652 109.023C187.619 108.989 187.592 108.948 187.574 108.904C187.556 108.859 187.546 108.812 187.547 108.764V104.118C187.546 104.07 187.556 104.022 187.574 103.978C187.592 103.934 187.619 103.894 187.653 103.86C187.686 103.826 187.727 103.799 187.771 103.781C187.815 103.763 187.863 103.754 187.91 103.754H201.542C201.639 103.754 201.732 103.792 201.801 103.86C201.87 103.928 201.91 104.021 201.911 104.118V108.764ZM201.911 96.74C201.91 96.8368 201.87 96.9293 201.801 96.9973C201.732 97.0653 201.639 97.1034 201.542 97.1034H187.91C187.817 97.1042 187.726 97.0684 187.658 97.0035C187.59 96.9387 187.55 96.85 187.547 96.7562V92.0936C187.546 92.0457 187.556 91.9981 187.574 91.9537C187.592 91.9093 187.619 91.8689 187.652 91.8349C187.686 91.8008 187.726 91.7738 187.771 91.7554C187.815 91.7369 187.862 91.7275 187.91 91.7275H201.542C201.639 91.7282 201.733 91.7669 201.802 91.8353C201.87 91.9038 201.91 91.9965 201.911 92.0936V96.74ZM201.911 84.7132C201.911 84.8106 201.871 84.9037 201.802 84.9723C201.733 85.0409 201.64 85.0794 201.542 85.0794H187.91C187.862 85.0794 187.815 85.0699 187.771 85.0515C187.726 85.033 187.686 85.006 187.652 84.972C187.619 84.9379 187.592 84.8976 187.574 84.8532C187.556 84.8087 187.546 84.7612 187.547 84.7132V80.0696C187.546 80.0217 187.556 79.9741 187.574 79.9297C187.592 79.8853 187.619 79.8449 187.652 79.8109C187.686 79.7768 187.726 79.7498 187.771 79.7314C187.815 79.7129 187.862 79.7035 187.91 79.7035H201.542C201.64 79.7035 201.733 79.7419 201.802 79.8105C201.871 79.8791 201.911 79.9723 201.911 80.0696V84.7132Z" fill="#F2F2F2"/>
<path d="M50.9024 76.0661C51.4766 75.3363 51.9997 74.5678 52.468 73.766L41.4328 71.9542L53.3715 72.0437C54.518 69.5548 55.1438 66.858 55.2105 64.1188C55.2773 61.3795 54.7835 58.6555 53.7596 56.1138L37.7508 64.4137L52.5141 53.5642C51.1267 51.1822 49.2641 49.1108 47.0421 47.4787C44.82 45.8465 42.2861 44.6885 39.5975 44.0766C36.909 43.4647 34.1232 43.4118 31.4134 43.9214C28.7036 44.431 26.1275 45.4921 23.8452 47.0389C21.5629 48.5856 19.623 50.5849 18.1462 52.9126C16.6694 55.2403 15.6871 57.8467 15.2603 60.5699C14.8336 63.293 14.9715 66.0748 15.6655 68.7425C16.3595 71.4101 17.5948 73.9067 19.2946 76.077C18.4003 77.2131 17.6315 78.4427 17.0018 79.7441L31.312 87.1707L16.044 82.047C14.974 85.2166 14.7114 88.603 15.2799 91.8996C15.8484 95.1963 17.2301 98.2993 19.3 100.928C17.6246 103.051 16.3978 105.491 15.694 108.102C18.3809 115.868 21.5434 123.462 25.1636 130.84C27.1013 131.944 29.2109 132.716 31.4043 133.121C31.14 133.871 31.006 134.661 31.0081 135.457C30.9878 136.631 31.28 137.79 31.8547 138.814C31.3505 139.69 31.0569 140.67 30.9973 141.679C33.4754 145.905 36.2026 149.981 39.1645 153.885C39.0225 153.313 38.7996 152.765 38.5024 152.257C39.0753 151.231 39.3761 150.075 39.3761 148.899C39.3761 147.724 39.0753 146.568 38.5024 145.541C39.0753 144.515 39.3761 143.359 39.3761 142.183C39.3761 141.008 39.0753 139.852 38.5024 138.825C39.0866 137.803 39.3881 136.644 39.3761 135.467C39.3803 134.66 39.2425 133.859 38.9691 133.099C42.3488 132.437 45.5016 130.918 48.1256 128.688C50.7496 126.458 52.7568 123.592 53.9551 120.364C55.1533 117.136 55.5023 113.655 54.9688 110.254C54.4352 106.852 53.0369 103.645 50.9078 100.939C53.6973 97.3952 55.2139 93.017 55.2139 88.5079C55.2139 83.9987 53.6973 79.6205 50.9078 76.077L50.9024 76.0661Z" fill="#F2F2F2"/>
<path d="M289.967 92.1045L289.153 91.9716H289.951C289.807 88.8998 289.253 85.8611 288.301 82.9366L285.463 84.4094L288.133 82.4402C285.708 75.3867 281.068 69.3048 274.906 65.1C272.067 66.3221 269.547 68.1796 267.54 70.5291C265.532 72.8787 264.092 75.6576 263.329 78.6517C262.565 81.6457 262.5 84.775 263.138 87.7982C263.776 90.8214 265.099 93.6579 267.007 96.089C266.113 97.228 265.344 98.4602 264.714 99.7642L279.041 107.223L263.773 102.089C262.703 105.265 262.44 108.658 263.008 111.961C263.577 115.264 264.958 118.374 267.029 121.01C265.064 123.515 263.719 126.449 263.105 129.573C262.49 132.696 262.624 135.921 263.494 138.983C264.365 142.045 265.948 144.858 268.113 147.192C270.279 149.526 272.966 151.314 275.956 152.412C277.041 149.838 278.097 147.147 279.084 144.38C279.958 141.939 280.791 139.452 281.575 136.94C283.865 129.577 285.782 122.103 287.316 114.547C289.053 105.943 290.03 98.4243 290.03 93.6614C290.003 93.1379 289.989 92.6225 289.967 92.1045Z" fill="#F2F2F2"/>
<path d="M144.35 187C224.073 187 288.7 183.964 288.7 180.219C288.7 176.474 224.073 173.438 144.35 173.438C64.6278 173.438 0 176.474 0 180.219C0 183.964 64.6278 187 144.35 187Z" fill="#3F3D56"/>
<path d="M220.975 109.835C218.278 105.165 207.137 106.54 196.118 112.906C194.2 114.011 192.353 115.234 190.589 116.57C189.622 104.456 184.087 93.1616 175.104 84.9734C166.121 76.7852 154.361 72.3151 142.205 72.4682C130.049 72.6212 118.406 77.386 109.632 85.7978C100.858 94.2096 95.6091 105.64 94.9484 117.774C92.737 115.953 90.3772 114.32 87.8937 112.892C76.8965 106.54 65.7528 105.165 63.0584 109.835C60.3641 114.506 67.1284 123.452 78.1473 129.817C85.2862 133.938 92.463 135.964 97.3714 135.619C100.179 143.966 105.232 151.38 111.975 157.047C102.31 158.403 95.2035 162.922 95.2035 168.298C95.2035 174.737 105.408 179.961 117.996 179.961C130.583 179.961 140.788 174.737 140.788 168.298C140.788 168.282 140.788 168.266 140.788 168.247C141.464 168.275 142.143 168.291 142.825 168.293C143.507 168.294 144.187 168.279 144.863 168.247C144.863 168.266 144.863 168.282 144.863 168.298C144.863 174.737 155.068 179.961 167.655 179.961C180.243 179.961 190.447 174.737 190.447 168.298C190.447 162.922 183.341 158.401 173.676 157.047C180.41 151.39 185.458 143.991 188.269 135.66C193.069 135.535 199.502 133.525 205.905 129.828C216.927 123.452 223.689 114.503 220.975 109.835Z" fill="#72D3D9"/>
<path opacity="0.1" d="M63.0585 112.277C65.7555 107.606 76.8965 108.981 87.9154 115.347C90.3591 116.749 92.6833 118.349 94.8643 120.132C94.9702 117.837 94.9702 120.278 94.9647 117.772C92.7527 115.956 90.3929 114.329 87.91 112.906C76.8965 106.54 65.7528 105.165 63.0585 109.835C62.4642 110.863 62.3313 112.1 62.5999 113.47C62.693 113.052 62.8475 112.65 63.0585 112.277Z" fill="black"/>
<path opacity="0.1" d="M221.035 112.277C218.338 107.606 207.197 108.981 196.175 115.347C193.605 116.828 192.626 117.37 190.585 119.047C190.477 116.752 190.477 119.193 190.485 116.687C192.547 114.981 193.565 114.414 196.183 112.906C207.216 106.54 218.346 105.165 221.043 109.835C221.637 110.863 221.77 112.1 221.501 113.47C221.406 113.051 221.248 112.649 221.035 112.277Z" fill="black"/>
<path d="M129.978 117.59C132.723 117.59 134.949 114.677 134.949 111.083C134.949 107.489 132.723 104.576 129.978 104.576C127.232 104.576 125.007 107.489 125.007 111.083C125.007 114.677 127.232 117.59 129.978 117.59Z" fill="#444053"/>
<path d="M155.659 117.59C158.405 117.59 160.63 114.677 160.63 111.083C160.63 107.489 158.405 104.576 155.659 104.576C152.914 104.576 150.688 107.489 150.688 111.083C150.688 114.677 152.914 117.59 155.659 117.59Z" fill="#444053"/>
<path d="M173.709 131.551C173.709 140.892 158.099 156.629 142.348 156.629C126.597 156.629 111.576 140.537 111.576 131.204C111.576 121.87 126.279 130.39 142.017 130.39C157.754 130.39 173.709 122.207 173.709 131.551Z" fill="#3F3D56"/>
<path d="M116.541 133.146C116.541 133.146 144.855 139.447 168.637 133.325C168.637 133.325 171.549 133.325 169.56 136.688C169.043 137.559 168.291 138.266 167.389 138.728C162.804 141.069 145.832 147.991 118.693 139.164C117.849 138.901 117.084 138.432 116.467 137.8C115.849 137.168 115.398 136.393 115.155 135.543C114.845 134.401 114.984 133.306 116.541 133.146Z" fill="#F6F8FB"/>
<path opacity="0.1" d="M142.643 78.8084C154.862 78.809 166.62 83.4751 175.512 91.8526C184.405 100.23 189.761 111.687 190.485 123.88C190.575 122.687 190.621 121.481 190.621 120.264C190.525 107.62 185.434 95.5251 176.455 86.6172C167.477 77.7094 155.34 72.7107 142.691 72.7107C130.041 72.7107 117.904 77.7094 108.926 86.6172C99.9476 95.5251 94.8559 107.62 94.7607 120.264C94.7607 121.222 94.7933 122.163 94.8476 123.115C95.7583 111.066 101.189 99.8065 110.052 91.5904C118.915 83.3744 130.556 78.8089 142.643 78.8084Z" fill="black"/>
<path d="M148.051 16.8385C148.051 17.6449 147.892 18.4434 147.584 19.1885C147.275 19.9335 146.822 20.6105 146.252 21.1807C145.681 21.7509 145.004 22.2033 144.259 22.5119C143.514 22.8205 142.715 22.9793 141.908 22.9793C141.101 22.9793 140.303 22.8205 139.557 22.5119C138.812 22.2033 138.135 21.7509 137.564 21.1807C136.994 20.6105 136.541 19.9335 136.233 19.1885C135.924 18.4434 135.765 17.6449 135.765 16.8385C135.765 16.7381 135.765 16.6405 135.765 16.5428C135.846 14.971 136.528 13.4902 137.669 12.4063C138.811 11.3224 140.326 10.718 141.9 10.718C143.475 10.718 144.989 11.3224 146.131 12.4063C147.272 13.4902 147.954 14.971 148.035 16.5428C148.048 16.6405 148.051 16.7408 148.051 16.8385Z" fill="#3F3D56"/>
<path opacity="0.1" d="M148.051 16.8385C148.051 17.6449 147.892 18.4435 147.584 19.1885C147.275 19.9335 146.822 20.6105 146.252 21.1807C145.681 21.751 145.004 22.2033 144.259 22.5119C143.514 22.8205 142.715 22.9794 141.908 22.9794C141.101 22.9794 140.303 22.8205 139.557 22.5119C138.812 22.2033 138.135 21.751 137.564 21.1807C136.994 20.6105 136.541 19.9335 136.233 19.1885C135.924 18.4435 135.765 17.6449 135.765 16.8385C135.765 16.7382 135.765 16.6405 135.765 16.5429C137.497 15.1288 139.664 14.3564 141.9 14.3564C144.136 14.3564 146.303 15.1288 148.035 16.5429C148.048 16.6405 148.051 16.7409 148.051 16.8385Z" fill="black"/>
<path d="M141.908 34.2927C147.266 34.2927 151.608 29.9513 151.608 24.5959C151.608 19.2405 147.266 14.8991 141.908 14.8991C136.551 14.8991 132.208 19.2405 132.208 24.5959C132.208 29.9513 136.551 34.2927 141.908 34.2927Z" fill="#3F3D56"/>
<path d="M136.047 15.4823C136.048 13.9947 136.588 12.558 137.568 11.4386C138.548 10.3192 139.901 9.59336 141.376 9.39568C140.508 9.2796 139.626 9.3503 138.788 9.60303C137.949 9.85576 137.175 10.2847 136.516 10.8611C135.857 11.4374 135.329 12.1479 134.967 12.9449C134.606 13.742 134.418 14.6071 134.418 15.4823C134.418 16.3575 134.606 17.2226 134.967 18.0196C135.329 18.8166 135.857 19.5271 136.516 20.1035C137.175 20.6799 137.949 21.1088 138.788 21.3615C139.626 21.6142 140.508 21.6849 141.376 21.5689C139.901 21.3712 138.548 20.6453 137.568 19.5259C136.588 18.4066 136.048 16.9698 136.047 15.4823Z" fill="#3F3D56"/>
<path d="M130.965 28.5316C129.849 27.5464 129.13 26.1899 128.94 24.7142C128.75 23.2385 129.102 21.7439 129.931 20.5084C129.297 21.0594 128.783 21.7346 128.42 22.4923C128.057 23.2499 127.854 24.0739 127.822 24.9133C127.791 25.7527 127.932 26.5896 128.237 27.3723C128.542 28.155 129.004 28.8668 129.595 29.4637C130.187 30.0606 130.894 30.53 131.674 30.8427C132.454 31.1554 133.289 31.3048 134.129 31.2818C134.969 31.2588 135.796 31.0637 136.557 30.7087C137.319 30.3537 137.999 29.8463 138.557 29.2178C138.738 29.0136 138.905 28.7969 139.056 28.5696C137.932 29.5446 136.492 30.0782 135.003 30.0712C133.515 30.0643 132.08 29.5171 130.965 28.5316Z" fill="#3F3D56"/>
<path d="M136.837 36.8912C136.354 37.0539 135.816 37.0892 135.401 37.3821C134.587 37.9436 134.623 39.1343 134.859 40.0945C135.401 42.2644 136.758 44.3557 138.812 45.248C140.055 45.7905 141.444 45.842 142.795 45.8258C144.269 45.8095 145.926 45.6223 146.838 44.4696C147.291 43.8918 147.484 43.1595 147.666 42.4461C148.116 40.6831 148.569 38.8793 148.406 37.0675C147.514 37.1461 146.507 37.1977 145.823 36.6362C145.14 36.0747 144.96 35.0088 144.657 34.1164C144.624 33.9744 144.543 33.848 144.429 33.7584C144.302 33.6969 144.16 33.6752 144.022 33.696C143.089 33.731 142.154 33.6847 141.23 33.5576C140.652 33.4817 139.23 32.8795 138.788 33.3868C138.47 33.7584 138.671 34.8786 138.429 35.3966C138.277 35.7394 138.058 36.0482 137.784 36.3049C137.511 36.5616 137.188 36.7609 136.837 36.8912Z" fill="#FFC1C7"/>
<path opacity="0.05" d="M136.837 36.8912C136.354 37.0539 135.816 37.0892 135.401 37.3821C134.587 37.9436 134.623 39.1343 134.859 40.0945C135.401 42.2644 136.758 44.3557 138.812 45.248C140.055 45.7905 141.444 45.842 142.795 45.8258C144.269 45.8095 145.926 45.6223 146.838 44.4696C147.291 43.8918 147.484 43.1595 147.666 42.4461C148.116 40.6831 148.569 38.8793 148.406 37.0675C147.514 37.1461 146.507 37.1977 145.823 36.6362C145.14 36.0747 144.96 35.0088 144.657 34.1164C144.624 33.9744 144.543 33.848 144.429 33.7584C144.302 33.6969 144.16 33.6752 144.022 33.696C143.089 33.731 142.154 33.6847 141.23 33.5576C140.652 33.4817 139.23 32.8795 138.788 33.3868C138.47 33.7584 138.671 34.8786 138.429 35.3966C138.277 35.7394 138.058 36.0482 137.784 36.3049C137.511 36.5616 137.188 36.7609 136.837 36.8912Z" fill="black"/>
<path d="M86.165 100.168C83.9944 100.234 81.7775 100.141 79.653 100.619C79.2475 100.665 78.873 100.858 78.6002 101.161C78.2882 101.606 78.4537 102.227 78.7115 102.707C79.2997 103.792 80.283 104.609 81.4574 104.988C82.7489 105.401 84.1409 105.243 85.4921 105.287C87.3355 105.345 89.1473 105.781 90.8157 106.567C91.1956 106.746 91.5972 106.947 92.0123 106.884C92.612 106.792 92.9864 106.193 93.2089 105.628C93.4576 104.95 93.658 104.255 93.8085 103.548C94.1233 102.211 94.1667 99.569 92.3298 99.2082C91.4886 99.0455 90.4983 99.6259 89.6897 99.7941C88.5285 100.025 87.3488 100.15 86.165 100.168Z" fill="#444053"/>
<path d="M197.415 100.795C197.932 100.618 198.377 100.277 198.682 99.8239C199.496 98.6386 199.496 97.2227 199.928 95.9235C200.47 94.2337 201.672 92.8395 202.427 91.2311C203.102 89.7915 203.413 88.208 203.333 86.62C203.327 86.5051 203.297 86.3927 203.244 86.2903C203.191 86.1879 203.118 86.0979 203.028 86.0261C202.938 85.9543 202.833 85.9025 202.722 85.8739C202.61 85.8454 202.494 85.8408 202.381 85.8605C201.358 86.0585 200.43 86.799 199.779 87.6453C198.94 88.7302 198.392 90.0213 197.532 91.0927C196.672 92.1641 195.464 93.0239 194.441 94.0085C193.158 95.2454 192.151 96.5907 193.296 98.1965C194.227 99.5147 195.513 101.419 197.415 100.795Z" fill="#444053"/>
<path d="M130.916 65.2763C124.087 74.1499 115.612 81.6249 105.953 87.2927C102.999 89.0259 99.9162 90.5991 97.2897 92.7988C95.2981 94.4697 93.6077 96.466 91.9281 98.4515C91.7353 98.64 91.603 98.8818 91.5483 99.1458C91.5412 99.3371 91.5754 99.5277 91.6487 99.7046C92.1913 101.305 92.8208 103.041 94.2698 103.914C98.025 98.4894 105.487 97.0871 111.209 93.8051C113.868 92.2808 116.291 90.3875 118.744 88.554C122.29 85.9013 125.914 83.3597 129.617 80.9294C132.072 79.3183 134.601 77.7343 137.417 76.8961C143.387 75.1114 149.899 76.8961 155.412 79.8255C160.926 82.7549 165.78 86.7584 171.182 89.8749C178.525 94.1062 186.716 96.6016 194.826 99.0617C195.117 97.1143 195.293 95.2047 195.706 93.2789C193.681 92.9941 191.769 92.194 189.88 91.4101C187.772 90.5313 185.65 89.6416 183.756 88.3641C182.505 87.5178 181.368 86.5088 180.131 85.6517C177.434 83.753 174.308 82.5596 171.576 80.7179C168.016 78.3201 165.262 74.9269 162.006 72.1305C160.587 70.9126 159.078 69.8087 157.567 68.7074C156.004 67.5655 154.417 66.4128 152.615 65.7048C150.477 64.8613 148.143 64.6877 145.851 64.5249C140.722 64.1452 135.776 63.6407 130.916 65.2763Z" fill="#575A89"/>
<path d="M141.773 36.0558C145.519 36.0558 148.556 33.0198 148.556 29.2748C148.556 25.5298 145.519 22.4938 141.773 22.4938C138.026 22.4938 134.989 25.5298 134.989 29.2748C134.989 33.0198 138.026 36.0558 141.773 36.0558Z" fill="#FFC1C7"/>
<path d="M141.572 43.4144C140.351 43.2626 139.18 42.836 138.148 42.1667C137.115 41.4877 136.371 40.4496 136.061 39.2536C135.841 38.2962 135.963 37.2627 135.578 36.3622C134.355 36.9753 133.084 37.4905 131.779 37.9029C131.044 38.1334 130.276 38.345 129.679 38.8305C128.396 39.8748 128.323 41.7734 128.358 43.4253C128.346 43.7525 128.388 44.0795 128.48 44.3936C128.602 44.6917 128.782 44.9627 129.009 45.191C130.404 46.6829 132.572 47.3013 133.893 48.8663C133.204 49.6384 132.759 50.5974 132.615 51.6221C132.583 52.034 132.525 52.4435 132.441 52.8481C132.331 53.1816 132.198 53.5069 132.043 53.8219C131.185 55.7748 131.215 57.9827 131.085 60.1092C130.954 62.2357 130.585 64.5005 129.147 66.0764C129.733 66.7057 130.504 66.8901 131.348 66.9688C132.192 67.0474 133.065 66.9362 133.926 66.9688C136.194 67.0339 138.335 67.9615 140.522 68.5664C142.709 69.1712 145.191 69.4181 147.126 68.2328C147.804 67.8178 148.38 67.2455 149.061 66.8359C149.875 66.3422 150.83 66.1062 151.774 65.8757L152.113 54.5488C152.121 53.7549 152.178 52.9623 152.284 52.1754C152.775 49.0779 154.753 46.455 156.669 43.9732C156.556 42.842 156.187 41.7512 155.591 40.7833C154.994 39.8153 154.185 38.9955 153.226 38.3857C152.366 37.8753 151.457 37.4536 150.512 37.1271L148.282 36.27C148.084 36.175 147.865 36.1338 147.647 36.1507C147.164 36.2375 146.979 36.826 146.952 37.3143C146.909 38.0846 147.023 38.8576 146.996 39.6279C146.969 40.3983 146.776 41.212 146.231 41.7572C145.839 42.1079 145.376 42.3706 144.874 42.5275C143.734 42.9615 142.774 43.5934 141.572 43.4144Z" fill="#FF6584"/>
<path d="M132.569 71.8023C132.658 73.3131 132.748 74.8401 132.493 76.332C132.238 77.8238 131.614 79.2993 130.48 80.3029C129.603 81.0759 128.371 81.6591 128.154 82.8173C128.101 83.0709 128.122 83.3345 128.214 83.5767C128.455 84.1463 129.164 84.404 129.777 84.3064C130.383 84.1662 130.944 83.8729 131.405 83.4547C132.345 82.687 133.245 81.8722 134.102 81.0135C134.859 80.2785 135.643 79.5027 135.961 78.4964C136.092 78.017 136.166 77.5234 136.18 77.0263C136.357 74.3139 136.403 71.6016 136.452 68.8892C136.484 66.9145 136.506 64.8775 135.779 63.0413C135.887 63.3125 133.245 63.5702 133.044 63.5837C131.904 63.6841 132.121 64.1533 132.186 65.2274C132.313 67.4263 132.44 69.6179 132.569 71.8023Z" fill="#FFC1C7"/>
<path d="M152.327 71.8023C152.238 73.3131 152.148 74.8401 152.403 76.332C152.658 77.8238 153.282 79.2993 154.417 80.3029C155.293 81.0759 156.525 81.6591 156.742 82.8173C156.795 83.0709 156.774 83.3345 156.682 83.5767C156.441 84.1463 155.733 84.404 155.119 84.3064C154.513 84.1662 153.952 83.8729 153.491 83.4547C152.552 82.687 151.651 81.8722 150.794 81.0135C150.037 80.2785 149.253 79.5027 148.936 78.4964C148.804 78.017 148.73 77.5234 148.716 77.0263C148.539 74.3139 148.493 71.6016 148.444 68.8892C148.412 66.9145 148.39 64.8775 149.117 63.0413C149.009 63.3125 151.652 63.5702 151.852 63.5837C152.992 63.6841 152.775 64.1533 152.71 65.2274C152.59 67.4263 152.463 69.6179 152.327 71.8023Z" fill="#FFC1C7"/>
<path opacity="0.1" d="M129.163 42.4271C128.206 45.2534 128.594 48.3944 129.573 51.2071C129.812 51.8988 130.091 52.6203 129.98 53.3445C129.899 53.715 129.786 54.0779 129.644 54.4294C129.366 55.2796 129.316 56.1875 129.497 57.0632C129.537 57.3262 129.641 57.5756 129.798 57.7901C129.895 57.8893 129.986 57.9944 130.07 58.1047C130.441 58.6852 129.712 59.4039 129.798 60.0902C129.864 60.6598 130.441 60.9961 130.846 61.4057C131.988 62.5639 131.768 64.449 131.47 66.0493C132.856 65.9272 134.053 64.7935 135.442 64.8857C135.899 64.9233 136.335 65.092 136.698 65.3716C137.061 65.6512 137.335 66.0297 137.488 66.4616C137.436 65.1189 137.914 63.9743 138.031 62.6344C138.185 60.8903 137.057 59.328 136.511 57.668C135.716 55.2486 136.164 52.6203 135.969 50.0733C135.884 49.127 135.746 48.1861 135.556 47.2552C135.309 45.9803 134.948 44.5862 133.868 43.862C132.476 42.937 130.382 43.5934 129.163 42.4271Z" fill="black"/>
<path d="M128.892 41.8846C127.934 44.7109 128.322 47.8519 129.302 50.6646C129.54 51.3563 129.82 52.0778 129.709 52.802C129.627 53.1725 129.515 53.5354 129.372 53.8869C129.095 54.7371 129.044 55.645 129.226 56.5207C129.266 56.7837 129.369 57.0331 129.527 57.2476C129.624 57.3468 129.714 57.4519 129.798 57.5622C130.17 58.1427 129.44 58.8615 129.527 59.5477C129.592 60.1173 130.17 60.4536 130.574 60.8632C131.717 62.0214 131.497 63.9065 131.198 65.5068C132.585 65.3847 133.781 64.251 135.171 64.3432C135.627 64.3808 136.063 64.5495 136.426 64.8291C136.789 65.1087 137.064 65.4872 137.217 65.9191C137.165 64.5765 137.643 63.4318 137.759 62.0919C137.914 60.3479 136.785 58.7855 136.24 57.1255C135.445 54.7061 135.892 52.0778 135.697 49.5309C135.612 48.5845 135.475 47.6436 135.285 46.7127C135.038 45.4379 134.677 44.0437 133.597 43.3195C132.205 42.3946 130.11 43.051 128.892 41.8846Z" fill="#FF6584"/>
<path opacity="0.1" d="M155.741 42.4271C156.698 45.2534 156.31 48.3944 155.331 51.2071C155.092 51.8988 154.813 52.6203 154.924 53.3445C155.005 53.715 155.118 54.0779 155.26 54.4294C155.538 55.2796 155.588 56.1875 155.407 57.0632C155.367 57.3262 155.263 57.5756 155.106 57.7901C155.009 57.8893 154.918 57.9944 154.834 58.1047C154.463 58.6852 155.192 59.4039 155.106 60.0902C155.04 60.6598 154.463 60.9961 154.058 61.4057C152.916 62.5639 153.136 64.449 153.434 66.0493C152.048 65.9272 150.851 64.7935 149.462 64.8857C149.005 64.9233 148.569 65.092 148.206 65.3716C147.843 65.6512 147.569 66.0297 147.416 66.4616C147.468 65.1189 146.99 63.9743 146.873 62.6344C146.719 60.8903 147.847 59.328 148.393 57.668C149.188 55.2486 148.74 52.6203 148.935 50.0733C149.019 49.1316 149.155 48.1953 149.342 47.2687C149.589 45.9939 149.95 44.5997 151.03 43.8755C152.428 42.9371 154.522 43.5934 155.741 42.4271Z" fill="black"/>
<path d="M156.012 41.8846C156.97 44.7109 156.582 47.8519 155.602 50.6646C155.364 51.3563 155.084 52.0778 155.195 52.802C155.277 53.1725 155.389 53.5354 155.532 53.8869C155.809 54.7371 155.86 55.645 155.678 56.5207C155.638 56.7837 155.535 57.0331 155.377 57.2476C155.28 57.3468 155.19 57.4519 155.106 57.5622C154.734 58.1427 155.464 58.8615 155.377 59.5477C155.312 60.1173 154.734 60.4536 154.33 60.8632C153.187 62.0214 153.407 63.9065 153.706 65.5068C152.319 65.3847 151.123 64.251 149.733 64.3432C149.277 64.3808 148.841 64.5495 148.478 64.8291C148.115 65.1087 147.84 65.4872 147.687 65.9191C147.739 64.5765 147.261 63.4318 147.145 62.0919C146.99 60.3479 148.119 58.7855 148.664 57.1255C149.459 54.7061 149.012 52.0778 149.207 49.5309C149.29 48.5891 149.426 47.6528 149.614 46.7262C149.861 45.4514 150.222 44.0573 151.302 43.3331C152.699 42.3946 154.794 43.051 156.012 41.8846Z" fill="#FF6584"/>
<path d="M141.637 28.3254C146.132 28.3254 149.777 25.8967 149.777 22.9007C149.777 19.9046 146.132 17.4759 141.637 17.4759C137.141 17.4759 133.497 19.9046 133.497 22.9007C133.497 25.8967 137.141 28.3254 141.637 28.3254Z" fill="#3F3D56"/>
<path opacity="0.05" d="M134.853 51.6547C134.851 50.6929 135.214 49.7659 135.868 49.0611C136.523 48.3563 137.421 47.9261 138.381 47.8574C138.291 47.8574 138.202 47.8574 138.109 47.8574C137.102 47.8574 136.136 48.2574 135.423 48.9696C134.711 49.6817 134.311 50.6476 134.311 51.6547C134.311 52.6618 134.711 53.6277 135.423 54.3398C136.136 55.052 137.102 55.452 138.109 55.452C138.202 55.452 138.291 55.452 138.381 55.4385C137.423 55.3699 136.527 54.9417 135.873 54.2397C135.219 53.5378 134.854 52.6142 134.853 51.6547Z" fill="black"/>
<path d="M137.838 55.4493C139.487 55.4493 140.823 53.7492 140.823 51.652C140.823 49.5547 139.487 47.8546 137.838 47.8546C136.19 47.8546 134.854 49.5547 134.854 51.652C134.854 53.7492 136.19 55.4493 137.838 55.4493Z" fill="#FF6584"/>
<path opacity="0.05" d="M150.319 51.6547C150.322 50.6929 149.959 49.7659 149.304 49.0611C148.65 48.3563 147.752 47.9261 146.792 47.8574C146.884 47.8574 146.974 47.8574 147.063 47.8574C148.071 47.8574 149.037 48.2574 149.749 48.9696C150.462 49.6817 150.862 50.6476 150.862 51.6547C150.862 52.6618 150.462 53.6277 149.749 54.3398C149.037 55.052 148.071 55.452 147.063 55.452C146.974 55.452 146.884 55.452 146.792 55.4385C147.749 55.3699 148.645 54.9417 149.3 54.2397C149.954 53.5378 150.318 52.6142 150.319 51.6547Z" fill="black"/>
<path d="M147.335 55.4493C148.983 55.4493 150.319 53.7492 150.319 51.652C150.319 49.5547 148.983 47.8546 147.335 47.8546C145.686 47.8546 144.35 49.5547 144.35 51.652C144.35 53.7492 145.686 55.4493 147.335 55.4493Z" fill="#FF6584"/>
<path opacity="0.1" d="M141.637 27.7857C137.279 27.7857 133.719 25.5018 133.497 22.6321C133.497 22.7216 133.497 22.8112 133.497 22.9034C133.497 25.887 137.143 28.3282 141.637 28.3282C146.13 28.3282 149.777 25.887 149.777 22.9034C149.777 22.8112 149.777 22.7216 149.777 22.6321C149.557 25.5018 145.997 27.7857 141.637 27.7857Z" fill="black"/>
<path d="M93.6077 9.25737L89.3965 11.9291L91.9525 7.28004C91.2288 6.70278 90.3332 6.38306 89.4074 6.3714H89.3396C89.047 6.37667 88.7547 6.35579 88.4659 6.30901L87.0386 7.21223L87.6491 6.10015C86.6375 5.74638 85.7637 5.08179 85.1529 4.20148L82.5996 5.82892L84.2222 2.8914C82.7298 1.10123 80.7165 0 78.4997 0C75.8434 0 73.4773 1.58132 71.9497 4.04146C71.498 4.78015 70.8578 5.38547 70.095 5.79537C69.3321 6.20527 68.4739 6.40501 67.6083 6.37411H67.4673C64.5341 6.37411 62.1572 9.69949 62.1572 13.7979C62.1572 17.8963 64.5341 21.2217 67.4673 21.2217C68.1114 21.2193 68.7454 21.0611 69.315 20.7606C71.228 19.7652 73.7405 19.7462 75.743 20.6331C76.6028 21.0167 77.5338 21.2149 78.4753 21.2149C79.4169 21.2149 80.3478 21.0167 81.2077 20.6331C82.2159 20.1963 83.3063 19.9811 84.405 20.0022C85.5037 20.0232 86.5851 20.28 87.5759 20.7552C88.1414 21.0502 88.7695 21.2055 89.4074 21.2081C92.3405 21.2081 94.7174 17.8855 94.7174 13.7843C94.7322 12.2063 94.3506 10.6498 93.6077 9.25737Z" fill="#F2F2F2"/>
<path opacity="0.03" d="M85.6711 20.1205C84.1387 19.8299 82.5545 20.0027 81.1208 20.6168C80.2615 21.0003 79.3309 21.1986 78.3898 21.1986C77.4487 21.1986 76.5182 21.0003 75.6589 20.6168C74.6423 20.1711 73.541 19.9515 72.4312 19.973C71.3213 19.9945 70.2294 20.2568 69.2309 20.7416C68.6619 21.0442 68.0276 21.2034 67.3831 21.2054C64.7756 21.2054 62.6104 18.5826 62.1572 15.1216C62.6779 14.7415 63.1202 14.2644 63.4596 13.7165C64.9873 11.2564 67.3533 9.6778 70.0097 9.6778C72.666 9.6778 75.0049 11.2374 76.5217 13.6731C76.9775 14.408 77.6153 15.0129 78.3735 15.4292C79.1317 15.8454 79.9845 16.059 80.8495 16.0492H80.9173C83.0012 16.0356 84.7974 17.6983 85.6711 20.1205Z" fill="black"/>
<path d="M237.41 55.7992L235.31 57.1309L236.585 54.8146C236.223 54.5258 235.775 54.3663 235.312 54.3616H235.28C235.134 54.363 234.987 54.3521 234.843 54.329L234.132 54.7793L234.436 54.2368C233.932 54.0595 233.496 53.7284 233.191 53.2902L231.918 54.1039L232.732 52.6419C232.393 52.2015 231.96 51.8424 231.464 51.5909C230.968 51.3393 230.422 51.2017 229.867 51.1881C228.543 51.1881 227.362 51.9774 226.611 53.2034C226.384 53.5723 226.064 53.8744 225.683 54.0788C225.301 54.2833 224.872 54.3828 224.44 54.367H224.369C222.907 54.367 221.721 56.0243 221.721 58.0694C221.721 60.1146 222.907 61.7664 224.369 61.7664C224.691 61.7654 225.008 61.6863 225.292 61.5359C225.79 61.294 226.335 61.1632 226.889 61.1524C227.442 61.1417 227.992 61.2512 228.499 61.4735C228.926 61.6633 229.388 61.7613 229.856 61.7613C230.323 61.7613 230.785 61.6633 231.213 61.4735C231.716 61.2553 232.26 61.148 232.808 61.1587C233.356 61.1695 233.896 61.2981 234.39 61.5359C234.671 61.683 234.984 61.7602 235.302 61.761C236.764 61.761 237.95 60.1037 237.95 58.0586C237.961 57.2723 237.775 56.4957 237.41 55.7992Z" fill="#F2F2F2"/>
<path opacity="0.03" d="M233.457 61.224C232.692 61.0789 231.901 61.1648 231.186 61.4708C230.759 61.6607 230.296 61.7587 229.829 61.7583C229.361 61.7559 228.899 61.6562 228.472 61.4654C227.966 61.2417 227.417 61.1314 226.863 61.1422C226.31 61.153 225.765 61.2846 225.268 61.5278C224.983 61.6779 224.667 61.757 224.345 61.7583C223.046 61.7583 221.963 60.4482 221.738 58.7232C221.998 58.5338 222.219 58.2962 222.389 58.0234C223.149 56.7947 224.329 56.0081 225.645 56.0081C226.961 56.0081 228.136 56.7865 228.901 58.0017C229.129 58.37 229.45 58.6728 229.83 58.8805C230.21 59.0883 230.638 59.1939 231.072 59.187H231.107C232.119 59.187 233.014 60.0143 233.457 61.224Z" fill="black"/>
<path d="M194.311 24.878L197.686 27.0181L195.638 23.294C196.218 22.8305 196.936 22.5737 197.678 22.5643H197.733C197.967 22.5667 198.201 22.5486 198.433 22.5101L199.575 23.237L199.087 22.3446C199.899 22.0574 200.599 21.5199 201.086 20.8094L203.132 22.1059L201.841 19.757C203.037 18.3194 204.649 17.4379 206.426 17.4379C208.553 17.4379 210.45 18.7046 211.674 20.6765C212.036 21.266 212.547 21.7493 213.156 22.0775C213.765 22.4057 214.45 22.5671 215.141 22.5453H215.258C217.608 22.5453 219.51 25.2089 219.51 28.4936C219.51 31.7783 217.611 34.4419 215.258 34.4419C214.741 34.4405 214.232 34.3139 213.774 34.073C212.974 33.6828 212.098 33.4715 211.208 33.4537C210.317 33.4359 209.434 33.6121 208.619 33.9699C207.93 34.2775 207.183 34.4365 206.429 34.4365C205.674 34.4365 204.928 34.2775 204.239 33.9699C203.431 33.6196 202.557 33.4472 201.676 33.4645C200.796 33.4818 199.929 33.6884 199.135 34.0703C198.683 34.3057 198.18 34.4294 197.67 34.431C195.32 34.431 193.416 31.7675 193.416 28.4828C193.409 27.2254 193.717 25.9863 194.311 24.878Z" fill="#F2F2F2"/>
<path opacity="0.03" d="M200.671 33.5576C201.898 33.3238 203.167 33.4617 204.315 33.9536C205.004 34.2612 205.75 34.4202 206.505 34.4202C207.259 34.4202 208.005 34.2612 208.694 33.9536C209.51 33.5961 210.393 33.4198 211.283 33.4372C212.173 33.4545 213.049 33.665 213.85 34.054C214.307 34.2963 214.816 34.4239 215.334 34.4256C217.42 34.4256 219.157 32.3235 219.518 29.5433C219.102 29.2378 218.748 28.8557 218.476 28.4176C217.252 26.4457 215.356 25.1818 213.226 25.1818C211.096 25.1818 209.226 26.4322 208.002 28.3824C207.636 28.9701 207.125 29.4535 206.518 29.7861C205.91 30.1187 205.227 30.2891 204.535 30.281H204.48C202.809 30.3027 201.371 31.6264 200.671 33.5576Z" fill="black"/>
<path d="M65.5001 177.36C64.3795 175.288 65.6493 172.749 67.1091 170.902C68.5689 169.055 70.3516 167.129 70.3136 164.775C70.2593 161.39 66.6641 159.391 63.8015 157.598C61.6728 156.269 59.7091 154.693 57.9516 152.903C57.2145 152.213 56.6054 151.399 56.1526 150.497C55.5584 149.173 55.5747 147.668 55.6099 146.217C55.7348 141.389 55.9735 136.564 56.3263 131.743" stroke="#3F3D56" stroke-width="4" stroke-miterlimit="10"/>
<path d="M50.8698 131.475C50.9077 130.588 51.1694 129.725 51.6305 128.966C52.0916 128.207 52.7372 127.577 53.5072 127.135L54.6875 129.47L54.6468 126.652C55.2106 126.485 55.7986 126.414 56.386 126.443C57.4292 126.491 58.4349 126.847 59.2757 127.466C60.1166 128.085 60.7549 128.94 61.11 129.921C61.4651 130.903 61.521 131.968 61.2706 132.982C61.0202 133.995 60.4749 134.912 59.7034 135.615C58.932 136.319 57.9691 136.778 56.9367 136.935C55.9042 137.091 54.8484 136.938 53.9029 136.495C52.9573 136.052 52.1645 135.338 51.6246 134.445C51.0847 133.551 50.822 132.518 50.8698 131.475Z" fill="#57B894"/>
<path d="M60.2878 167.194C60.8419 168.271 61.7496 169.125 62.8586 169.612C63.9676 170.099 65.2105 170.19 66.3788 169.87C67.5472 169.55 68.5699 168.838 69.2754 167.854C69.9809 166.87 70.3264 165.673 70.2539 164.464C70.1813 163.255 69.6952 162.108 68.877 161.215C68.0588 160.322 66.9583 159.737 65.7601 159.559C64.5618 159.381 63.3388 159.62 62.296 160.236C61.2532 160.852 60.4541 161.808 60.0327 162.944L63.3294 165.626L59.7017 164.786C59.6999 165.624 59.901 166.45 60.2878 167.194Z" fill="#57B894"/>
<path d="M62.8956 156.947C64.1921 157.009 65.4662 156.592 66.4745 155.775C67.4828 154.957 68.1546 153.798 68.3617 152.517C68.5687 151.236 68.2966 149.923 67.5971 148.83C66.8976 147.737 65.8199 146.94 64.5697 146.591L64.5969 148.761L63.4003 146.393H63.3867C62.6856 146.346 61.9821 146.44 61.3176 146.668C60.653 146.896 60.0407 147.255 59.5165 147.723C58.9923 148.191 58.5667 148.758 58.2647 149.393C57.9627 150.027 57.7903 150.715 57.7577 151.417C57.725 152.118 57.8327 152.82 58.0745 153.479C58.3162 154.139 58.6872 154.743 59.1657 155.258C59.6442 155.772 60.2205 156.186 60.861 156.475C61.5014 156.764 62.1931 156.923 62.8956 156.941V156.947Z" fill="#57B894"/>
<path d="M50.0775 148.419C50.8938 148.457 51.7078 148.304 52.4552 147.974C53.2027 147.644 53.8632 147.145 54.3849 146.516C54.9065 145.887 55.2751 145.146 55.4614 144.35C55.6478 143.555 55.647 142.727 55.459 141.932C55.2709 141.137 54.9009 140.396 54.378 139.769C53.855 139.141 53.1934 138.643 52.4453 138.314C51.6972 137.986 50.8829 137.835 50.0667 137.874C49.2504 137.913 48.4544 138.142 47.7413 138.541L48.6747 141.098L46.7564 139.254C46.2463 139.72 45.833 140.281 45.5402 140.907C45.2473 141.532 45.0806 142.209 45.0497 142.899C45.0247 143.388 45.0695 143.877 45.1826 144.353C45.4448 145.471 46.0646 146.473 46.948 147.207C47.8314 147.94 48.9301 148.366 50.0775 148.419Z" fill="#57B894"/>
<path opacity="0.1" d="M51.5808 132.874C52.7991 133.01 53.9849 133.387 55.2086 133.463C56.4323 133.539 57.7727 133.246 58.546 132.297C58.9638 131.784 59.1728 131.136 59.5255 130.58C59.8585 130.059 60.3153 129.628 60.8551 129.327C61.1936 129.995 61.3857 130.729 61.4185 131.478C61.4514 132.227 61.3244 132.974 61.0458 133.67C60.7672 134.366 60.3435 134.995 59.8029 135.514C59.2623 136.034 58.6172 136.432 57.9105 136.683C57.2038 136.934 56.4518 137.032 55.7045 136.969C54.9572 136.907 54.2317 136.686 53.5764 136.322C52.9211 135.957 52.3509 135.457 51.9039 134.856C51.4569 134.254 51.1433 133.563 50.9839 132.831C51.182 132.831 51.3909 132.853 51.5808 132.874Z" fill="black"/>
<path opacity="0.1" d="M50.0776 148.419C50.9878 148.461 51.8934 148.267 52.7065 147.856C53.5196 147.445 54.2125 146.831 54.718 146.073C55.2235 145.316 55.5243 144.44 55.5912 143.532C55.6582 142.623 55.489 141.713 55.1 140.889C54.6797 141.171 54.3184 141.533 54.0364 141.953C53.6619 142.52 53.434 143.176 52.9918 143.697C52.1777 144.662 50.7641 144.98 49.4888 144.92C48.2135 144.86 46.9844 144.502 45.7145 144.378C45.5409 144.361 45.3618 144.35 45.1719 144.345C45.433 145.466 46.0538 146.471 46.9395 147.207C47.8252 147.942 48.9273 148.368 50.0776 148.419Z" fill="black"/>
<path opacity="0.1" d="M62.8954 156.947C63.7966 156.989 64.6936 156.8 65.5008 156.397C66.3081 155.994 66.9986 155.392 67.5067 154.646C68.0147 153.901 68.3232 153.038 68.4028 152.14C68.4823 151.241 68.3303 150.338 67.9612 149.515C67.5249 149.805 67.1459 150.172 66.8433 150.6C66.4336 151.18 66.1786 151.845 65.6983 152.379C64.8056 153.372 63.3105 153.735 61.9593 153.689C60.6515 153.662 59.3925 153.339 58.0928 153.242C58.4159 154.277 59.0502 155.189 59.9094 155.852C60.7686 156.514 61.8112 156.897 62.8954 156.947Z" fill="black"/>
<path opacity="0.1" d="M60.2881 167.194C60.9062 168.395 61.961 169.313 63.2357 169.76C64.5103 170.207 65.9078 170.148 67.1406 169.596C68.3734 169.045 69.3478 168.042 69.8634 166.794C70.379 165.546 70.3965 164.147 69.9123 162.887C69.4776 163.173 69.0872 163.521 68.7537 163.92C68.2518 164.533 67.9207 165.225 67.3401 165.795C66.2547 166.855 64.5182 167.292 62.9662 167.333C62.0715 167.338 61.1773 167.292 60.2881 167.194Z" fill="black"/>
<path d="M221.925 175.318C221.111 173.788 222.036 171.911 223.116 170.547C224.196 169.182 225.509 167.761 225.479 166.022C225.441 163.522 222.785 162.046 220.666 160.72C219.091 159.736 217.64 158.569 216.341 157.242C215.797 156.731 215.347 156.129 215.011 155.463C214.575 154.487 214.585 153.375 214.613 152.303C214.705 148.737 214.886 145.173 215.155 141.611" stroke="#3F3D56" stroke-width="4" stroke-miterlimit="10"/>
<path d="M211.109 141.418C211.141 140.765 211.335 140.131 211.676 139.572C212.016 139.014 212.491 138.55 213.058 138.223L213.931 139.951L213.904 137.86C214.321 137.738 214.756 137.686 215.19 137.705C215.962 137.739 216.706 138.001 217.328 138.458C217.95 138.915 218.423 139.547 218.686 140.272C218.949 140.998 218.991 141.786 218.806 142.535C218.621 143.284 218.218 143.962 217.648 144.483C217.078 145.003 216.366 145.342 215.602 145.458C214.839 145.574 214.058 145.46 213.359 145.132C212.66 144.804 212.074 144.276 211.676 143.615C211.277 142.954 211.084 142.189 211.12 141.418H211.109Z" fill="#57B894"/>
<path d="M218.067 167.821C218.476 168.616 219.147 169.246 219.966 169.605C220.785 169.965 221.703 170.032 222.566 169.795C223.428 169.558 224.183 169.032 224.704 168.305C225.224 167.578 225.479 166.693 225.425 165.801C225.371 164.908 225.012 164.061 224.407 163.402C223.802 162.743 222.99 162.312 222.105 162.181C221.22 162.05 220.317 162.227 219.547 162.682C218.777 163.138 218.187 163.844 217.877 164.683L220.319 166.665L217.641 166.044C217.638 166.662 217.784 167.271 218.067 167.821Z" fill="#57B894"/>
<path d="M219.993 160.226C221.025 160.272 222.033 159.906 222.796 159.21C223.559 158.514 224.015 157.544 224.063 156.513C224.093 155.903 223.978 155.295 223.727 154.739C223.494 154.216 223.149 153.751 222.716 153.376C222.283 153.001 221.773 152.725 221.222 152.569L221.241 154.177L220.359 152.428C219.325 152.379 218.314 152.744 217.548 153.44C216.782 154.137 216.324 155.11 216.276 156.144C216.227 157.178 216.592 158.189 217.289 158.955C217.986 159.72 218.959 160.177 219.993 160.226Z" fill="#57B894"/>
<path d="M210.523 153.939C211.127 153.968 211.729 153.856 212.283 153.613C212.836 153.37 213.325 153.001 213.712 152.537C214.098 152.072 214.371 151.524 214.51 150.936C214.648 150.347 214.648 149.735 214.509 149.147C214.37 148.559 214.096 148.011 213.709 147.547C213.322 147.082 212.833 146.714 212.279 146.471C211.726 146.228 211.123 146.117 210.52 146.147C209.916 146.177 209.327 146.346 208.8 146.642L209.489 148.541L208.07 147.185C207.694 147.529 207.388 147.943 207.172 148.405C206.956 148.867 206.834 149.366 206.811 149.876C206.791 150.24 206.824 150.605 206.909 150.961C207.107 151.781 207.567 152.515 208.219 153.053C208.871 153.59 209.679 153.901 210.523 153.939Z" fill="#57B894"/>
<path opacity="0.1" d="M211.636 142.457C212.534 142.558 213.41 142.837 214.314 142.894C215.217 142.951 216.213 142.731 216.78 142.031C217.09 141.652 217.244 141.174 217.502 140.762C217.749 140.378 218.086 140.06 218.484 139.837C218.794 140.445 218.938 141.124 218.903 141.805C218.868 142.487 218.654 143.147 218.284 143.72C217.913 144.293 217.398 144.759 216.791 145.071C216.184 145.383 215.506 145.53 214.824 145.498C213.967 145.454 213.149 145.129 212.495 144.573C211.841 144.018 211.389 143.263 211.207 142.425C211.34 142.43 211.478 142.441 211.636 142.457Z" fill="black"/>
<path opacity="0.1" d="M210.523 153.939C211.195 153.97 211.864 153.826 212.464 153.523C213.065 153.219 213.576 152.766 213.95 152.206C214.323 151.647 214.546 151 214.596 150.33C214.646 149.659 214.522 148.987 214.235 148.378C213.925 148.587 213.658 148.853 213.448 149.162C213.177 149.583 213.003 150.065 212.678 150.451C212.07 151.164 211.031 151.4 210.089 151.357C209.148 151.313 208.241 151.045 207.303 150.961C207.172 150.947 207.031 150.939 206.909 150.936C207.103 151.761 207.561 152.501 208.213 153.043C208.865 153.585 209.676 153.899 210.523 153.939Z" fill="black"/>
<path opacity="0.1" d="M219.993 160.226C221.025 160.272 222.033 159.906 222.796 159.21C223.559 158.514 224.014 157.544 224.063 156.513C224.093 155.903 223.978 155.295 223.726 154.739C223.409 154.951 223.133 155.22 222.912 155.531C222.609 155.957 222.421 156.45 222.066 156.844C221.407 157.576 220.302 157.836 219.304 157.812C218.305 157.788 217.404 157.554 216.449 157.481C216.685 158.248 217.152 158.923 217.787 159.414C218.421 159.905 219.191 160.189 219.993 160.226Z" fill="black"/>
<path opacity="0.1" d="M218.066 167.821C218.525 168.704 219.304 169.378 220.244 169.706C221.184 170.034 222.213 169.99 223.122 169.584C224.031 169.178 224.75 168.44 225.132 167.521C225.514 166.602 225.531 165.572 225.178 164.642C224.856 164.852 224.567 165.109 224.321 165.404C223.949 165.857 223.705 166.367 223.276 166.79C222.478 167.571 221.192 167.894 220.047 167.924C219.385 167.929 218.724 167.895 218.066 167.821Z" fill="black"/>
<path d="M254.938 179.259C256.059 177.187 254.789 174.648 253.329 172.801C251.869 170.954 250.073 169.028 250.125 166.673C250.179 163.288 253.774 161.289 256.637 159.496C258.766 158.168 260.731 156.592 262.489 154.801C263.226 154.112 263.836 153.297 264.288 152.395C264.883 151.072 264.866 149.566 264.831 148.115C264.717 143.28 264.479 138.456 264.117 133.645" stroke="#3F3D56" stroke-width="4" stroke-miterlimit="10"/>
<path d="M269.579 133.373C269.54 132.487 269.278 131.624 268.817 130.865C268.356 130.107 267.711 129.477 266.942 129.034L265.759 131.372L265.797 128.543C265.233 128.376 264.645 128.305 264.057 128.334C263.015 128.383 262.01 128.739 261.17 129.358C260.33 129.978 259.693 130.832 259.338 131.813C258.983 132.795 258.928 133.859 259.178 134.872C259.428 135.885 259.973 136.801 260.744 137.504C261.515 138.208 262.477 138.667 263.509 138.824C264.54 138.982 265.596 138.83 266.541 138.388C267.487 137.945 268.28 137.233 268.82 136.341C269.361 135.448 269.625 134.416 269.579 133.373Z" fill="#57B894"/>
<path d="M260.161 169.093C259.607 170.17 258.699 171.023 257.59 171.511C256.481 171.998 255.238 172.089 254.07 171.769C252.902 171.449 251.879 170.737 251.173 169.753C250.468 168.768 250.122 167.571 250.195 166.362C250.268 165.154 250.754 164.006 251.572 163.113C252.39 162.22 253.491 161.636 254.689 161.458C255.887 161.279 257.11 161.519 258.153 162.135C259.196 162.751 259.995 163.707 260.416 164.843L257.119 167.525L260.747 166.684C260.749 167.523 260.548 168.349 260.161 169.093Z" fill="#57B894"/>
<path d="M257.554 158.845C256.257 158.908 254.983 158.49 253.975 157.673C252.967 156.856 252.295 155.696 252.088 154.415C251.881 153.134 252.153 151.822 252.852 150.729C253.552 149.636 254.629 148.839 255.88 148.49L255.852 150.659L257.063 148.292C257.764 148.245 258.467 148.338 259.132 148.567C259.796 148.795 260.409 149.154 260.933 149.621C261.457 150.089 261.883 150.657 262.185 151.291C262.487 151.925 262.659 152.614 262.692 153.315C262.724 154.017 262.617 154.718 262.375 155.378C262.133 156.037 261.762 156.642 261.284 157.157C260.805 157.671 260.229 158.085 259.588 158.374C258.948 158.663 258.256 158.821 257.554 158.84V158.845Z" fill="#57B894"/>
<path d="M270.372 150.318C269.555 150.355 268.741 150.203 267.994 149.873C267.247 149.542 266.586 149.043 266.064 148.414C265.543 147.785 265.174 147.044 264.988 146.249C264.801 145.453 264.802 144.626 264.99 143.831C265.178 143.036 265.548 142.295 266.071 141.667C266.594 141.04 267.256 140.542 268.004 140.213C268.752 139.884 269.566 139.734 270.383 139.773C271.199 139.812 271.995 140.04 272.708 140.439L271.775 142.997L273.693 141.153C274.462 141.857 275.006 142.773 275.254 143.786C275.503 144.799 275.447 145.862 275.091 146.843C274.736 147.823 274.098 148.677 273.258 149.295C272.418 149.913 271.414 150.269 270.372 150.318Z" fill="#57B894"/>
<path opacity="0.1" d="M268.868 134.773C267.65 134.909 266.464 135.286 265.24 135.362C264.017 135.438 262.676 135.145 261.903 134.195C261.485 133.683 261.276 133.034 260.924 132.478C260.59 131.957 260.134 131.527 259.594 131.225C259.255 131.894 259.063 132.627 259.03 133.376C258.998 134.125 259.125 134.873 259.403 135.569C259.682 136.265 260.106 136.893 260.646 137.413C261.187 137.932 261.832 138.331 262.538 138.582C263.245 138.833 263.997 138.93 264.745 138.868C265.492 138.806 266.217 138.585 266.873 138.22C267.528 137.856 268.098 137.356 268.545 136.754C268.992 136.152 269.306 135.462 269.465 134.73C269.272 134.73 269.066 134.751 268.868 134.773Z" fill="black"/>
<path opacity="0.1" d="M270.372 150.318C269.461 150.36 268.556 150.166 267.743 149.755C266.93 149.344 266.237 148.73 265.731 147.972C265.226 147.214 264.925 146.339 264.858 145.43C264.791 144.522 264.96 143.612 265.349 142.788C265.77 143.07 266.131 143.431 266.413 143.851C266.787 144.418 267.015 145.075 267.457 145.595C268.272 146.561 269.685 146.878 270.96 146.819C272.236 146.759 273.465 146.401 274.735 146.276C274.908 146.26 275.087 146.249 275.277 146.244C275.016 147.365 274.395 148.37 273.51 149.105C272.624 149.841 271.522 150.267 270.372 150.318Z" fill="black"/>
<path opacity="0.1" d="M257.554 158.845C256.653 158.888 255.756 158.699 254.948 158.296C254.141 157.893 253.451 157.29 252.943 156.545C252.435 155.8 252.126 154.937 252.046 154.039C251.967 153.14 252.119 152.236 252.488 151.414C252.924 151.703 253.303 152.071 253.606 152.498C254.016 153.079 254.271 153.743 254.751 154.278C255.644 155.271 257.139 155.634 258.49 155.588C259.798 155.561 261.057 155.238 262.356 155.14C262.033 156.176 261.399 157.087 260.54 157.75C259.681 158.413 258.638 158.796 257.554 158.845Z" fill="black"/>
<path opacity="0.1" d="M260.161 169.093C259.529 170.267 258.475 171.158 257.212 171.587C255.949 172.015 254.57 171.951 253.353 171.405C252.136 170.86 251.17 169.874 250.65 168.646C250.131 167.418 250.095 166.039 250.551 164.786C250.985 165.071 251.376 165.42 251.709 165.819C252.211 166.432 252.542 167.124 253.123 167.693C254.208 168.754 255.945 169.19 257.497 169.231C258.387 169.236 259.277 169.19 260.161 169.093Z" fill="black"/>
<path d="M57.314 175.79C57.314 175.79 61.479 175.66 62.7407 174.767C64.0024 173.875 69.1523 172.806 69.4643 174.225C69.7764 175.643 75.7268 181.356 71.0218 181.394C66.3169 181.431 60.0897 180.661 58.8362 179.899C57.5826 179.137 57.314 175.79 57.314 175.79Z" fill="#656380"/>
<path opacity="0.2" d="M71.1005 180.908C66.3955 180.946 60.1684 180.176 58.9148 179.413C57.9597 178.833 57.5799 176.747 57.4523 175.784H57.314C57.314 175.784 57.5853 179.142 58.8307 179.907C60.0762 180.672 66.3114 181.44 71.0164 181.402C72.373 181.402 72.8424 180.908 72.818 180.195C72.6281 180.631 72.1126 180.9 71.1005 180.908Z" fill="black"/>
<path d="M216.905 175.274C216.905 175.274 219.347 175.201 220.072 174.678C220.796 174.154 223.813 173.533 223.995 174.371C224.177 175.209 227.65 178.532 224.904 178.554C222.158 178.575 218.522 178.128 217.79 177.68C217.057 177.233 216.905 175.274 216.905 175.274Z" fill="#656380"/>
<path opacity="0.2" d="M224.942 178.263C222.196 178.285 218.56 177.835 217.828 177.39C217.285 177.051 217.049 175.833 216.976 175.272H216.905C216.905 175.272 217.06 177.233 217.79 177.678C218.52 178.122 222.158 178.575 224.904 178.551C225.697 178.551 225.971 178.263 225.954 177.846C225.835 178.101 225.531 178.258 224.942 178.263Z" fill="black"/>
<path d="M246.977 176.875C246.977 176.875 251.142 176.744 252.404 175.852C253.665 174.96 258.815 173.891 259.127 175.31C259.439 176.728 265.39 182.44 260.685 182.478C255.98 182.516 249.753 181.746 248.499 180.984C247.246 180.222 246.977 176.875 246.977 176.875Z" fill="#656380"/>
<path opacity="0.2" d="M260.764 181.993C256.059 182.031 249.831 181.261 248.578 180.498C247.623 179.918 247.243 177.832 247.115 176.869H246.977C246.977 176.869 247.248 180.227 248.494 180.992C249.739 181.757 255.975 182.525 260.679 182.487C262.036 182.487 262.506 181.993 262.481 181.28C262.291 181.716 261.776 181.985 260.764 181.993Z" fill="black"/>
</g>
<defs>
<clipPath id="clip0">
<rect width="290" height="187" fill="white"/>
</clipPath>
</defs>
</svg>
