<svg width="257" height="189" viewBox="0 0 257 189" fill="none" xmlns="http://www.w3.org/2000/svg">
<path d="M238.568 188.261C235.399 188.13 232.512 186.852 231.206 184.874C231.145 184.781 231.088 184.687 231.034 184.592C230.557 183.749 230.408 182.78 230.929 181.949C231.451 181.119 232.754 180.488 234.061 180.619C235.367 180.75 236.389 181.792 235.848 182.616C235.729 180.95 235.628 179.199 236.974 177.749C237.714 176.991 238.68 176.492 239.728 176.327C242.439 175.851 244.238 177.382 244.599 178.926C244.865 180.067 244.498 181.226 244.132 182.355C245.259 181.024 247.94 180.432 249.995 181.06C252.049 181.689 253.188 183.45 252.486 184.914C251.66 186.636 248.904 187.526 246.345 187.996C244.231 188.385 241.062 188.364 238.568 188.261Z" fill="#F2F2F2"/>
<path d="M18.6993 188.261C21.8681 188.13 24.7552 186.852 26.061 184.874C26.1222 184.781 26.1797 184.687 26.2336 184.592C26.7104 183.749 26.8594 182.78 26.338 181.949C25.8166 181.119 24.5132 180.488 23.2065 180.619C21.8998 180.75 20.8774 181.792 21.4188 182.616C21.5385 180.95 21.6387 179.199 20.2934 177.749C19.5529 176.991 18.5869 176.492 17.5395 176.327C14.8286 175.851 13.029 177.382 12.6685 178.926C12.4025 180.067 12.7699 181.226 13.1358 182.355C12.0083 181.024 9.32703 180.432 7.2725 181.06C5.21797 181.689 4.07942 183.45 4.78121 184.914C5.60775 186.636 8.36318 187.526 10.9227 187.996C13.0368 188.385 16.2056 188.364 18.6993 188.261Z" fill="#F2F2F2"/>
<path d="M257 187.971H0V189H257V187.971Z" fill="#EF81CA"/>
<path d="M103.625 32.3259C103.615 32.5329 103.621 32.7404 103.643 32.9464L89.4003 44.883L85.1524 43.3472L81.9937 49.4455L91.2801 53.8595L106.851 36.4104C107.638 36.5529 108.449 36.4529 109.177 36.1238C109.904 35.7946 110.515 35.252 110.926 34.5681C111.338 33.8841 111.531 33.0912 111.481 32.2949C111.43 31.4985 111.138 30.7364 110.643 30.1099C110.148 29.4834 109.474 29.0222 108.71 28.7876C107.946 28.5531 107.129 28.5563 106.367 28.7968C105.605 29.0373 104.935 29.5038 104.445 30.1341C103.955 30.7645 103.669 31.5289 103.624 32.3256L103.625 32.3259Z" fill="#A0616A"/>
<path d="M84.5221 52.371L70.768 47.4121C70.1428 47.1867 69.5681 46.8406 69.0768 46.3935C68.5856 45.9464 68.1873 45.407 67.9048 44.8061C67.6222 44.2053 67.461 43.5548 67.4302 42.8917C67.3994 42.2286 67.4997 41.566 67.7254 40.9416C67.9511 40.3173 68.2977 39.7434 68.7454 39.2528C69.1932 38.7622 69.7333 38.3645 70.335 38.0823C71.5501 37.5125 72.9422 37.4481 74.2049 37.9032L87.959 42.8622C88.3798 43.0138 88.7231 43.3262 88.9133 43.7305C89.1035 44.1349 89.1251 44.5982 88.9732 45.0184L88.9731 45.0187L86.682 51.358C86.5295 51.7779 86.2165 52.1203 85.8117 52.3102C85.4068 52.5 84.9431 52.5218 84.5221 52.3707L84.5221 52.371Z" fill="#EF81CA"/>
<path d="M74.449 100.668H79.0457L81.2324 82.9624H74.4484L74.449 100.668Z" fill="#A0616A"/>
<path d="M87.9103 104.931L73.4636 104.931L73.4633 99.3574L82.3282 99.3569C83.0612 99.3569 83.787 99.501 84.4643 99.7811C85.1415 100.061 85.7568 100.472 86.2752 100.989C86.7935 101.507 87.2047 102.121 87.4853 102.798C87.7658 103.474 87.9102 104.199 87.9103 104.931Z" fill="#2F2E41"/>
<path d="M63.0887 94.738L66.8489 97.3782L78.836 84.1507L73.2865 80.2544L63.0887 94.738Z" fill="#A0616A"/>
<path d="M71.1925 105.051L59.3749 96.7559L62.5844 92.1964L69.8361 97.2868C70.4357 97.7077 70.9465 98.2424 71.3391 98.8604C71.7318 99.4784 71.9987 100.168 72.1247 100.889C72.2506 101.61 72.2331 102.348 72.0732 103.063C71.9132 103.777 71.614 104.453 71.1925 105.051V105.051Z" fill="#2F2E41"/>
<path d="M84.5072 68.774C84.5072 68.774 95.9785 67.4225 93.9195 74.8558C91.8605 82.2891 68.9178 88.7091 68.9178 88.7091L84.5072 68.774Z" fill="#A0616A"/>
<path d="M76.6115 30.844C81.6975 30.844 85.8204 26.7267 85.8204 21.6479C85.8204 16.569 81.6975 12.4518 76.6115 12.4518C71.5256 12.4518 67.4026 16.569 67.4026 21.6479C67.4026 26.7267 71.5256 30.844 76.6115 30.844Z" fill="#A0616A"/>
<path d="M47.2435 87.187C42.0033 81.093 40.1699 71.7427 48.5262 63.965C50.59 62.0913 52.9269 60.5416 55.4568 59.3688L62.1912 40.5599C62.8907 38.5955 64.1735 36.891 65.8683 35.6736C67.5631 34.4562 69.5894 33.7839 71.6768 33.7464C73.7033 33.6591 75.7072 34.2004 77.4133 35.2961C79.1193 36.3918 80.4438 37.988 81.2049 39.8656C82.0274 41.7758 82.1215 43.9205 81.4694 45.8952C79.4644 52.1296 76.8315 58.1449 73.6111 63.8488L73.9593 66.6309L90.9828 68.1418L90.824 68.3997C90.7411 68.5341 82.4096 81.2107 71.751 89.625C68.1065 92.5017 64.3382 93.6943 60.7813 93.694C55.388 93.6952 50.4826 90.9531 47.2435 87.187Z" fill="#EF81CA"/>
<path d="M45.6371 24.5333C47.2662 22.5945 47.965 20.0589 48.5274 17.5908C49.4168 13.6861 50.1051 9.6485 52.0813 6.16382C54.0574 2.67914 57.6888 -0.208083 61.6928 0.0117822C65.6742 0.230452 68.8927 3.42895 70.6011 7.06807C71.0147 6.90775 71.4574 6.83594 71.9006 6.8573C72.3438 6.87865 72.7775 6.99269 73.1737 7.19204C74.405 7.86538 74.8654 9.77934 73.8405 10.7377C74.9185 10.2251 76.0925 9.94484 77.2861 9.91514C78.4797 9.88544 79.6662 10.107 80.7685 10.5653C82.1858 11.1679 83.4093 12.1492 84.3043 13.4013C85.1992 14.6534 85.731 16.1278 85.8411 17.6622C85.884 18.285 85.7984 18.9099 85.5896 19.4982C85.3808 20.0866 85.0532 20.6259 84.6271 21.0827C82.8604 22.8989 80.3613 22.2725 78.1393 21.8098C76.0405 21.3727 73.4843 21.2547 72.3017 23.2517C71.8358 24.0838 71.7054 25.0621 71.9371 25.9869C72.39 27.9803 73.8681 29.3688 75.3019 30.6979L75.5364 31.1328C70.4737 32.1186 64.9466 28.6659 63.6172 23.6888C62.2878 18.7117 65.3642 12.9698 70.2469 11.3094C69.9218 11.3199 69.5999 11.2434 69.3143 11.0878C69.0288 10.9323 68.7901 10.7034 68.6229 10.4248C68.4558 10.1462 68.3662 9.82803 68.3635 9.50326C68.3608 9.17848 68.4451 8.85888 68.6076 8.57755C67.2565 7.82119 65.7273 7.43966 64.1787 7.47255C61.6566 7.63775 59.4741 9.43042 58.1614 11.5875C56.8488 13.7447 56.2544 16.2477 55.6525 18.6994C55.0506 21.1511 54.3991 23.649 52.9955 25.7494C52.0234 27.2033 50.7245 28.4102 49.2024 29.2738C47.6803 30.1374 45.9772 30.6338 44.2288 30.7233C42.4805 30.8129 40.7354 30.4932 39.1328 29.7896C37.5302 29.0861 36.1145 28.0182 34.9986 26.6713C36.7621 27.5252 38.7572 27.7785 40.6786 27.3924C42.6 27.0063 44.3417 26.002 45.6371 24.5333Z" fill="#2F2E41"/>
<path d="M116.676 49.5492C114.38 49.5492 112.135 48.8693 110.226 47.5955C108.317 46.3217 106.829 44.5112 105.95 42.3929C105.072 40.2746 104.842 37.9437 105.29 35.6949C105.738 33.4462 106.843 31.3806 108.467 29.7593C110.09 28.138 112.159 27.034 114.411 26.5866C116.663 26.1393 118.997 26.3689 121.118 27.2463C123.239 28.1238 125.052 29.6096 126.328 31.516C127.604 33.4224 128.284 35.6637 128.284 37.9565C128.281 41.03 127.057 43.9766 124.88 46.1499C122.704 48.3232 119.753 49.5457 116.676 49.5492ZM116.676 28.296C114.762 28.296 112.892 28.8626 111.301 29.9241C109.71 30.9856 108.47 32.4944 107.738 34.2596C107.006 36.0249 106.814 37.9673 107.187 39.8412C107.561 41.7152 108.482 43.4366 109.835 44.7876C111.188 46.1387 112.912 47.0587 114.788 47.4315C116.665 47.8042 118.61 47.6129 120.378 46.8817C122.145 46.1506 123.656 44.9123 124.719 43.3237C125.782 41.735 126.35 39.8672 126.35 37.9565C126.347 35.3953 125.327 32.9398 123.513 31.1287C121.699 29.3176 119.24 28.2989 116.676 28.296Z" fill="#6C63FF"/>
<path d="M116.295 23.4657C116.038 23.4657 115.792 23.3639 115.611 23.1827C115.429 23.0016 115.327 22.7559 115.327 22.4996V11.39C115.327 11.1338 115.429 10.8881 115.611 10.7069C115.792 10.5257 116.038 10.424 116.295 10.424C116.551 10.424 116.797 10.5257 116.979 10.7069C117.16 10.8881 117.262 11.1338 117.262 11.39V22.4996C117.262 22.7559 117.16 23.0016 116.979 23.1827C116.797 23.3639 116.551 23.4657 116.295 23.4657Z" fill="#6C63FF"/>
<path d="M101.197 38.5423H90.072C89.8155 38.5423 89.5694 38.4406 89.388 38.2594C89.2066 38.0782 89.1046 37.8325 89.1046 37.5763C89.1046 37.3201 89.2066 37.0743 89.388 36.8932C89.5694 36.712 89.8155 36.6102 90.072 36.6102H101.197C101.454 36.6102 101.7 36.712 101.881 36.8932C102.063 37.0743 102.165 37.3201 102.165 37.5763C102.165 37.8325 102.063 38.0782 101.881 38.2594C101.7 38.4406 101.454 38.5423 101.197 38.5423H101.197Z" fill="#6C63FF"/>
<path d="M141.828 38.5423H130.703C130.446 38.5423 130.2 38.4406 130.019 38.2594C129.837 38.0782 129.735 37.8325 129.735 37.5763C129.735 37.3201 129.837 37.0743 130.019 36.8932C130.2 36.712 130.446 36.6102 130.703 36.6102H141.828C142.085 36.6102 142.331 36.712 142.512 36.8932C142.693 37.0743 142.795 37.3201 142.795 37.5763C142.795 37.8325 142.693 38.0782 142.512 38.2594C142.331 38.4406 142.085 38.5423 141.828 38.5423Z" fill="#6C63FF"/>
<path d="M130.397 27.9794C130.205 27.9794 130.016 27.922 129.857 27.8145C129.697 27.7071 129.573 27.5545 129.501 27.3762C129.428 27.198 129.411 27.0023 129.451 26.8141C129.49 26.6259 129.585 26.4538 129.724 26.3199L134.383 21.8062C134.474 21.7176 134.581 21.6478 134.7 21.6008C134.818 21.5539 134.944 21.5306 135.071 21.5324C135.198 21.5343 135.324 21.5611 135.441 21.6114C135.558 21.6618 135.663 21.7346 135.752 21.8258C135.84 21.9169 135.91 22.0246 135.957 22.1427C136.004 22.2608 136.027 22.3869 136.025 22.5139C136.023 22.6409 135.996 22.7662 135.945 22.8828C135.894 22.9993 135.821 23.1047 135.73 23.193L131.071 27.7067C130.891 27.8819 130.649 27.9798 130.397 27.9794Z" fill="#6C63FF"/>
<path d="M101.986 27.9794C101.735 27.9797 101.493 27.8819 101.313 27.7067L96.6539 23.193C96.5625 23.1047 96.4894 22.9993 96.4388 22.8828C96.3882 22.7662 96.3611 22.6409 96.3591 22.5139C96.357 22.3869 96.3801 22.2608 96.4269 22.1427C96.4737 22.0246 96.5434 21.9169 96.632 21.8258C96.7205 21.7346 96.8262 21.6618 96.943 21.6114C97.0598 21.5611 97.1853 21.5343 97.3125 21.5324C97.4397 21.5306 97.5659 21.5539 97.6841 21.6008C97.8023 21.6478 97.91 21.7176 98.0011 21.8062L102.66 26.3199C102.798 26.4538 102.893 26.6259 102.933 26.8141C102.973 27.0023 102.955 27.198 102.883 27.3762C102.811 27.5545 102.687 27.7071 102.527 27.8145C102.367 27.922 102.179 27.9794 101.986 27.9794Z" fill="#6C63FF"/>
<path d="M98.2949 54.3794C98.1048 54.3794 97.919 54.3234 97.7605 54.2185C97.6021 54.1135 97.4781 53.9643 97.404 53.7895C97.33 53.6146 97.3092 53.4219 97.3442 53.2353C97.3792 53.0487 97.4684 52.8765 97.6008 52.7403L102.26 47.9491C102.439 47.7655 102.683 47.6604 102.94 47.6567C103.196 47.6531 103.443 47.7512 103.627 47.9297C103.811 48.1081 103.917 48.3522 103.921 48.6083C103.925 48.8643 103.827 49.1115 103.648 49.2954L98.9891 54.0865C98.8989 54.1793 98.791 54.253 98.6718 54.3033C98.5526 54.3537 98.4244 54.3795 98.2949 54.3794Z" fill="#6C63FF"/>
<path d="M136.024 55.3455C135.895 55.3457 135.767 55.3201 135.648 55.27C135.529 55.2199 135.421 55.1464 135.331 55.054L129.705 49.2968C129.616 49.2061 129.546 49.0987 129.499 48.9809C129.451 48.8631 129.428 48.7371 129.429 48.6101C129.431 48.4832 129.457 48.3578 129.507 48.241C129.557 48.1243 129.63 48.0186 129.721 47.93C129.812 47.8413 129.919 47.7714 130.037 47.7243C130.156 47.6772 130.282 47.6538 130.409 47.6555C130.536 47.6571 130.661 47.6838 130.778 47.7339C130.895 47.7841 131.001 47.8567 131.089 47.9477L136.716 53.7049C136.849 53.8409 136.939 54.013 136.974 54.1998C137.01 54.3865 136.989 54.5796 136.915 54.7547C136.841 54.9299 136.717 55.0794 136.559 55.1844C136.4 55.2895 136.214 55.3456 136.024 55.3455Z" fill="#6C63FF"/>
<path d="M116.295 65.006C116.038 65.006 115.792 64.9042 115.611 64.723C115.429 64.5418 115.327 64.2961 115.327 64.0399V52.9303C115.327 52.8034 115.352 52.6778 115.401 52.5606C115.449 52.4434 115.521 52.3369 115.611 52.2472C115.7 52.1575 115.807 52.0863 115.924 52.0378C116.042 51.9892 116.168 51.9642 116.295 51.9642C116.422 51.9642 116.547 51.9892 116.665 52.0378C116.782 52.0863 116.889 52.1575 116.979 52.2472C117.068 52.3369 117.14 52.4434 117.188 52.5606C117.237 52.6778 117.262 52.8034 117.262 52.9303V64.0399C117.262 64.2961 117.16 64.5418 116.979 64.723C116.797 64.9042 116.551 65.006 116.295 65.006Z" fill="#6C63FF"/>
<path d="M104.086 45.1687C103.989 45.3517 103.906 45.542 103.839 45.738L85.8656 50.4977L82.6746 47.3046L77.2197 51.4835L83.7468 59.4207L105.268 50.2354C105.919 50.6981 106.696 50.9518 107.495 50.9629C108.294 50.974 109.077 50.7419 109.741 50.2975C110.405 49.8532 110.917 49.2175 111.211 48.4752C111.504 47.7328 111.564 46.919 111.382 46.1418C111.201 45.3646 110.787 44.661 110.195 44.1245C109.604 43.588 108.863 43.244 108.071 43.1384C107.279 43.0327 106.473 43.1703 105.761 43.5329C105.05 43.8956 104.465 44.466 104.086 45.1684L104.086 45.1687Z" fill="#A0616A"/>
<path d="M78.2628 55.2047L67.9234 44.8782C67.4531 44.4089 67.0799 43.8517 66.8252 43.2384C66.5706 42.625 66.4394 41.9676 66.4392 41.3036C66.4391 40.6396 66.5699 39.9821 66.8243 39.3686C67.0787 38.7552 67.4516 38.1978 67.9218 37.7283C68.3919 37.2588 68.9501 36.8864 69.5644 36.6323C70.1788 36.3783 70.8372 36.2476 71.5021 36.2478C72.167 36.248 72.8253 36.3789 73.4395 36.6332C74.0537 36.8875 74.6118 37.2602 75.0817 37.7299L85.4217 48.0555C85.7381 48.3714 85.9159 48.7998 85.9159 49.2466C85.916 49.6933 85.7383 50.1218 85.422 50.4378L85.4217 50.4382L80.6494 55.2041C80.3327 55.5196 79.9036 55.6967 79.4562 55.6967C79.0089 55.6967 78.5798 55.5196 78.2631 55.2041L78.2628 55.2047Z" fill="#EF81CA"/>
<path d="M187.842 188.843H80.7227C57.6133 188.843 38.8123 169.753 38.8123 146.287C38.8123 122.821 57.6133 103.731 80.7227 103.731H88.3434C92.5361 95.1943 98.9967 87.9723 107.02 82.853C115.16 77.6554 124.62 74.892 134.282 74.8892C161.084 74.8892 183.423 95.9353 185.502 122.958H187.842C205.748 122.958 220.316 137.736 220.316 155.901C220.316 174.065 205.748 188.843 187.842 188.843ZM80.7227 105.523C58.603 105.523 40.6072 123.81 40.6072 146.287C40.6072 168.764 58.603 187.051 80.7227 187.051H187.842C204.758 187.051 218.521 173.077 218.521 155.901C218.521 138.725 204.758 124.751 187.842 124.751H183.82L183.768 123.909C182.151 97.4265 160.414 76.6815 134.282 76.6815C115.465 76.6815 97.971 87.8028 89.7146 105.014L89.4705 105.523H80.7227Z" fill="#3F3D56"/>
</svg>
