<svg width="318" height="195" viewBox="0 0 318 195" fill="none" xmlns="http://www.w3.org/2000/svg">
<g clip-path="url(#clip0)">
<path d="M47.8759 53.2493C48.4063 47.775 49.8713 42.4213 52.2124 37.4019C52.8649 36.0051 53.583 34.639 54.3669 33.3037C54.4062 33.2339 54.4156 33.1521 54.3932 33.0757C54.3709 32.9994 54.3184 32.9343 54.2469 32.8942C54.1755 32.8542 54.0906 32.8423 54.0101 32.8611C53.9297 32.8799 53.86 32.9279 53.8158 32.995C50.9653 37.8586 48.9683 43.1381 47.9047 48.6223C47.6089 50.1539 47.3865 51.6962 47.2376 53.2493C47.1998 53.6411 47.8383 53.6386 47.8759 53.2493Z" fill="#E6E6E6"/>
<path d="M55.9126 34.2846C58.1449 34.2846 59.9546 32.5504 59.9546 30.4112C59.9546 28.2719 58.1449 26.5377 55.9126 26.5377C53.6803 26.5377 51.8707 28.2719 51.8707 30.4112C51.8707 32.5504 53.6803 34.2846 55.9126 34.2846Z" fill="#E6E6E6"/>
<path d="M48.2893 53.3522C48.6334 49.8007 49.5839 46.3275 51.1026 43.0712C51.5259 42.1651 51.9918 41.2788 52.5003 40.4125C52.5258 40.3672 52.532 40.3142 52.5175 40.2646C52.5029 40.2151 52.4689 40.1729 52.4225 40.1469C52.3762 40.1209 52.3211 40.1132 52.2689 40.1254C52.2167 40.1376 52.1715 40.1687 52.1428 40.2123C50.2936 43.3675 48.9981 46.7925 48.3081 50.3504C48.1161 51.344 47.9719 52.3446 47.8753 53.3522C47.8507 53.6063 48.2649 53.6047 48.2893 53.3522Z" fill="#E6E6E6"/>
<path d="M53.5031 41.0488C54.9513 41.0488 56.1253 39.9238 56.1253 38.5359C56.1253 37.1481 54.9513 36.0231 53.5031 36.0231C52.0549 36.0231 50.8809 37.1481 50.8809 38.5359C50.8809 39.9238 52.0549 41.0488 53.5031 41.0488Z" fill="#E6E6E6"/>
<path d="M47.7667 53.115C45.7587 50.1119 44.2789 46.8131 43.3865 43.3504C43.1386 42.3864 42.9372 41.4131 42.7821 40.4303C42.7731 40.3795 42.744 40.3341 42.7007 40.3036C42.6574 40.2731 42.6035 40.2598 42.5503 40.2667C42.497 40.2735 42.4487 40.2999 42.4153 40.3403C42.382 40.3807 42.3664 40.4319 42.3717 40.4831C42.9387 44.0609 44.1154 47.5251 45.8549 50.7371C46.3413 51.6337 46.8697 52.5076 47.4403 53.359C47.584 53.5739 47.9096 53.3285 47.7667 53.115Z" fill="#E6E6E6"/>
<path d="M42.3684 40.8724C43.8166 40.8724 44.9906 39.7474 44.9906 38.3596C44.9906 36.9717 43.8166 35.8467 42.3684 35.8467C40.9202 35.8467 39.7462 36.9717 39.7462 38.3596C39.7462 39.7474 40.9202 40.8724 42.3684 40.8724Z" fill="#E6E6E6"/>
<path d="M39.7168 55.3383V50.401C39.7173 49.9102 39.9211 49.4395 40.2833 49.0924C40.6455 48.7453 41.1365 48.5501 41.6488 48.5496H53.6702C54.1825 48.5501 54.6736 48.7453 55.0357 49.0924C55.3979 49.4395 55.6017 49.9102 55.6023 50.401V55.3383C55.6017 55.8291 55.3979 56.2997 55.0357 56.6468C54.6736 56.9939 54.1825 57.1892 53.6702 57.1897H41.6488C41.1365 57.1892 40.6455 56.9939 40.2833 56.6468C39.9211 56.2997 39.7173 55.8291 39.7168 55.3383Z" fill="#F2F2F2"/>
<path d="M53.2409 23.8634H48.0888C47.5766 23.8628 47.0855 23.6675 46.7233 23.3205C46.3611 22.9734 46.1574 22.5028 46.1568 22.0119V1.85147C46.1574 1.3606 46.3611 0.88999 46.7233 0.542893C47.0855 0.195795 47.5766 0.000553201 48.0888 0H53.2409C53.7531 0.000553201 54.2442 0.195795 54.6064 0.542893C54.9686 0.88999 55.1723 1.3606 55.1729 1.85147V22.0119C55.1723 22.5028 54.9686 22.9734 54.6064 23.3205C54.2442 23.6675 53.7531 23.8628 53.2409 23.8634Z" fill="#F2F2F2"/>
<path d="M54.9582 3.90869H46.3715V5.55444H54.9582V3.90869Z" fill="#CCCCCC"/>
<path d="M54.9582 16.6632H46.3715V18.309H54.9582V16.6632Z" fill="#CCCCCC"/>
<path d="M66.121 23.8634H60.969C60.4567 23.8628 59.9657 23.6675 59.6035 23.3205C59.2413 22.9734 59.0375 22.5028 59.0369 22.0119V1.85147C59.0375 1.3606 59.2413 0.88999 59.6035 0.542893C59.9657 0.195795 60.4567 0.000553201 60.969 0H66.121C66.6333 0.000553201 67.1243 0.195795 67.4865 0.542893C67.8487 0.88999 68.0525 1.3606 68.0531 1.85147V22.0119C68.0525 22.5028 67.8487 22.9734 67.4865 23.3205C67.1243 23.6675 66.6333 23.8628 66.121 23.8634Z" fill="#F2F2F2"/>
<path d="M67.8384 3.90869H59.2516V5.55444H67.8384V3.90869Z" fill="#CCCCCC"/>
<path d="M67.8384 16.6632H59.2516V18.309H67.8384V16.6632Z" fill="#CCCCCC"/>
<path d="M79.0012 23.8634H73.8491C73.3369 23.8628 72.8458 23.6675 72.4836 23.3205C72.1214 22.9734 71.9177 22.5028 71.9171 22.0119V1.85147C71.9177 1.3606 72.1214 0.88999 72.4836 0.542893C72.8458 0.195795 73.3369 0.000553201 73.8491 0H79.0012C79.5134 0.000553201 80.0045 0.195795 80.3667 0.542893C80.7289 0.88999 80.9326 1.3606 80.9332 1.85147V22.0119C80.9326 22.5028 80.7289 22.9734 80.3667 23.3205C80.0045 23.6675 79.5134 23.8628 79.0012 23.8634Z" fill="#F2F2F2"/>
<path d="M80.7185 3.90869H72.1318V5.55444H80.7185V3.90869Z" fill="#CCCCCC"/>
<path d="M80.7185 16.6632H72.1318V18.309H80.7185V16.6632Z" fill="#CCCCCC"/>
<path d="M85.8706 57.1898H80.7185C80.2063 57.1892 79.7152 56.994 79.353 56.6469C78.9908 56.2998 78.7871 55.8292 78.7865 55.3383V35.1779C78.7871 34.687 78.9908 34.2164 79.353 33.8693C79.7152 33.5222 80.2063 33.327 80.7185 33.3264H85.8706C86.3828 33.327 86.8739 33.5222 87.2361 33.8693C87.5983 34.2164 87.802 34.687 87.8026 35.1779V55.3383C87.802 55.8292 87.5983 56.2998 87.2361 56.6469C86.8739 56.994 86.3828 57.1892 85.8706 57.1898Z" fill="#F2F2F2"/>
<path d="M87.5879 37.2351H79.0012V38.8809H87.5879V37.2351Z" fill="#CCCCCC"/>
<path d="M87.5879 49.9896H79.0012V51.6354H87.5879V49.9896Z" fill="#CCCCCC"/>
<path d="M98.7507 57.1898H93.5987C93.0864 57.1892 92.5954 56.994 92.2332 56.6469C91.871 56.2998 91.6672 55.8292 91.6666 55.3383V35.1779C91.6672 34.687 91.871 34.2164 92.2332 33.8693C92.5954 33.5222 93.0864 33.327 93.5987 33.3264H98.7507C99.2629 33.327 99.754 33.5222 100.116 33.8693C100.478 34.2164 100.682 34.687 100.683 35.1779V55.3383C100.682 55.8292 100.478 56.2998 100.116 56.6469C99.754 56.994 99.2629 57.1892 98.7507 57.1898Z" fill="#F2F2F2"/>
<path d="M100.468 37.2351H91.8813V38.8809H100.468V37.2351Z" fill="#CCCCCC"/>
<path d="M100.468 49.9896H91.8813V51.6354H100.468V49.9896Z" fill="#CCCCCC"/>
<path d="M111.631 57.1898H106.479C105.967 57.1892 105.475 56.994 105.113 56.6469C104.751 56.2998 104.547 55.8292 104.547 55.3383V35.1779C104.547 34.687 104.751 34.2164 105.113 33.8693C105.475 33.5222 105.967 33.327 106.479 33.3264H111.631C112.143 33.327 112.634 33.5222 112.996 33.8693C113.359 34.2164 113.562 34.687 113.563 35.1779V55.3383C113.562 55.8292 113.359 56.2998 112.996 56.6469C112.634 56.994 112.143 57.1892 111.631 57.1898Z" fill="#F2F2F2"/>
<path d="M113.348 37.2351H104.761V38.8809H113.348V37.2351Z" fill="#CCCCCC"/>
<path d="M113.348 49.9896H104.761V51.6354H113.348V49.9896Z" fill="#CCCCCC"/>
<path d="M51.9529 90.5162H46.8008C46.2886 90.5156 45.7975 90.3204 45.4353 89.9733C45.0731 89.6262 44.8694 89.1556 44.8688 88.6647V68.5043C44.8694 68.0134 45.0731 67.5428 45.4353 67.1957C45.7975 66.8486 46.2886 66.6534 46.8008 66.6528H51.9529C52.4651 66.6534 52.9562 66.8486 53.3184 67.1957C53.6806 67.5428 53.8843 68.0134 53.8849 68.5043V88.6647C53.8843 89.1556 53.6806 89.6262 53.3184 89.9733C52.9562 90.3204 52.4651 90.5156 51.9529 90.5162Z" fill="#F2F2F2"/>
<path d="M53.6702 70.5614H45.0835V72.2072H53.6702V70.5614Z" fill="#CCCCCC"/>
<path d="M53.6702 83.316H45.0835V84.9618H53.6702V83.316Z" fill="#CCCCCC"/>
<path d="M64.833 90.5162H59.681C59.1687 90.5156 58.6777 90.3204 58.3155 89.9733C57.9533 89.6262 57.7495 89.1556 57.7489 88.6647V68.5043C57.7495 68.0134 57.9533 67.5428 58.3155 67.1957C58.6777 66.8486 59.1687 66.6534 59.681 66.6528H64.833C65.3452 66.6534 65.8363 66.8486 66.1985 67.1957C66.5607 67.5428 66.7645 68.0134 66.765 68.5043V88.6647C66.7645 89.1556 66.5607 89.6262 66.1985 89.9733C65.8363 90.3204 65.3452 90.5156 64.833 90.5162Z" fill="#F2F2F2"/>
<path d="M66.5504 70.5614H57.9636V72.2072H66.5504V70.5614Z" fill="#CCCCCC"/>
<path d="M66.5504 83.316H57.9636V84.9618H66.5504V83.316Z" fill="#CCCCCC"/>
<path d="M77.7132 90.5162H72.5611C72.0489 90.5156 71.5578 90.3204 71.1956 89.9733C70.8334 89.6262 70.6297 89.1556 70.6291 88.6647V68.5043C70.6297 68.0134 70.8334 67.5428 71.1956 67.1957C71.5578 66.8486 72.0489 66.6534 72.5611 66.6528H77.7132C78.2254 66.6534 78.7165 66.8486 79.0787 67.1957C79.4409 67.5428 79.6446 68.0134 79.6452 68.5043V88.6647C79.6446 89.1556 79.4409 89.6262 79.0787 89.9733C78.7165 90.3204 78.2254 90.5156 77.7132 90.5162Z" fill="#F2F2F2"/>
<path d="M79.4305 70.5614H70.8438V72.2072H79.4305V70.5614Z" fill="#CCCCCC"/>
<path d="M79.4305 83.316H70.8438V84.9618H79.4305V83.316Z" fill="#CCCCCC"/>
<path d="M91.8813 23.8634H86.7292C86.217 23.8628 85.7259 23.6675 85.3637 23.3205C85.0015 22.9734 84.7978 22.5028 84.7972 22.0119V1.85147C84.7978 1.3606 85.0015 0.88999 85.3637 0.542893C85.7259 0.195795 86.217 0.000553201 86.7292 0H91.8813C92.3935 0.000553201 92.8846 0.195795 93.2468 0.542893C93.609 0.88999 93.8127 1.3606 93.8133 1.85147V22.0119C93.8127 22.5028 93.609 22.9734 93.2468 23.3205C92.8846 23.6675 92.3935 23.8628 91.8813 23.8634Z" fill="#F2F2F2"/>
<path d="M93.5987 3.90869H85.0119V5.55444H93.5987V3.90869Z" fill="#CCCCCC"/>
<path d="M93.5987 16.6632H85.0119V18.309H93.5987V16.6632Z" fill="#CCCCCC"/>
<path d="M104.761 23.8634H99.6094C99.0972 23.8628 98.6061 23.6675 98.2439 23.3205C97.8817 22.9734 97.6779 22.5028 97.6774 22.0119V1.85147C97.6779 1.3606 97.8817 0.88999 98.2439 0.542893C98.6061 0.195795 99.0972 0.000553201 99.6094 0H104.761C105.274 0.000553201 105.765 0.195795 106.127 0.542893C106.489 0.88999 106.693 1.3606 106.693 1.85147V22.0119C106.693 22.5028 106.489 22.9734 106.127 23.3205C105.765 23.6675 105.274 23.8628 104.761 23.8634Z" fill="#F2F2F2"/>
<path d="M106.479 3.90869H97.892V5.55444H106.479V3.90869Z" fill="#CCCCCC"/>
<path d="M106.479 16.6632H97.892V18.309H106.479V16.6632Z" fill="#CCCCCC"/>
<path d="M117.642 23.8634H112.49C111.977 23.8628 111.486 23.6675 111.124 23.3205C110.762 22.9734 110.558 22.5028 110.557 22.0119V1.85147C110.558 1.3606 110.762 0.88999 111.124 0.542893C111.486 0.195795 111.977 0.000553201 112.49 0H117.642C118.154 0.000553201 118.645 0.195795 119.007 0.542893C119.369 0.88999 119.573 1.3606 119.574 1.85147V22.0119C119.573 22.5028 119.369 22.9734 119.007 23.3205C118.645 23.6675 118.154 23.8628 117.642 23.8634Z" fill="#F2F2F2"/>
<path d="M119.359 3.90869H110.772V5.55444H119.359V3.90869Z" fill="#CCCCCC"/>
<path d="M119.359 16.6632H110.772V18.309H119.359V16.6632Z" fill="#CCCCCC"/>
<path d="M130.522 23.8634H125.37C124.857 23.8628 124.366 23.6675 124.004 23.3205C123.642 22.9734 123.438 22.5028 123.438 22.0119V1.85147C123.438 1.3606 123.642 0.88999 124.004 0.542893C124.366 0.195795 124.857 0.000553201 125.37 0H130.522C131.034 0.000553201 131.525 0.195795 131.887 0.542893C132.249 0.88999 132.453 1.3606 132.454 1.85147V22.0119C132.453 22.5028 132.249 22.9734 131.887 23.3205C131.525 23.6675 131.034 23.8628 130.522 23.8634Z" fill="#F2F2F2"/>
<path d="M132.239 3.90869H123.652V5.55444H132.239V3.90869Z" fill="#CCCCCC"/>
<path d="M132.239 16.6632H123.652V18.309H132.239V16.6632Z" fill="#CCCCCC"/>
<path d="M149.817 24.4805H27.4553C27.3414 24.4805 27.2322 24.4371 27.1517 24.36C27.0712 24.2828 27.0259 24.1782 27.0259 24.069C27.0259 23.9599 27.0712 23.8553 27.1517 23.7781C27.2322 23.7009 27.3414 23.6576 27.4553 23.6576H149.817C149.93 23.6576 150.04 23.7009 150.12 23.7781C150.201 23.8553 150.246 23.9599 150.246 24.069C150.246 24.1782 150.201 24.2828 150.12 24.36C150.04 24.4371 149.93 24.4805 149.817 24.4805Z" fill="#CCCCCC"/>
<path d="M149.817 57.8069H27.4553C27.3414 57.8069 27.2322 57.7635 27.1517 57.6864C27.0712 57.6092 27.0259 57.5046 27.0259 57.3954C27.0259 57.2863 27.0712 57.1817 27.1517 57.1045C27.2322 57.0274 27.3414 56.984 27.4553 56.984H149.817C149.93 56.984 150.04 57.0274 150.12 57.1045C150.201 57.1817 150.246 57.2863 150.246 57.3954C150.246 57.5046 150.201 57.6092 150.12 57.6864C150.04 57.7635 149.93 57.8069 149.817 57.8069Z" fill="#CCCCCC"/>
<path d="M149.817 91.1333H27.4553C27.3414 91.1333 27.2322 91.0899 27.1517 91.0128C27.0712 90.9356 27.0259 90.831 27.0259 90.7219C27.0259 90.6127 27.0712 90.5081 27.1517 90.4309C27.2322 90.3538 27.3414 90.3104 27.4553 90.3104H149.817C149.93 90.3104 150.04 90.3538 150.12 90.4309C150.201 90.5081 150.246 90.6127 150.246 90.7219C150.246 90.831 150.201 90.9356 150.12 91.0128C150.04 91.0899 149.93 91.1333 149.817 91.1333Z" fill="#CCCCCC"/>
<path d="M142.57 155.722C142.57 152.54 130.076 149.962 114.663 149.962C99.2507 149.962 86.7563 152.54 86.7563 155.722C86.7563 157.761 91.893 159.551 99.6364 160.574V192.134C99.6364 192.843 99.9304 193.523 100.454 194.025C100.977 194.526 101.687 194.808 102.427 194.808C103.167 194.808 103.877 194.526 104.4 194.025C104.924 193.523 105.218 192.843 105.218 192.134V161.143C108.168 161.362 111.347 161.482 114.663 161.482C117.979 161.482 121.158 161.362 124.109 161.143V192.134C124.109 192.843 124.403 193.523 124.926 194.025C125.449 194.526 126.159 194.808 126.899 194.808C127.64 194.808 128.349 194.526 128.873 194.025C129.396 193.523 129.69 192.843 129.69 192.134V160.574C137.433 159.551 142.57 157.761 142.57 155.722Z" fill="#CCCCCC"/>
<path d="M137.201 189.634H142.464L144.968 170.178H137.2L137.201 189.634Z" fill="#A0616A"/>
<path d="M152.616 194.317L136.073 194.318L136.073 188.193L146.224 188.192C147.919 188.192 149.545 188.837 150.743 189.986C151.942 191.135 152.615 192.693 152.616 194.317L152.616 194.317Z" fill="#2F2E41"/>
<path d="M145.417 186.819L150.439 185.308L146.75 166.026L139.338 168.255L145.417 186.819Z" fill="#A0616A"/>
<path d="M161.588 186.865L145.804 191.611L143.891 185.767L153.576 182.854C155.193 182.368 156.946 182.517 158.449 183.269C159.951 184.021 161.081 185.315 161.588 186.865Z" fill="#2F2E41"/>
<path d="M141.896 177.864L132.267 153.642C130.107 154.128 111.991 157.97 105.923 151.779C103.844 149.657 103.438 146.583 104.718 142.642L108.259 138.377L108.369 138.383C109.708 138.451 141.185 140.141 143.343 149.24C145.162 156.911 148.485 171.213 149.46 175.414C149.559 175.849 149.491 176.304 149.269 176.695C149.048 177.087 148.687 177.389 148.252 177.547L144.38 178.938C144.164 179.016 143.935 179.056 143.705 179.056C143.313 179.056 142.93 178.942 142.607 178.729C142.284 178.516 142.036 178.214 141.896 177.864Z" fill="#2F2E41"/>
<path d="M136.314 180.744L126.685 156.522C124.525 157.008 106.409 160.849 100.342 154.659C98.2623 152.537 97.8568 149.463 99.1363 145.522L102.677 141.258L102.787 141.263C104.126 141.331 135.604 143.021 137.762 152.12C139.581 159.792 142.904 174.093 143.879 178.294C143.977 178.729 143.91 179.184 143.688 179.576C143.466 179.967 143.105 180.269 142.67 180.427L138.798 181.818C138.582 181.896 138.354 181.936 138.123 181.936C137.731 181.936 137.349 181.822 137.026 181.609C136.703 181.396 136.455 181.095 136.314 180.744Z" fill="#2F2E41"/>
<path d="M149.327 122.681C149.184 122.863 149.057 123.056 148.947 123.257L127.772 125.395L124.724 121.39L117.815 125.009L123.802 134.727L149.772 128.382C150.427 128.994 151.261 129.401 152.163 129.547C153.065 129.694 153.993 129.574 154.822 129.204C155.651 128.833 156.343 128.229 156.806 127.473C157.268 126.716 157.479 125.842 157.411 124.968C157.343 124.093 156.998 123.26 156.424 122.577C155.849 121.895 155.071 121.397 154.193 121.148C153.316 120.9 152.38 120.914 151.511 121.187C150.641 121.461 149.88 121.982 149.327 122.681V122.681Z" fill="#A0616A"/>
<path d="M99.0001 146.801C98.7104 146.601 98.484 146.327 98.3462 146.012C98.2084 145.696 98.1645 145.35 98.2193 145.011C99.414 137.465 98.0395 126.653 96.676 118.913C96.3969 117.342 96.5055 115.731 96.9931 114.208C97.4807 112.685 98.3338 111.292 99.484 110.142C100.634 108.992 102.049 108.116 103.617 107.584C105.184 107.052 106.859 106.879 108.508 107.079C109.943 107.261 111.365 107.529 112.764 107.883C115.089 108.444 117.145 109.747 118.595 111.576C120.045 113.406 120.802 115.654 120.742 117.95C120.538 125.42 122.121 134.739 122.811 138.399C122.858 138.651 122.85 138.909 122.789 139.157C122.727 139.406 122.613 139.639 122.453 139.844C122.296 140.046 122.097 140.214 121.868 140.338C121.639 140.462 121.386 140.539 121.124 140.564C113.478 141.311 105.233 144.884 100.999 146.948C100.727 147.082 100.425 147.153 100.119 147.154C99.7164 147.153 99.3247 147.029 99.0001 146.801Z" fill="#72D3D9"/>
<path d="M119.639 127.335C119.402 127.246 119.187 127.113 119.005 126.944C118.822 126.774 118.677 126.572 118.577 126.348L114.313 116.909C114.055 116.339 113.916 115.725 113.906 115.104C113.895 114.482 114.012 113.865 114.251 113.286C114.489 112.708 114.844 112.181 115.296 111.734C115.747 111.288 116.286 110.931 116.881 110.684C117.476 110.437 118.117 110.305 118.765 110.295C119.414 110.286 120.058 110.398 120.661 110.628C121.264 110.857 121.814 111.197 122.28 111.63C122.746 112.063 123.118 112.58 123.375 113.15L127.639 122.59C127.842 123.04 127.85 123.55 127.661 124.006C127.473 124.462 127.103 124.829 126.633 125.024L121.117 127.312C120.885 127.41 120.634 127.462 120.38 127.466C120.127 127.469 119.874 127.425 119.639 127.335H119.639Z" fill="#72D3D9"/>
<path d="M129.148 121.858C129.006 122.04 128.879 122.233 128.768 122.435L107.593 124.573L104.545 120.568L97.6364 124.186L103.623 133.905L129.593 127.559C130.248 128.171 131.082 128.578 131.984 128.725C132.886 128.871 133.814 128.751 134.643 128.381C135.472 128.01 136.164 127.406 136.627 126.65C137.089 125.893 137.3 125.02 137.232 124.145C137.164 123.271 136.82 122.437 136.245 121.755C135.67 121.072 134.892 120.574 134.014 120.326C133.137 120.077 132.201 120.091 131.332 120.365C130.462 120.638 129.701 121.159 129.148 121.858V121.858Z" fill="#A0616A"/>
<path d="M99.4599 127.746C99.2236 127.657 99.008 127.524 98.8257 127.355C98.6434 127.186 98.498 126.984 98.3978 126.76L94.1339 117.321C93.8757 116.75 93.7374 116.137 93.7267 115.515C93.7161 114.894 93.8334 114.276 94.0719 113.698C94.3104 113.12 94.6654 112.592 95.1168 112.146C95.5681 111.699 96.1068 111.342 96.7022 111.095C97.2975 110.849 97.9378 110.716 98.5864 110.707C99.2351 110.697 99.8794 110.81 100.482 111.039C101.086 111.268 101.636 111.609 102.101 112.042C102.567 112.475 102.939 112.991 103.196 113.562L107.46 123.001C107.663 123.452 107.671 123.961 107.482 124.418C107.294 124.874 106.924 125.24 106.455 125.436L100.938 127.724C100.706 127.821 100.455 127.873 100.202 127.877C99.9477 127.881 99.6956 127.837 99.4599 127.746H99.4599Z" fill="#72D3D9"/>
<path d="M107.724 103.868C113.547 103.868 118.269 99.3438 118.269 93.7628C118.269 88.1818 113.547 83.6575 107.724 83.6575C101.9 83.6575 97.1786 88.1818 97.1786 93.7628C97.1786 99.3438 101.9 103.868 107.724 103.868Z" fill="#A0616A"/>
<path d="M100.184 100.698C100.139 100.571 100.125 100.436 100.142 100.303C100.16 100.17 100.209 100.043 100.286 99.931C100.363 99.8191 100.466 99.7255 100.586 99.6574C100.707 99.5893 100.842 99.5486 100.981 99.5383C101.267 99.5532 101.546 99.6234 101.803 99.7447C102.059 99.866 102.287 100.036 102.474 100.244C102.855 100.666 103.299 101.031 103.792 101.329C104.302 101.575 104.994 101.54 105.285 101.07C105.558 100.629 105.371 100.039 105.206 99.5262C104.785 98.2225 104.549 96.8704 104.506 95.5064C104.458 93.984 104.682 92.3951 105.562 91.2077C106.697 89.6752 108.727 89.0934 110.647 89.1356C112.568 89.1777 114.458 89.746 116.361 90.1052C117.018 90.2292 117.79 90.2926 118.229 89.8047C118.696 89.286 118.525 88.4464 118.326 87.746C117.81 85.9285 117.263 84.0494 116.065 82.5815C114.77 81.0563 112.92 80.058 110.887 79.7878C108.936 79.5562 106.955 79.7717 105.107 80.4167C102.097 81.3259 99.4484 83.0941 97.5153 85.485C95.5226 88.0276 94.6616 91.2228 95.1204 94.3721C95.5687 97.115 97.0854 99.593 99.3648 101.307L100.184 100.698Z" fill="#2F2E41"/>
<path d="M59.921 125.026C60.4514 119.552 61.9164 114.198 64.2575 109.179C64.91 107.782 65.6282 106.416 66.412 105.08C66.4513 105.01 66.4608 104.929 66.4384 104.852C66.416 104.776 66.3635 104.711 66.2921 104.671C66.2206 104.631 66.1357 104.619 66.0552 104.638C65.9748 104.657 65.9051 104.705 65.8609 104.772C63.0104 109.635 61.0135 114.915 59.9499 120.399C59.654 121.93 59.4316 123.473 59.2828 125.026C59.2449 125.418 59.8834 125.415 59.921 125.026Z" fill="#3F3D56"/>
<path d="M67.9577 106.061C70.19 106.061 71.9997 104.327 71.9997 102.188C71.9997 100.049 70.19 98.3143 67.9577 98.3143C65.7254 98.3143 63.9158 100.049 63.9158 102.188C63.9158 104.327 65.7254 106.061 67.9577 106.061Z" fill="#72D3D9"/>
<path d="M60.3344 125.129C60.6786 121.577 61.629 118.104 63.1478 114.848C63.5711 113.942 64.037 113.056 64.5455 112.189C64.571 112.144 64.5771 112.091 64.5626 112.041C64.5481 111.992 64.514 111.95 64.4677 111.924C64.4213 111.898 64.3662 111.89 64.314 111.902C64.2618 111.914 64.2166 111.945 64.188 111.989C62.3387 115.144 61.0432 118.569 60.3532 122.127C60.1612 123.121 60.017 124.121 59.9204 125.129C59.8959 125.383 60.3101 125.381 60.3344 125.129Z" fill="#3F3D56"/>
<path d="M65.5483 112.826C66.9965 112.826 68.1705 111.701 68.1705 110.313C68.1705 108.925 66.9965 107.8 65.5483 107.8C64.1001 107.8 62.9261 108.925 62.9261 110.313C62.9261 111.701 64.1001 112.826 65.5483 112.826Z" fill="#72D3D9"/>
<path d="M59.8119 124.892C57.8038 121.888 56.324 118.59 55.4316 115.127C55.1837 114.163 54.9823 113.19 54.8272 112.207C54.8183 112.156 54.7891 112.111 54.7458 112.08C54.7026 112.05 54.6486 112.036 54.5954 112.043C54.5422 112.05 54.4938 112.077 54.4605 112.117C54.4272 112.157 54.4115 112.208 54.4168 112.26C54.9838 115.838 56.1606 119.302 57.9001 122.514C58.3864 123.41 58.9149 124.284 59.4854 125.136C59.6292 125.35 59.9547 125.105 59.8119 124.892Z" fill="#3F3D56"/>
<path d="M54.4135 112.649C55.8617 112.649 57.0357 111.524 57.0357 110.136C57.0357 108.748 55.8617 107.623 54.4135 107.623C52.9653 107.623 51.7913 108.748 51.7913 110.136C51.7913 111.524 52.9653 112.649 54.4135 112.649Z" fill="#72D3D9"/>
<path d="M51.7619 127.115V122.178C51.7624 121.687 51.9662 121.216 52.3284 120.869C52.6906 120.522 53.1817 120.327 53.6939 120.326H65.7154C66.2276 120.327 66.7187 120.522 67.0809 120.869C67.4431 121.216 67.6468 121.687 67.6474 122.178V127.115C67.6468 127.606 67.4431 128.076 67.0809 128.423C66.7187 128.771 66.2276 128.966 65.7154 128.966H53.6939C53.1817 128.966 52.6906 128.771 52.3284 128.423C51.9662 128.076 51.7624 127.606 51.7619 127.115Z" fill="#CCCCCC"/>
<path d="M159.529 125.687H125.611C124.781 125.687 124.109 126.331 124.109 127.127C124.109 127.922 124.781 128.567 125.611 128.567H159.529C160.359 128.567 161.032 127.922 161.032 127.127C161.032 126.331 160.359 125.687 159.529 125.687Z" fill="#CCCCCC"/>
<path d="M182.284 128.567H144.073C143.333 128.566 142.624 128.284 142.101 127.783C141.577 127.281 141.283 126.602 141.282 125.892V105.732C141.283 105.023 141.577 104.343 142.101 103.842C142.624 103.341 143.333 103.059 144.073 103.058H182.284C183.024 103.059 183.733 103.341 184.256 103.842C184.78 104.343 185.074 105.023 185.075 105.732V125.892C185.074 126.602 184.78 127.281 184.256 127.783C183.733 128.284 183.024 128.566 182.284 128.567Z" fill="#CCCCCC"/>
<path d="M163.178 118.281C164.601 118.281 165.754 117.176 165.754 115.812C165.754 114.449 164.601 113.344 163.178 113.344C161.756 113.344 160.602 114.449 160.602 115.812C160.602 117.176 161.756 118.281 163.178 118.281Z" fill="white"/>
<path d="M279.529 155.722C279.529 152.54 267.035 149.962 251.622 149.962C236.209 149.962 223.715 152.54 223.715 155.722C223.715 157.761 228.852 159.551 236.595 160.574V192.134C236.595 192.843 236.889 193.523 237.413 194.025C237.936 194.526 238.646 194.808 239.386 194.808C240.126 194.808 240.836 194.526 241.359 194.025C241.883 193.523 242.177 192.843 242.177 192.134V161.143C245.127 161.362 248.306 161.482 251.622 161.482C254.938 161.482 258.117 161.362 261.067 161.143V192.134C261.067 192.843 261.362 193.523 261.885 194.025C262.408 194.526 263.118 194.808 263.858 194.808C264.598 194.808 265.308 194.526 265.832 194.025C266.355 193.523 266.649 192.843 266.649 192.134V160.574C274.392 159.551 279.529 157.761 279.529 155.722Z" fill="#CCCCCC"/>
<path d="M254.708 102.999C261.347 102.999 266.729 97.8412 266.729 91.4787C266.729 85.1163 261.347 79.9585 254.708 79.9585C248.069 79.9585 242.686 85.1163 242.686 91.4787C242.686 97.8412 248.069 102.999 254.708 102.999Z" fill="#2F2E41"/>
<path d="M224.791 190.045H219.528L217.024 170.589H224.792L224.791 190.045Z" fill="#FFB8B8"/>
<path d="M215.768 188.604H225.919V194.729H209.377C209.377 193.924 209.542 193.128 209.863 192.385C210.184 191.642 210.655 190.966 211.249 190.398C211.842 189.829 212.547 189.378 213.322 189.07C214.098 188.762 214.929 188.604 215.768 188.604Z" fill="#2F2E41"/>
<path d="M216.575 187.23L211.553 185.72L215.242 166.438L222.654 168.666L216.575 187.23Z" fill="#FFB8B8"/>
<path d="M208.416 183.266L218.101 186.179L216.188 192.023L200.404 187.276C200.655 186.508 201.062 185.796 201.6 185.179C202.139 184.562 202.799 184.053 203.543 183.681C204.287 183.308 205.1 183.08 205.937 183.009C206.773 182.938 207.615 183.025 208.416 183.266Z" fill="#2F2E41"/>
<path d="M218.287 179.467C218.057 179.467 217.828 179.427 217.612 179.35L213.74 177.958C213.305 177.8 212.944 177.498 212.722 177.107C212.501 176.715 212.433 176.261 212.532 175.825C213.507 171.625 216.829 157.323 218.649 149.652C220.807 140.553 252.284 138.862 253.623 138.794L253.733 138.789L257.274 143.053C258.554 146.994 258.148 150.068 256.069 152.19C250.001 158.381 231.885 154.54 229.725 154.053L220.096 178.275C219.956 178.626 219.708 178.928 219.385 179.14C219.062 179.353 218.679 179.467 218.287 179.467Z" fill="#2F2E41"/>
<path d="M223.869 182.347C223.638 182.347 223.41 182.308 223.194 182.23L219.321 180.838C218.887 180.681 218.526 180.378 218.304 179.987C218.082 179.596 218.014 179.141 218.113 178.706C219.088 174.505 222.411 160.203 224.23 152.532C226.388 143.433 257.866 141.742 259.205 141.675L259.315 141.669L262.856 145.933C264.135 149.874 263.73 152.948 261.65 155.07C255.583 161.261 237.467 157.42 235.307 156.933L225.678 181.155C225.537 181.506 225.289 181.808 224.966 182.021C224.643 182.233 224.261 182.347 223.869 182.347Z" fill="#2F2E41"/>
<path d="M212.665 123.092C212.807 123.275 212.935 123.467 213.045 123.669L234.22 125.807L237.268 121.802L244.177 125.42L238.19 135.139L212.22 128.793C211.565 129.406 210.731 129.812 209.829 129.959C208.927 130.106 207.999 129.986 207.17 129.615C206.341 129.244 205.649 128.641 205.186 127.884C204.724 127.127 204.513 126.254 204.581 125.379C204.649 124.505 204.994 123.671 205.568 122.989C206.143 122.306 206.921 121.808 207.799 121.56C208.676 121.311 209.612 121.325 210.481 121.599C211.351 121.873 212.112 122.393 212.665 123.092Z" fill="#FFB8B8"/>
<path d="M261.873 147.565C261.567 147.564 261.265 147.494 260.993 147.359C256.759 145.296 248.514 141.723 240.868 140.975C240.606 140.95 240.353 140.874 240.124 140.75C239.895 140.626 239.696 140.457 239.539 140.255C239.379 140.051 239.265 139.817 239.203 139.568C239.141 139.32 239.134 139.062 239.181 138.81C239.871 135.151 241.454 125.831 241.25 118.362C241.19 116.065 241.947 113.817 243.397 111.988C244.847 110.158 246.903 108.856 249.228 108.295C250.627 107.941 252.049 107.672 253.484 107.491C255.133 107.29 256.808 107.463 258.375 107.995C259.942 108.527 261.358 109.403 262.508 110.553C263.658 111.704 264.511 113.096 264.999 114.619C265.486 116.142 265.595 117.754 265.316 119.324C263.952 127.065 262.578 137.876 263.773 145.423C263.827 145.761 263.784 146.107 263.646 146.423C263.508 146.739 263.282 147.012 262.992 147.212C262.667 147.44 262.276 147.564 261.873 147.565Z" fill="#72D3D9"/>
<path d="M241.642 127.877C241.378 127.877 241.117 127.825 240.875 127.724L235.359 125.436C234.889 125.24 234.519 124.874 234.331 124.418C234.142 123.961 234.15 123.452 234.353 123.001L238.617 113.562C238.874 112.991 239.246 112.475 239.712 112.042C240.177 111.609 240.728 111.268 241.331 111.039C241.934 110.81 242.578 110.697 243.227 110.707C243.875 110.716 244.516 110.849 245.111 111.095C245.706 111.342 246.245 111.699 246.696 112.146C247.148 112.592 247.503 113.12 247.741 113.698C247.98 114.276 248.097 114.894 248.086 115.515C248.076 116.137 247.937 116.75 247.679 117.321L243.415 126.76C243.265 127.091 243.017 127.374 242.702 127.572C242.387 127.771 242.019 127.877 241.642 127.877Z" fill="#72D3D9"/>
<path d="M254.268 104.279C260.092 104.279 264.813 99.7552 264.813 94.1742C264.813 88.5932 260.092 84.0688 254.268 84.0688C248.445 84.0688 243.723 88.5932 243.723 94.1742C243.723 99.7552 248.445 104.279 254.268 104.279Z" fill="#FFB8B8"/>
<path d="M243.534 89.2094C248.528 92.1313 254.159 93.9094 259.989 94.4052L258.254 92.4136C259.517 92.8611 260.846 93.114 262.191 93.1629C263.535 93.1428 264.943 92.6469 265.706 91.5864C266.046 91.0591 266.248 90.4609 266.295 89.8426C266.342 89.2244 266.232 88.6045 265.975 88.0357C265.446 86.9014 264.623 85.9156 263.585 85.1721C261.744 83.7766 259.571 82.8392 257.261 82.4435C254.95 82.0478 252.573 82.206 250.342 82.9041C248.811 83.3424 247.441 84.185 246.387 85.3354C245.387 86.5172 243.463 87.5702 243.974 89.0102L243.534 89.2094Z" fill="#2F2E41"/>
<path d="M256.041 81.0544C252.716 77.8223 248.691 75.3282 244.251 73.7476C241.4 72.7357 238.298 72.1105 235.318 72.6852C232.338 73.2598 229.52 75.2353 228.689 78.037C228.009 80.3281 228.711 82.7948 229.766 84.9515C230.821 87.1081 232.229 89.108 233.083 91.3451C233.953 93.6278 234.215 96.0826 233.844 98.4869C233.473 100.891 232.482 103.168 230.96 105.112C229.438 107.056 227.433 108.605 225.128 109.618C222.823 110.631 220.29 111.077 217.76 110.914C220.688 111.29 223.386 112.609 226.248 113.311C229.11 114.012 232.488 113.965 234.614 112C236.865 109.921 236.91 106.541 236.801 103.548L236.316 90.199C236.233 87.9298 236.163 85.5878 237.017 83.4698C237.871 81.3518 239.9 79.4971 242.27 79.5163C244.065 79.531 245.655 80.5734 247.095 81.6015C248.535 82.6296 250.059 83.7265 251.848 83.8794C253.636 84.0323 255.679 82.7638 255.545 81.0477" fill="#2F2E41"/>
<path d="M207.025 115.65L231.306 116.199L234.823 141.073L212.4 141.555L207.025 115.65Z" fill="#E6E6E6"/>
<path d="M232.844 122.269C232.986 122.452 233.113 122.644 233.224 122.846L254.399 124.984L257.447 120.979L264.356 124.597L258.369 134.316L232.399 127.971C231.744 128.583 230.91 128.989 230.008 129.136C229.106 129.283 228.178 129.163 227.349 128.792C226.52 128.422 225.828 127.818 225.365 127.061C224.903 126.305 224.691 125.431 224.76 124.556C224.828 123.682 225.172 122.848 225.747 122.166C226.322 121.484 227.1 120.985 227.978 120.737C228.855 120.489 229.791 120.502 230.66 120.776C231.529 121.05 232.291 121.571 232.844 122.269V122.269Z" fill="#FFB8B8"/>
<path d="M261.821 128.289C261.557 128.288 261.296 128.236 261.053 128.135L255.537 125.847C255.068 125.651 254.698 125.285 254.51 124.829C254.321 124.373 254.329 123.863 254.532 123.413L258.796 113.973C259.053 113.402 259.425 112.886 259.891 112.453C260.356 112.02 260.906 111.679 261.51 111.45C262.113 111.221 262.757 111.108 263.405 111.118C264.054 111.128 264.694 111.26 265.29 111.507C265.885 111.754 266.424 112.111 266.875 112.557C267.326 113.004 267.682 113.531 267.92 114.109C268.159 114.687 268.276 115.305 268.265 115.927C268.255 116.548 268.116 117.162 267.858 117.732L263.594 127.171C263.444 127.503 263.196 127.785 262.881 127.984C262.566 128.182 262.198 128.288 261.821 128.289Z" fill="#72D3D9"/>
<path d="M211.908 128.155H41.0318C40.2917 128.155 39.5818 128.437 39.0585 128.939C38.5351 129.44 38.2411 130.12 38.2411 130.83C38.2411 131.539 38.5351 132.219 39.0585 132.721C39.5818 133.222 40.2917 133.504 41.0318 133.504H45.9692V191.722C45.9692 192.432 46.2632 193.112 46.7866 193.613C47.3099 194.115 48.0197 194.397 48.7599 194.397C49.5 194.397 50.2098 194.115 50.7332 193.613C51.2566 193.112 51.5506 192.432 51.5506 191.722V138.643L82.8369 192.985C83.2078 193.597 83.8172 194.044 84.5313 194.227C85.2455 194.409 86.0061 194.313 86.6463 193.959C87.2864 193.605 87.7538 193.022 87.9458 192.337C88.1378 191.653 88.0388 190.924 87.6705 190.31L54.9654 133.504H204.395V133.539L171.71 190.31C171.34 190.924 171.239 191.654 171.431 192.339C171.623 193.025 172.09 193.609 172.731 193.963C173.372 194.318 174.134 194.414 174.849 194.231C175.564 194.047 176.173 193.599 176.543 192.985L204.395 144.609V191.722C204.395 192.432 204.689 193.112 205.212 193.613C205.736 194.115 206.445 194.397 207.186 194.397C207.926 194.397 208.636 194.115 209.159 193.613C209.682 193.112 209.976 192.432 209.976 191.722V134.914L210.788 133.504H211.908C212.648 133.504 213.358 133.222 213.882 132.721C214.405 132.219 214.699 131.539 214.699 130.83C214.699 130.12 214.405 129.44 213.882 128.939C213.358 128.437 212.648 128.155 211.908 128.155Z" fill="#3F3D56"/>
<path d="M317.489 195H0.511207C0.375884 195 0.24624 194.948 0.15069 194.856C0.0551398 194.764 0.0014801 194.64 0.0014801 194.51C0.0014801 194.38 0.0551398 194.256 0.15069 194.164C0.24624 194.072 0.375884 194.021 0.511207 194.02H317.489C317.624 194.02 317.754 194.072 317.85 194.164C317.946 194.256 318 194.38 318 194.51C318 194.64 317.946 194.765 317.85 194.857C317.754 194.948 317.624 195 317.489 195Z" fill="#3F3D56"/>
</g>
<defs>
<clipPath id="clip0">
<rect width="318" height="195" fill="white"/>
</clipPath>
</defs>
</svg>
