<svg width="164" height="171" viewBox="0 0 164 171" fill="none" xmlns="http://www.w3.org/2000/svg">
<path d="M51.9503 171C80.6417 171 103.901 169.407 103.901 167.443C103.901 165.478 80.6417 163.886 51.9503 163.886C23.2589 163.886 0 165.478 0 167.443C0 169.407 23.2589 171 51.9503 171Z" fill="#E6E6E6"/>
<path d="M72.6615 100.007C73.1714 97.1496 75.8107 95.4707 78.4424 94.7988C81.446 94.0319 84.6478 94.1263 87.7046 94.4722C93.8602 95.1688 99.9045 97.0513 106.151 96.7594C111.583 96.4866 116.847 94.7963 121.418 91.8576C126.017 88.9081 129.723 84.7636 132.137 79.8698C134.568 74.9446 135.646 69.4641 135.261 63.9874C135.21 63.3066 135.133 62.6286 135.037 61.9526C134.968 61.4689 134.232 61.6747 134.3 62.1553C135.044 67.6003 134.275 73.1445 132.079 78.1841C129.923 83.1722 126.419 87.4641 121.959 90.5803C117.513 93.6787 112.317 95.5333 106.91 95.9517C100.743 96.401 94.7509 94.6325 88.6906 93.8313C85.6297 93.4267 82.5079 93.2759 79.452 93.8064C76.745 94.2762 73.9679 95.4841 72.5783 97.9863C72.2617 98.5522 72.0409 99.1663 71.9249 99.8039C71.8393 100.284 72.5754 100.489 72.6616 100.007H72.6615Z" fill="#3F3D56"/>
<path d="M132.168 63.5215C149.748 63.5215 164 49.3018 164 31.7608C164 14.2198 149.748 0 132.168 0C114.587 0 100.335 14.2198 100.335 31.7608C100.335 49.3018 114.587 63.5215 132.168 63.5215Z" fill="#72D3D9"/>
<path d="M120.199 33.5393C124.699 33.5393 128.348 29.8991 128.348 25.4086C128.348 20.9181 124.699 17.2778 120.199 17.2778C115.698 17.2778 112.05 20.9181 112.05 25.4086C112.05 29.8991 115.698 33.5393 120.199 33.5393Z" fill="white"/>
<path d="M122.752 41.6702C122.819 42.9043 123.357 44.0661 124.255 44.9167C125.154 45.7674 126.345 46.2422 127.584 46.2437H140.826C142.065 46.2422 143.256 45.7674 144.154 44.9167C145.053 44.0661 145.591 42.9043 145.658 41.6702H122.752Z" fill="white"/>
<path d="M117.143 32.396C119.534 32.396 121.472 30.4621 121.472 28.0765C121.472 25.691 119.534 23.7571 117.143 23.7571C114.752 23.7571 112.814 25.691 112.814 28.0765C112.814 30.4621 114.752 32.396 117.143 32.396Z" fill="#3F3D56"/>
<path d="M118.671 27.3142C119.233 27.3142 119.689 26.8592 119.689 26.2979C119.689 25.7366 119.233 25.2816 118.671 25.2816C118.108 25.2816 117.652 25.7366 117.652 26.2979C117.652 26.8592 118.108 27.3142 118.671 27.3142Z" fill="white"/>
<path d="M146.683 33.6664C151.184 33.6664 154.832 30.0262 154.832 25.5357C154.832 21.0452 151.184 17.4049 146.683 17.4049C142.183 17.4049 138.534 21.0452 138.534 25.5357C138.534 30.0262 142.183 33.6664 146.683 33.6664Z" fill="white"/>
<path d="M143.627 32.396C146.018 32.396 147.956 30.4621 147.956 28.0765C147.956 25.691 146.018 23.7571 143.627 23.7571C141.236 23.7571 139.298 25.691 139.298 28.0765C139.298 30.4621 141.236 32.396 143.627 32.396Z" fill="#3F3D56"/>
<path d="M145.155 27.3142C145.718 27.3142 146.174 26.8592 146.174 26.2979C146.174 25.7366 145.718 25.2816 145.155 25.2816C144.593 25.2816 144.137 25.7366 144.137 26.2979C144.137 26.8592 144.593 27.3142 145.155 27.3142Z" fill="white"/>
<path d="M132.677 37.6048C134.365 37.6048 135.733 36.2397 135.733 34.5557C135.733 32.8718 134.365 31.5067 132.677 31.5067C130.989 31.5067 129.621 32.8718 129.621 34.5557C129.621 36.2397 130.989 37.6048 132.677 37.6048Z" fill="#3F3D56"/>
<path d="M137.261 61.7429H131.658V66.0624H137.261V61.7429Z" fill="#72D3D9"/>
<path d="M56.8555 146.638C56.8555 146.638 60.4503 157.142 58.9097 160.985L63.5316 165.084L66.3561 161.497C66.3561 161.497 63.2748 158.423 63.5316 156.117C63.7884 153.812 64.0452 145.613 64.0452 145.613L56.8555 146.638Z" fill="#FFB9B9"/>
<path d="M74.0579 167.132C73.848 167.255 73.6478 167.371 73.4637 167.477H57.5261C57.3784 167.393 57.2598 167.266 57.186 167.113C57.1122 166.96 57.0866 166.788 57.1127 166.62C57.187 166.24 57.3775 165.467 57.6133 164.577C58.172 162.473 58.9923 159.718 59.1699 160.011C59.1704 160.011 59.1708 160.011 59.1712 160.011C59.1716 160.012 59.1719 160.012 59.1722 160.012C59.1725 160.012 59.1728 160.013 59.1729 160.013C59.1731 160.014 59.1732 160.014 59.1731 160.014C59.4218 160.472 59.9353 162.521 61.2207 162.267C62.506 162.009 64.56 161.497 64.56 161.497C64.56 161.497 63.8269 159.853 64.5277 159.19C64.6784 159.05 64.8693 158.961 65.0734 158.935C66.6139 158.68 66.6139 160.984 66.6139 160.984L72.2623 164.058C72.7492 164.193 73.2244 164.366 73.6833 164.577C74.8298 165.112 75.9633 166.027 74.0579 167.132Z" fill="#2F2E41"/>
<path d="M46.5844 142.795L39.9083 150.737L38.1108 154.836L40.4218 156.63L42.476 155.861C42.476 155.861 44.2734 151.25 46.0709 150.481C47.8683 149.712 52.2335 144.588 52.2335 144.588L46.5844 142.795Z" fill="#FFB9B9"/>
<path d="M60.5787 136.7L57.1739 142.997L54.7345 147.506C53.9539 147.97 52.914 147.963 51.7944 147.688C51.2727 147.555 50.7613 147.385 50.264 147.179C47.2084 145.931 44.1091 143.453 44.1091 143.453L49.9739 136.142L51.8894 133.756L52.3439 133.188L54.5342 134.123L58.3987 135.77L60.5787 136.7Z" fill="#2F2E41"/>
<path d="M45.3831 82.3218L42.6633 93.4532L45.4629 107.734C45.4629 107.734 45.5319 113.572 48.0973 113.129C50.6628 112.686 47.9742 106.798 47.9742 106.798L46.7194 95.0886L50.7315 83.5201C51.0565 82.583 50.6461 81.577 49.7047 81.0034C48.1161 80.0353 45.8586 80.724 45.3831 82.3218Z" fill="#FFB9B9"/>
<path d="M54.9296 72.7248L52.6186 79.8984L48.2534 77.5926C48.2534 77.5926 50.0508 72.4686 50.0508 71.7C50.0508 70.9314 54.9296 72.7248 54.9296 72.7248Z" fill="#FFB9B9"/>
<path d="M53.1323 75.543C56.1103 75.543 58.5245 73.1343 58.5245 70.1629C58.5245 67.1915 56.1103 64.7827 53.1323 64.7827C50.1542 64.7827 47.74 67.1915 47.74 70.1629C47.74 73.1343 50.1542 75.543 53.1323 75.543Z" fill="#FFB9B9"/>
<path d="M54.5444 81.5637L53.5173 80.5389L53.2606 79.2579C53.2606 79.2579 49.9225 74.9025 47.098 76.4397C46.2153 76.9201 45.5583 78.0259 45.0722 79.3194C43.834 82.7002 43.9495 86.427 45.3947 89.725L49.9225 100.266L60.1935 99.2413L58.3961 92.5802C58.3961 92.5802 60.1935 88.481 56.8554 85.6628L54.5444 81.5637Z" fill="#72D3D9"/>
<path opacity="0.3" d="M60.5787 136.7L57.1739 142.997L54.7345 147.506C53.9539 147.97 52.914 147.963 51.7944 147.688C51.5993 146.392 52.7651 139.541 51.8484 133.956L51.8894 133.756L52.3439 133.188L54.5342 134.123L58.3987 135.77L60.5787 136.7Z" fill="black"/>
<path d="M60.5787 98.6008C60.5787 98.6008 53.9026 94.5016 49.2806 99.6256L49.5374 101.163C49.5374 101.163 45.6857 105.518 47.9967 114.741C50.3077 123.964 53.9025 148.047 53.9025 148.047C53.9025 148.047 62.3761 148.559 66.2278 145.741C66.2278 145.741 64.9439 113.973 60.5787 110.898V98.6008Z" fill="#2F2E41"/>
<path d="M46.6576 84.3315L53.9026 93.2207L66.9981 99.6257C66.9981 99.6257 71.7015 103.099 72.8981 100.792C74.0948 98.4846 67.7685 97.0637 67.7685 97.0637L57.6597 90.9847L50.8467 80.8041C50.2948 79.9794 49.2434 79.6977 48.2165 80.0994C46.4834 80.7772 45.6691 82.988 46.6576 84.3315Z" fill="#FFB9B9"/>
<path d="M41.8573 155.298C41.8573 155.298 43.4313 153.323 44.3715 154.568C45.3117 155.812 43.2627 156.878 43.2627 156.878L43.1435 163.298C43.1435 163.298 44.2616 168.206 41.2429 166.31C38.2241 164.413 38.1054 164.186 37.5116 163.05C36.9178 161.915 35.6908 157.352 34.6318 155.88C33.5728 154.409 32.6031 151.446 33.8601 151.081C35.1172 150.715 40.9767 149.415 40.6847 149.848C40.3928 150.281 38.809 151.684 39.6305 152.701C40.452 153.718 41.8573 155.298 41.8573 155.298Z" fill="#2F2E41"/>
<path d="M55.9562 65.5709C55.9562 65.5643 55.9567 65.5579 55.9567 65.5513C55.9567 64.0818 55.5199 62.6454 54.7017 61.4236C53.8835 60.2018 52.7205 59.2495 51.3598 58.6871C49.9992 58.1248 48.5019 57.9777 47.0575 58.2643C45.613 58.551 44.2861 59.2586 43.2447 60.2977C42.2033 61.3368 41.4941 62.6606 41.2068 64.1019C40.9195 65.5431 41.0669 67.0369 41.6306 68.3945C42.1942 69.7521 43.1486 70.9125 44.3732 71.7289C45.5977 72.5453 47.0374 72.981 48.5102 72.981C48.6832 72.981 49.3673 74.2736 49.5373 74.262C49.5475 70.3402 52.0901 65.8342 55.9562 65.5709Z" fill="#2F2E41"/>
<path d="M40.5504 64.7827C43.2448 64.7827 45.4291 62.6033 45.4291 59.9149C45.4291 57.2265 43.2448 55.0471 40.5504 55.0471C37.8559 55.0471 35.6716 57.2265 35.6716 59.9149C35.6716 62.6033 37.8559 64.7827 40.5504 64.7827Z" fill="#2F2E41"/>
<path d="M40.3264 52.5411C41.5021 52.5337 42.6407 52.9507 43.5324 53.7152C44.4241 54.4797 45.0086 55.5402 45.1781 56.7009C45.3477 57.8617 45.0909 59.0445 44.455 60.0311C43.8191 61.0178 42.8471 61.7417 41.7183 62.0695C42.4173 62.0683 43.1078 61.9172 43.7432 61.6265C44.3785 61.3357 44.9437 60.912 45.4005 60.3841C45.8573 59.8562 46.195 59.2365 46.3907 58.567C46.5864 57.8974 46.6355 57.1938 46.5346 56.5037C46.4338 55.8135 46.1855 55.1531 45.8064 54.5672C45.4273 53.9812 44.9264 53.4835 44.3376 53.1076C43.7488 52.7318 43.0859 52.4867 42.3938 52.389C41.7017 52.2912 40.9966 52.3431 40.3264 52.5411Z" fill="#2F2E41"/>
<path d="M51.8484 64.0141H55.757C56.6272 64.0141 57.4618 64.359 58.0771 64.973C58.6924 65.5869 59.0381 66.4196 59.0381 67.2878V68.6257H51.8484V64.0141Z" fill="#2F2E41"/>
</svg>
